<?xml version="1.0" encoding="UTF-8" standalone="no"?>
<!-- Created with Inkscape (http://www.inkscape.org/) -->

<svg
   xmlns:dc="http://purl.org/dc/elements/1.1/"
   xmlns:cc="http://creativecommons.org/ns#"
   xmlns:rdf="http://www.w3.org/1999/02/22-rdf-syntax-ns#"
   xmlns:svg="http://www.w3.org/2000/svg"
   xmlns="http://www.w3.org/2000/svg"
   xmlns:sodipodi="http://sodipodi.sourceforge.net/DTD/sodipodi-0.dtd"
   xmlns:inkscape="http://www.inkscape.org/namespaces/inkscape"
   width="70"
   height="40"
   id="svg5144"
   version="1.1"
   inkscape:version="0.48+devel r"
   viewBox="0 0 70 40.000001"
   sodipodi:docname="contact_ico.svg">
  <defs
     id="defs5146">
    <clipPath
       clipPathUnits="userSpaceOnUse"
       id="clipPath626">
      <path
         d="m 0,0 1024,0 0,900 L 0,900 0,0 Z"
         id="path628"
         inkscape:connector-curvature="0" />
    </clipPath>
  </defs>
  <sodipodi:namedview
     id="base"
     pagecolor="#ffffff"
     bordercolor="#666666"
     borderopacity="1.0"
     inkscape:pageopacity="0.0"
     inkscape:pageshadow="2"
     inkscape:zoom="7.9195959"
     inkscape:cx="73.375962"
     inkscape:cy="39.06518"
     inkscape:document-units="px"
     inkscape:current-layer="layer1"
     showgrid="false"
     inkscape:window-width="1918"
     inkscape:window-height="864"
     inkscape:window-x="0"
     inkscape:window-y="0"
     inkscape:window-maximized="0" />
  <metadata
     id="metadata5149">
    <rdf:RDF>
      <cc:Work
         rdf:about="">
        <dc:format>image/svg+xml</dc:format>
        <dc:type
           rdf:resource="http://purl.org/dc/dcmitype/StillImage" />
        <dc:title></dc:title>
      </cc:Work>
    </rdf:RDF>
  </metadata>
  <g
     inkscape:label="Layer 1"
     inkscape:groupmode="layer"
     id="layer1"
     transform="translate(0,-1012.3622)">
    <g
       transform="matrix(2.465615,0,0,-2.465615,-540.87969,2898.0329)"
       id="g622">
      <g
         id="g624"
         clip-path="url(#clipPath626)">
        <g
           id="g630"
           transform="translate(234.5642,756.8301)">
          <path
             d="m 0,0 c 0,2.814 -2.825,5.098 -6.309,5.098 -3.484,0 -6.309,-2.284 -6.309,-5.098 0,-2.816 2.825,-5.1 6.309,-5.1 0.437,0 0.863,0.038 1.274,0.106 l 2.523,-1.553 -0.526,2.193 C -1.219,-3.459 0,-1.848 0,0 Z"
             style="fill:none;stroke:#517286;stroke-width:0.75;stroke-linecap:butt;stroke-linejoin:miter;stroke-miterlimit:4;stroke-opacity:1;stroke-dasharray:none"
             id="path632"
             inkscape:connector-curvature="0" />
        </g>
        <g
           id="g634"
           transform="translate(245.5309,759.7227)">
          <path
             d="m 0,0 c 0,2.227 -2.234,4.031 -4.989,4.031 -2.756,0 -4.99,-1.804 -4.99,-4.031 0,-1.316 0.793,-2.475 2,-3.209 l -0.591,-2.465 2.776,1.707 C -5.531,-4 -5.265,-4.031 -4.989,-4.031 -2.234,-4.031 0,-2.227 0,0 Z"
             style="fill:none;stroke:#517286;stroke-width:0.75;stroke-linecap:butt;stroke-linejoin:miter;stroke-miterlimit:4;stroke-opacity:1;stroke-dasharray:none"
             id="path636"
             inkscape:connector-curvature="0" />
        </g>
      </g>
    </g>
  </g>
</svg>
