<?xml version="1.0" encoding="UTF-8" standalone="no"?>
<!-- Created with Inkscape (http://www.inkscape.org/) -->

<svg
   xmlns:dc="http://purl.org/dc/elements/1.1/"
   xmlns:cc="http://creativecommons.org/ns#"
   xmlns:rdf="http://www.w3.org/1999/02/22-rdf-syntax-ns#"
   xmlns:svg="http://www.w3.org/2000/svg"
   xmlns="http://www.w3.org/2000/svg"
   version="1.1"
   width="30"
   height="30"
   viewBox="0 0 30 30"
   id="svg13751">
  <defs
     id="defs13753" />
  <metadata
     id="metadata13756">
    <rdf:RDF>
      <cc:Work
         rdf:about="">
        <dc:format>image/svg+xml</dc:format>
        <dc:type
           rdf:resource="http://purl.org/dc/dcmitype/StillImage" />
        <dc:title></dc:title>
      </cc:Work>
    </rdf:RDF>
  </metadata>
  <g
     transform="translate(0,-1022.3622)"
     id="layer1">
    <g
       transform="matrix(1.25,0,0,-1.25,11.12725,1029.3794)"
       id="g13025">
      <path
         d="M 0,0 1.359,-1.359 2.718,0 1.359,1.359 0,0 Z"
         id="path13027"
         style="fill:#517286;fill-opacity:1;fill-rule:nonzero;stroke:none" />
    </g>
    <g
       transform="matrix(1.25,0,0,-1.25,14.79151,1033.0434)"
       id="g13029">
      <path
         d="M 0,0 1.359,-1.359 2.718,0 1.359,1.359 0,0 Z"
         id="path13031"
         style="fill:#517286;fill-opacity:1;fill-rule:nonzero;stroke:none" />
    </g>
    <g
       transform="matrix(1.25,0,0,-1.25,11,1044.1635)"
       id="g13033">
      <path
         d="M 0,0 1.359,-1.359 2.718,0 1.359,1.359 0,0 Z"
         id="path13035"
         style="fill:#517286;fill-opacity:1;fill-rule:nonzero;stroke:none" />
    </g>
    <g
       transform="matrix(1.25,0,0,-1.25,14.72788,1040.4356)"
       id="g13037">
      <path
         d="M 0,0 1.359,-1.359 2.718,0 1.359,1.359 0,0 Z"
         id="path13039"
         style="fill:#517286;fill-opacity:1;fill-rule:nonzero;stroke:none" />
    </g>
    <g
       transform="matrix(1.25,0,0,-1.25,18.45575,1036.7079)"
       id="g13041">
      <path
         d="M 0,0 1.359,-1.359 2.718,0 1.359,1.359 0,0 Z"
         id="path13043"
         style="fill:#517286;fill-opacity:1;fill-rule:nonzero;stroke:none" />
    </g>
  </g>
</svg>
