<?xml version="1.0" encoding="UTF-8" standalone="no"?>
<!-- Created with Inkscape (http://www.inkscape.org/) -->

<svg
   xmlns:dc="http://purl.org/dc/elements/1.1/"
   xmlns:cc="http://creativecommons.org/ns#"
   xmlns:rdf="http://www.w3.org/1999/02/22-rdf-syntax-ns#"
   xmlns:svg="http://www.w3.org/2000/svg"
   xmlns="http://www.w3.org/2000/svg"
   xmlns:sodipodi="http://sodipodi.sourceforge.net/DTD/sodipodi-0.dtd"
   xmlns:inkscape="http://www.inkscape.org/namespaces/inkscape"
   width="30"
   height="30"
   id="svg7394"
   version="1.1"
   inkscape:version="0.48+devel r"
   viewBox="0 0 30 30"
   sodipodi:docname="info_icon.svg">
  <defs
     id="defs7396" />
  <sodipodi:namedview
     id="base"
     pagecolor="#ffffff"
     bordercolor="#666666"
     borderopacity="1.0"
     inkscape:pageopacity="0.0"
     inkscape:pageshadow="2"
     inkscape:zoom="7.9195959"
     inkscape:cx="7.2547044"
     inkscape:cy="38.469775"
     inkscape:document-units="px"
     inkscape:current-layer="layer1"
     showgrid="false"
     inkscape:window-width="1918"
     inkscape:window-height="864"
     inkscape:window-x="0"
     inkscape:window-y="0"
     inkscape:window-maximized="0" />
  <metadata
     id="metadata7399">
    <rdf:RDF>
      <cc:Work
         rdf:about="">
        <dc:format>image/svg+xml</dc:format>
        <dc:type
           rdf:resource="http://purl.org/dc/dcmitype/StillImage" />
        <dc:title></dc:title>
      </cc:Work>
    </rdf:RDF>
  </metadata>
  <g
     inkscape:label="Layer 1"
     inkscape:groupmode="layer"
     id="layer1"
     transform="translate(0,-1022.3622)">
    <path
       d="m 14.755951,1044.7556 c 4.36875,0 7.90875,-3.54 7.90875,-7.9075 0,-4.37 -3.54,-7.91 -7.90875,-7.91 -4.3675,0 -7.90875,3.54 -7.90875,7.91 0,4.3675 3.54125,7.9075 7.90875,7.9075 z"
       style="fill:none;stroke:#517286;stroke-width:0.9375;stroke-linecap:butt;stroke-linejoin:miter;stroke-miterlimit:4;stroke-opacity:1;stroke-dasharray:none"
       id="path3324"
       inkscape:connector-curvature="0" />
    <path
       d="m 15.343601,1034.9454 -1.1625,0 0,6.5 1.1625,0 0,-6.5 z m -0.0563,-1.3812 c 0.14625,-0.1375 0.21875,-0.3225 0.21875,-0.5563 0,-0.2325 -0.0725,-0.4187 -0.21875,-0.5562 -0.14625,-0.1375 -0.3225,-0.2063 -0.53125,-0.2063 -0.20875,0 -0.38625,0.069 -0.53125,0.2063 -0.14625,0.1375 -0.21875,0.3237 -0.21875,0.5562 0,0.2338 0.0725,0.4188 0.21875,0.5563 0.145,0.1375 0.3225,0.2062 0.53125,0.2062 0.20875,0 0.385,-0.069 0.53125,-0.2062"
       style="fill:#4d6c7f;fill-opacity:1;fill-rule:nonzero;stroke:none"
       id="path3326"
       inkscape:connector-curvature="0" />
  </g>
</svg>
