<?xml version="1.0" encoding="UTF-8" standalone="no"?>
<!-- Created with Inkscape (http://www.inkscape.org/) -->

<svg
   xmlns:dc="http://purl.org/dc/elements/1.1/"
   xmlns:cc="http://creativecommons.org/ns#"
   xmlns:rdf="http://www.w3.org/1999/02/22-rdf-syntax-ns#"
   xmlns:svg="http://www.w3.org/2000/svg"
   xmlns="http://www.w3.org/2000/svg"
   xmlns:sodipodi="http://sodipodi.sourceforge.net/DTD/sodipodi-0.dtd"
   xmlns:inkscape="http://www.inkscape.org/namespaces/inkscape"
   width="30"
   height="30"
   id="svg8453"
   version="1.1"
   inkscape:version="0.48+devel r"
   viewBox="0 0 30 30"
   sodipodi:docname="login_ico.svg"
   inkscape:export-filename="/opt/lampp/htdocs/otwarte/add-ons/themes/otwartezabytki2013/img/login_ico.png"
   inkscape:export-xdpi="90.017723"
   inkscape:export-ydpi="90.017723">
  <defs
     id="defs8455" />
  <sodipodi:namedview
     id="base"
     pagecolor="#ffffff"
     bordercolor="#666666"
     borderopacity="1.0"
     inkscape:pageopacity="0.0"
     inkscape:pageshadow="2"
     inkscape:zoom="3.959798"
     inkscape:cx="5.194815"
     inkscape:cy="1.7141438"
     inkscape:document-units="px"
     inkscape:current-layer="layer1"
     showgrid="false"
     inkscape:window-width="1920"
     inkscape:window-height="1030"
     inkscape:window-x="0"
     inkscape:window-y="0"
     inkscape:window-maximized="1" />
  <metadata
     id="metadata8458">
    <rdf:RDF>
      <cc:Work
         rdf:about="">
        <dc:format>image/svg+xml</dc:format>
        <dc:type
           rdf:resource="http://purl.org/dc/dcmitype/StillImage" />
        <dc:title></dc:title>
      </cc:Work>
    </rdf:RDF>
  </metadata>
  <g
     inkscape:label="Layer 1"
     inkscape:groupmode="layer"
     id="layer1"
     transform="translate(0,-1022.3622)">
    <path
       d="m 14.55755,1035.479 c 2.0775,0 3.7675,-1.6901 3.7675,-3.7675 0,-2.0775 -1.69,-3.7675 -3.7675,-3.7675 -2.0775,0 -3.7675,1.69 -3.7675,3.7675 0,2.0775 1.69,3.7675 3.7675,3.7675 z"
       style="fill:none;stroke:#517286;stroke-width:0.9375;stroke-linecap:butt;stroke-linejoin:miter;stroke-miterlimit:4;stroke-opacity:1;stroke-dasharray:none"
       id="path6356"
       inkscape:connector-curvature="0" />
    <path
       d="m 7.56875,1039.3331 c 0,0.7186 0.11875,1.435 0.3525,2.1275 l 0.05375,0.1562 0.13875,0.088 c 1.93375,1.2349 4.1625,1.8887 6.44375,1.8887 2.28125,0 4.51,-0.6538 6.44375,-1.8887 l 0.13875,-0.089 0.05375,-0.1564 c 0.23375,-0.6925 0.3525,-1.4075 0.3525,-2.1261 0,-2.2489 -1.1925,-4.354 -3.19125,-5.6326 l -0.35,-0.2238 -0.26375,0.3213 c -0.79875,0.9675 -1.95875,1.5225 -3.18375,1.5225 -1.225,0 -2.385,-0.555 -3.18375,-1.5225 l -0.26375,-0.3213 -0.35,0.2238 c -1.99875,1.2787 -3.19125,3.3851 -3.19125,5.6326 z"
       style="fill:none;stroke:#517286;stroke-width:0.9375;stroke-linecap:butt;stroke-linejoin:miter;stroke-miterlimit:4;stroke-opacity:1;stroke-dasharray:none"
       id="path6364"
       inkscape:connector-curvature="0" />
  </g>
</svg>
