<?xml version="1.0" encoding="UTF-8" standalone="no"?>
<!-- Created with Inkscape (http://www.inkscape.org/) -->

<svg
   xmlns:dc="http://purl.org/dc/elements/1.1/"
   xmlns:cc="http://creativecommons.org/ns#"
   xmlns:rdf="http://www.w3.org/1999/02/22-rdf-syntax-ns#"
   xmlns:svg="http://www.w3.org/2000/svg"
   xmlns="http://www.w3.org/2000/svg"
   version="1.1"
   width="70"
   height="30"
   viewBox="0 0 70 30"
   id="svg9496">
  <defs
     id="defs9498">
    <clipPath
       id="clipPath5018">
      <path
         d="m 0,0 1024,0 0,1600 L 0,1600 0,0 Z"
         id="path5020" />
    </clipPath>
  </defs>
  <metadata
     id="metadata9501">
    <rdf:RDF>
      <cc:Work
         rdf:about="">
        <dc:format>image/svg+xml</dc:format>
        <dc:type
           rdf:resource="http://purl.org/dc/dcmitype/StillImage" />
        <dc:title></dc:title>
      </cc:Work>
    </rdf:RDF>
  </metadata>
  <g
     transform="translate(0,-1022.3622)"
     id="layer1">
    <g
       transform="matrix(1.25,0,0,-1.25,-777.62119,1184.8631)"
       id="g5014">
      <g
         clip-path="url(#clipPath5018)"
         id="g5016">
        <g
           transform="translate(641.1295,108.8955)"
           id="g5022">
          <path
             d="m 0,0 0,18.573 c -0.01,0.222 -0.197,0.397 -0.418,0.397 -0.114,0 -0.223,-0.045 -0.301,-0.127 l -1.863,-1.861 c -0.218,-0.221 -0.218,-0.579 0,-0.796 l 0.026,-0.026 c 0.02,-0.03 0.042,-0.057 0.07,-0.083 l 1.076,-1.079 0,-0.004 0.557,-0.555 c 0.162,-0.164 0.162,-0.432 0,-0.594 l -0.8,-0.8 -0.005,0.002 -0.383,-0.385 c -0.159,-0.16 -0.159,-0.42 0,-0.578 l 0.303,-0.304 0.272,-0.272 0.586,-0.585 c 0.152,-0.161 0.15,-0.417 -0.006,-0.572 L -2.238,8.999 c -0.16,-0.16 -0.418,-0.16 -0.579,0 l -1.35,1.352 c -0.158,0.158 -0.158,0.417 0,0.576 l 0,0.002 0.852,0.851 0.302,0.304 c 0.159,0.158 0.159,0.418 0,0.578 l -1.35,1.35 c -0.161,0.16 -0.42,0.16 -0.58,0 l -1.35,-1.35 c -0.16,-0.16 -0.16,-0.42 0,-0.578 l 0.304,-0.304 0.226,-0.224 0.629,-0.632 c 0.156,-0.16 0.154,-0.417 -0.005,-0.573 L -6.488,8.999 c -0.16,-0.16 -0.421,-0.16 -0.58,0 l -1.352,1.352 c -0.157,0.158 -0.157,0.418 0,0.578 l 0.29,0.289 0.866,0.866 c 0.158,0.158 0.158,0.418 0,0.578 l -0.722,0.723 0,0.004 -0.431,0.431 c -0.162,0.161 -0.162,0.429 0,0.593 l 0.431,0.43 0,0.006 1.336,1.337 c 0.219,0.217 0.219,0.575 0,0.796 l -1.856,1.856 c -0.217,0.216 -0.58,0.216 -0.796,0 l -1.856,-1.856 c -0.22,-0.221 -0.22,-0.579 0,-0.796 l 1.335,-1.337 0,-0.006 0.431,-0.43 c 0.163,-0.164 0.163,-0.432 0,-0.593 l -0.431,-0.431 0,-0.004 -0.722,-0.723 c -0.158,-0.16 -0.158,-0.42 0,-0.578 l 0.866,-0.866 0.29,-0.289 c 0.158,-0.16 0.158,-0.42 0,-0.578 l -1.352,-1.352 c -0.16,-0.16 -0.42,-0.16 -0.579,0 l -1.35,1.352 c -0.159,0.156 -0.16,0.413 -0.005,0.573 l 0.63,0.632 0.225,0.224 0.304,0.304 c 0.159,0.158 0.159,0.418 0,0.578 l -1.35,1.35 c -0.16,0.16 -0.42,0.16 -0.58,0 l -1.349,-1.35 c -0.161,-0.16 -0.161,-0.42 0,-0.578 l 0.302,-0.304 0.852,-0.851 0,-0.002 c 0.158,-0.159 0.158,-0.418 0,-0.576 l -1.352,-1.352 c -0.16,-0.16 -0.418,-0.16 -0.578,0 l -1.352,1.352 c -0.156,0.155 -0.158,0.411 -0.006,0.572 l 0.586,0.585 0.273,0.272 0.302,0.304 c 0.159,0.158 0.159,0.418 0,0.578 l -0.383,0.385 -0.004,-0.002 -0.8,0.8 c -0.163,0.162 -0.163,0.43 0,0.594 l 0.556,0.555 0,0.004 1.076,1.079 c 0.029,0.026 0.049,0.053 0.07,0.083 l 0.025,0.026 c 0.219,0.217 0.219,0.575 0,0.796 l -1.861,1.861 c -0.078,0.082 -0.188,0.127 -0.302,0.127 -0.221,0 -0.408,-0.175 -0.417,-0.397 L -17.808,0 0,0 Z m -16.056,3.033 0.649,0.586 c 0.069,0.068 0.181,0.068 0.251,0 l 0.586,-0.586 c 0.069,-0.07 0.069,-0.182 0,-0.251 l -0.586,-0.587 c -0.07,-0.069 -0.182,-0.069 -0.251,0 l -0.586,0.587 c -0.07,0.069 -0.133,0.181 -0.063,0.251 m 1.845,3.257 -0.879,-0.879 c -0.104,-0.104 -0.273,-0.104 -0.377,0 l -0.879,0.879 c -0.104,0.104 -0.104,0.274 0,0.377 l 0.879,0.88 c 0.104,0.103 0.273,0.103 0.377,0 l 0.879,-0.88 c 0.104,-0.103 0.104,-0.273 0,-0.377 m 2.469,-3.257 0.586,0.586 c 0.07,0.068 0.182,0.068 0.252,0 l 0.586,-0.586 c 0.069,-0.07 0.069,-0.182 0,-0.251 l -0.586,-0.587 c -0.07,-0.069 -0.182,-0.069 -0.252,0 l -0.586,0.587 c -0.069,0.069 -0.069,0.181 0,0.251 m 1.783,3.257 -0.879,-0.879 c -0.104,-0.104 -0.274,-0.104 -0.377,0 l -0.88,0.879 c -0.104,0.104 -0.104,0.274 0,0.377 l 0.88,0.88 c 0.103,0.103 0.273,0.103 0.377,0 l 0.879,-0.88 c 0.104,-0.103 0.104,-0.273 0,-0.377 m 2.468,-3.257 0.586,0.586 c 0.07,0.068 0.183,0.068 0.252,0 l 0.587,-0.586 c 0.068,-0.07 0.068,-0.182 0,-0.251 L -6.653,2.195 c -0.069,-0.069 -0.182,-0.069 -0.252,0 l -0.586,0.587 c -0.069,0.069 -0.069,0.181 0,0.251 M -5.714,6.29 -6.593,5.411 c -0.104,-0.104 -0.273,-0.104 -0.378,0 L -7.85,6.29 c -0.104,0.104 -0.104,0.274 0,0.377 l 0.879,0.88 c 0.105,0.103 0.274,0.103 0.378,0 l 0.879,-0.88 c 0.104,-0.103 0.104,-0.273 0,-0.377 m 2.475,-3.257 0.587,0.586 c 0.069,0.068 0.181,0.068 0.251,0 l 0.585,-0.586 c 0.071,-0.07 0.071,-0.182 0,-0.251 L -2.401,2.195 c -0.07,-0.069 -0.182,-0.069 -0.251,0 l -0.587,0.587 c -0.069,0.069 -0.069,0.181 0,0.251 M -1.463,6.29 -2.342,5.411 c -0.104,-0.104 -0.272,-0.104 -0.378,0 L -3.597,6.29 c -0.105,0.104 -0.105,0.274 0,0.377 l 0.877,0.88 c 0.106,0.103 0.274,0.103 0.378,0 l 0.879,-0.88 c 0.104,-0.103 0.104,-0.273 0,-0.377"
             id="path5024"
             style="fill:#c4122d;fill-opacity:1;fill-rule:nonzero;stroke:none" />
        </g>
        <g
           transform="translate(646.1456,125.8721)"
           id="g5026">
          <path
             d="m 0,0 c 0,-0.34 0,-0.57 -0.01,-0.737 0.211,-0.005 0.423,0.005 0.497,0.015 0.059,0.016 0.09,0.037 0.09,0.116 l 0,0.956 c 0,0.288 0,0.533 -0.026,0.837 0.201,-0.45 0.281,-0.617 0.498,-1.025 0.243,-0.471 0.386,-0.701 0.471,-0.821 0.042,-0.063 0.089,-0.078 0.164,-0.078 0.137,0 0.587,0.052 0.625,0.058 l 0,1.746 c 0,0.339 0.005,0.569 0.01,0.737 C 2.24,1.804 1.954,1.798 1.832,1.787 1.758,1.778 1.731,1.767 1.731,1.678 l 0,-0.706 C 1.731,0.664 1.736,0.455 1.769,0.057 1.695,0.287 1.583,0.507 1.451,0.752 1.303,1.045 1.017,1.594 0.916,1.741 0.884,1.782 0.842,1.804 0.779,1.804 0.721,1.804 0.095,1.787 -0.027,1.772 l 0,-0.02 L 0,1.652 0,0 Z m 5.423,-0.209 c 0.022,-0.069 0.075,-0.209 0.149,-0.402 0.032,-0.09 0.074,-0.126 0.175,-0.126 0.1,0 0.566,0.015 0.635,0.052 l 0,0.021 C 6.302,-0.486 6.191,-0.235 6.006,0.23 5.895,0.528 5.635,1.234 5.408,1.761 5.397,1.782 5.376,1.804 5.317,1.804 5.222,1.804 4.915,1.782 4.603,1.746 L 4.614,1.662 C 4.418,1.161 3.824,-0.204 3.65,-0.674 l 0.005,-0.011 c 0.127,-0.026 0.36,-0.052 0.546,-0.052 0.09,0 0.126,0.015 0.158,0.084 0.038,0.088 0.138,0.339 0.17,0.444 l 0.894,0 z M 4.677,0.266 C 4.809,0.664 4.91,0.946 4.974,1.145 5.032,0.972 5.106,0.774 5.27,0.266 l -0.593,0 z M 8.451,0.251 C 8.589,0.261 8.705,0.199 8.79,0.031 8.901,-0.198 9.034,-0.46 9.092,-0.543 9.203,-0.706 9.319,-0.748 9.52,-0.748 c 0.201,0 0.366,0.016 0.482,0.047 l 0,0.022 C 9.912,-0.575 9.801,-0.392 9.685,-0.172 9.542,0.094 9.404,0.334 9.266,0.444 9.473,0.539 9.753,0.695 9.753,1.056 9.753,1.511 9.462,1.804 8.674,1.804 8.224,1.804 7.768,1.72 7.726,1.704 7.731,1.605 7.731,1.505 7.731,1.312 l 0,-1.323 c 0,-0.329 0,-0.559 -0.01,-0.726 0.079,0 0.529,0.005 0.651,0.015 0.047,0.011 0.079,0.026 0.079,0.116 l 0,0.857 z m 0,1.123 C 8.494,1.385 8.578,1.391 8.652,1.391 8.875,1.391 9.018,1.244 9.018,1.019 9.018,0.831 8.917,0.747 8.843,0.705 8.769,0.664 8.636,0.648 8.451,0.653 l 0,0.721 z M 12.5,1.835 c -0.804,0 -1.403,-0.507 -1.403,-1.339 0,-0.679 0.434,-1.275 1.366,-1.275 0.943,0 1.404,0.611 1.404,1.338 0,0.805 -0.599,1.276 -1.362,1.276 l -0.005,0 z M 12.458,1.369 c 0.397,0 0.62,-0.381 0.62,-0.857 0,-0.518 -0.185,-0.826 -0.562,-0.826 -0.386,0 -0.63,0.329 -0.63,0.863 0,0.575 0.291,0.82 0.567,0.82 l 0.005,0 z m 2.843,-2.043 c 0.227,-0.048 0.519,-0.074 0.757,-0.074 0.862,0 1.742,0.272 1.742,1.292 0,0.517 -0.217,1.26 -1.504,1.26 -0.403,0 -0.884,-0.074 -1.001,-0.111 0.011,-0.093 0.006,-0.161 0.006,-0.438 l 0,-1.929 z m 0.736,2.007 c 0.095,0.01 0.184,0.01 0.254,0.01 0.36,0 0.72,-0.213 0.72,-0.789 0,-0.763 -0.545,-0.858 -0.757,-0.858 -0.069,0 -0.17,0.011 -0.217,0.016 l 0,1.621 z m 4.447,0.502 c -0.804,0 -1.402,-0.507 -1.402,-1.339 0,-0.679 0.433,-1.275 1.366,-1.275 0.942,0 1.403,0.611 1.403,1.338 0,0.805 -0.599,1.276 -1.361,1.276 l -0.006,0 z M 20.442,1.369 c 0.397,0 0.62,-0.381 0.62,-0.857 0,-0.518 -0.186,-0.826 -0.561,-0.826 -0.387,0 -0.631,0.329 -0.631,0.863 0,0.575 0.292,0.82 0.567,0.82 l 0.005,0 z m 3.352,-2.106 c 0.201,0 0.472,0.026 0.556,0.036 0.074,0.016 0.112,0.079 0.143,0.178 0.127,0.408 0.34,1.119 0.408,1.401 0.127,-0.486 0.323,-1.223 0.413,-1.615 0.212,0 0.534,0.021 0.561,0.036 0.069,0.032 0.096,0.079 0.127,0.162 0.174,0.45 0.408,1.078 0.582,1.527 0.143,0.381 0.202,0.575 0.213,0.606 0.037,0.105 0.004,0.167 -0.106,0.184 C 26.51,1.792 26.256,1.804 26.214,1.804 26.15,1.553 26.018,1.113 25.727,0.172 25.606,0.664 25.393,1.396 25.314,1.688 25.287,1.772 25.251,1.804 25.166,1.804 25.018,1.804 24.8,1.772 24.604,1.704 24.609,1.688 24.62,1.62 24.599,1.537 24.451,1.019 24.26,0.319 24.202,0.131 24.075,0.669 23.9,1.27 23.821,1.579 c -0.048,0.188 -0.09,0.225 -0.196,0.225 -0.181,0 -0.503,-0.037 -0.657,-0.063 0.047,-0.121 0.159,-0.45 0.26,-0.738 0.227,-0.658 0.492,-1.542 0.566,-1.74 m 4.378,0.12 0.07,-0.084 c 0.105,-0.015 0.365,-0.036 0.894,-0.036 0.445,0 0.53,0.005 0.588,0.031 0.122,0.053 0.211,0.21 0.264,0.439 l -0.004,0.016 c -0.133,-0.016 -0.366,-0.021 -0.594,-0.021 -0.307,0 -0.423,0.011 -0.481,0.026 l 0,0.565 0.571,0 c 0.148,0 0.254,0.026 0.35,0.46 l -0.921,0 0,0.522 0.423,0 c 0.196,0 0.323,0 0.386,0.032 0.059,0.052 0.133,0.13 0.159,0.439 l -1.011,0 C 28.617,1.767 28.4,1.735 28.162,1.72 c 0.01,-0.183 0.01,-0.319 0.01,-0.507 l 0,-1.83 z"
             id="path5028"
             style="fill:#000000;fill-opacity:1;fill-rule:nonzero;stroke:none" />
        </g>
        <g
           transform="translate(648.2797,117.6177)"
           id="g5030">
          <path
             d="m 0,0 c -0.143,-0.058 -0.381,-0.105 -0.631,-0.105 -0.571,0 -0.904,0.33 -0.904,0.815 0,0.518 0.322,0.79 0.783,0.79 0.217,0 0.429,-0.058 0.514,-0.094 0.053,-0.021 0.095,0 0.127,0.021 0.053,0.031 0.158,0.256 0.142,0.339 -0.079,0.105 -0.391,0.231 -0.809,0.231 -0.821,0 -1.546,-0.455 -1.546,-1.339 0,-0.747 0.518,-1.275 1.54,-1.275 0.27,0 0.535,0.067 0.625,0.125 0.079,0.079 0.175,0.282 0.175,0.476 L 0,0 Z M 2.241,-0.455 2.31,-0.539 c 0.106,-0.016 0.365,-0.036 0.895,-0.036 0.445,0 0.529,0.004 0.587,0.031 0.122,0.052 0.212,0.209 0.265,0.439 L 4.052,-0.089 C 3.919,-0.105 3.686,-0.11 3.458,-0.11 c -0.306,0 -0.423,0.011 -0.481,0.026 l 0,0.564 0.572,0 c 0.148,0 0.254,0.026 0.349,0.461 l -0.921,0 0,0.523 0.424,0 c 0.195,0 0.322,0 0.386,0.031 0.059,0.052 0.132,0.131 0.159,0.439 l -1.011,0 C 2.686,1.929 2.469,1.898 2.231,1.882 2.241,1.699 2.241,1.562 2.241,1.374 l 0,-1.829 z m 4.022,0.617 c 0,-0.341 0,-0.571 -0.011,-0.737 0.212,-0.006 0.423,0.004 0.497,0.015 0.059,0.016 0.091,0.037 0.091,0.116 l 0,0.956 c 0,0.287 0,0.533 -0.027,0.836 0.201,-0.449 0.281,-0.617 0.498,-1.024 0.244,-0.471 0.387,-0.701 0.471,-0.821 0.043,-0.063 0.09,-0.078 0.164,-0.078 0.138,0 0.588,0.052 0.625,0.057 l 0,1.746 c 0,0.34 0.005,0.57 0.011,0.737 -0.08,0 -0.366,-0.005 -0.488,-0.016 -0.073,-0.01 -0.1,-0.02 -0.1,-0.109 l 0,-0.706 C 7.994,0.825 7.999,0.617 8.031,0.219 7.956,0.449 7.845,0.669 7.714,0.915 7.565,1.207 7.279,1.756 7.179,1.902 7.147,1.944 7.104,1.965 7.041,1.965 6.982,1.965 6.358,1.949 6.236,1.934 l 0,-0.021 0.027,-0.099 0,-1.652 z m 5.358,-0.669 c 0,-0.064 0.026,-0.074 0.1,-0.074 0.291,0 0.492,0.01 0.652,0.031 -0.006,0.084 -0.016,0.215 -0.016,0.492 l 0,1.522 0.556,0 c 0.131,0.026 0.269,0.109 0.317,0.47 l -1.641,0 c -0.423,0 -0.551,0.005 -0.62,0.021 C 10.922,1.908 10.821,1.756 10.789,1.578 10.778,1.51 10.81,1.464 10.885,1.464 l 0.736,0 0,-1.971 z m 4.508,0.919 c 0.137,0.011 0.254,-0.052 0.338,-0.219 0.111,-0.23 0.244,-0.492 0.302,-0.575 0.112,-0.162 0.228,-0.204 0.429,-0.204 0.202,0 0.365,0.015 0.481,0.047 l 0,0.021 c -0.089,0.105 -0.201,0.287 -0.317,0.507 -0.143,0.267 -0.28,0.507 -0.418,0.617 0.206,0.094 0.487,0.25 0.487,0.611 0,0.455 -0.291,0.748 -1.08,0.748 -0.45,0 -0.906,-0.083 -0.947,-0.1 0.004,-0.099 0.004,-0.198 0.004,-0.392 l 0,-1.322 c 0,-0.33 0,-0.56 -0.01,-0.726 0.079,0 0.529,0.004 0.651,0.015 0.048,0.01 0.08,0.027 0.08,0.116 l 0,0.856 z m 0,1.125 c 0.041,0.01 0.126,0.015 0.2,0.015 0.223,0 0.366,-0.146 0.366,-0.371 0,-0.188 -0.1,-0.272 -0.174,-0.314 C 16.447,0.825 16.314,0.81 16.129,0.816 l 0,0.721 z m 4.396,0.198 c 0,0.194 -0.02,0.23 -0.095,0.23 -0.275,0 -0.561,-0.016 -0.651,-0.026 0.005,-0.094 0.011,-0.256 0.011,-0.528 l 0,-0.8 c 0,-0.852 0.429,-1.228 1.191,-1.228 0.588,0 1.254,0.156 1.254,1.327 l 0,0.518 c 0,0.334 0.006,0.575 0.017,0.737 -0.085,0 -0.419,0 -0.562,-0.016 -0.064,-0.005 -0.1,-0.02 -0.1,-0.109 l 0,-1.24 c 0,-0.554 -0.217,-0.752 -0.535,-0.752 -0.302,0 -0.53,0.23 -0.53,0.732 l 0,1.155 z m 6.128,0.084 C 26.499,1.406 26.245,0.736 26.149,0.475 L 25.684,1.84 c -0.032,0.089 -0.059,0.125 -0.164,0.125 -0.25,0 -0.54,-0.031 -0.709,-0.073 l 0.005,-0.11 c -0.128,-0.852 -0.292,-1.866 -0.366,-2.3 0.053,-0.037 0.472,-0.057 0.546,-0.057 0.048,0 0.068,0.015 0.079,0.078 0.053,0.575 0.17,1.301 0.186,1.783 0.12,-0.435 0.434,-1.443 0.539,-1.819 0.164,0 0.461,0.041 0.588,0.078 0.238,0.758 0.445,1.359 0.53,1.704 l 0.037,-0.612 c 0.037,-0.663 0.058,-0.883 0.074,-1.118 0.005,-0.058 0.021,-0.094 0.095,-0.094 0.116,0 0.598,0.036 0.65,0.057 -0.014,0.136 -0.073,0.481 -0.126,0.899 L 27.473,1.84 c -0.01,0.099 -0.053,0.125 -0.111,0.125 -0.148,0 -0.635,-0.036 -0.709,-0.073 l 0,-0.073 z"
             id="path5032"
             style="fill:#000000;fill-opacity:1;fill-rule:nonzero;stroke:none" />
        </g>
        <g
           transform="translate(646.1403,108.9598)"
           id="g5034">
          <path
             d="m 0,0 c 0,-0.063 0.027,-0.073 0.106,-0.073 0.111,0 0.588,0.01 0.641,0.031 C 0.741,0.036 0.731,0.173 0.731,0.445 l 0,0.689 C 0.847,0.92 1.197,0.408 1.387,0.131 c 0.122,-0.178 0.197,-0.215 0.286,-0.215 0.355,0 0.636,0.021 0.688,0.042 l 0,0.026 C 2.16,0.251 1.679,0.884 1.435,1.281 1.705,1.62 2.107,2.086 2.229,2.258 2.304,2.363 2.288,2.416 2.15,2.436 2.023,2.452 1.806,2.467 1.679,2.467 1.472,2.164 1.107,1.725 0.731,1.208 l 0,1.019 c 0,0.194 -0.011,0.24 -0.075,0.24 C 0.567,2.467 0.075,2.442 -0.016,2.425 -0.005,2.336 0,2.169 0,1.908 L 0,0 Z m 5.427,2.237 c 0,0.194 -0.021,0.23 -0.095,0.23 C 5.057,2.467 4.77,2.452 4.68,2.442 4.686,2.347 4.691,2.185 4.691,1.913 l 0,-0.799 c 0,-0.853 0.429,-1.229 1.191,-1.229 0.588,0 1.255,0.157 1.255,1.328 l 0,0.517 c 0,0.335 0.005,0.575 0.016,0.737 -0.085,0 -0.418,0 -0.561,-0.015 C 6.528,2.447 6.491,2.431 6.491,2.342 l 0,-1.24 C 6.491,0.549 6.274,0.351 5.956,0.351 5.655,0.351 5.427,0.58 5.427,1.083 l 0,1.154 z m 4.318,-2.19 0.069,-0.084 c 0.106,-0.015 0.365,-0.036 0.895,-0.036 0.386,0 0.466,0.005 0.534,0.036 0.059,0.042 0.212,0.199 0.26,0.44 l -0.01,0.01 C 11.349,0.397 11.185,0.392 10.915,0.392 c -0.259,0 -0.376,0.011 -0.439,0.026 l 0.005,1.825 c 0,0.188 -0.016,0.224 -0.095,0.224 -0.255,0 -0.562,-0.02 -0.651,-0.031 0.01,-0.089 0.01,-0.256 0.01,-0.497 l 0,-1.892 z m 4.464,-0.052 c 0,-0.063 0.026,-0.074 0.101,-0.074 0.291,0 0.492,0.011 0.651,0.032 -0.005,0.083 -0.016,0.214 -0.016,0.492 l 0,1.52 0.555,0 c 0.133,0.026 0.27,0.11 0.318,0.471 l -1.641,0 c -0.423,0 -0.55,0.006 -0.619,0.02 C 13.51,2.41 13.409,2.258 13.377,2.081 13.367,2.012 13.399,1.965 13.472,1.965 l 0.737,0 0,-1.97 z m 4.718,2.242 c 0,0.194 -0.022,0.23 -0.096,0.23 -0.275,0 -0.561,-0.015 -0.651,-0.025 0.005,-0.095 0.011,-0.257 0.011,-0.529 l 0,-0.799 c 0,-0.853 0.428,-1.229 1.191,-1.229 0.587,0 1.254,0.157 1.254,1.328 l 0,0.517 c 0,0.335 0.005,0.575 0.017,0.737 -0.085,0 -0.419,0 -0.562,-0.015 -0.063,-0.005 -0.1,-0.021 -0.1,-0.11 l 0,-1.24 c 0,-0.553 -0.218,-0.751 -0.535,-0.751 -0.302,0 -0.529,0.229 -0.529,0.732 l 0,1.154 z m 5.038,-1.322 c 0.137,0.011 0.254,-0.052 0.338,-0.22 0.111,-0.23 0.244,-0.491 0.302,-0.574 0.111,-0.163 0.228,-0.205 0.429,-0.205 0.201,0 0.366,0.016 0.482,0.047 l 0,0.021 c -0.09,0.105 -0.201,0.288 -0.318,0.508 -0.143,0.266 -0.28,0.507 -0.418,0.617 0.207,0.093 0.487,0.25 0.487,0.611 0,0.455 -0.291,0.747 -1.08,0.747 -0.45,0 -0.906,-0.083 -0.948,-0.099 0.006,-0.099 0.006,-0.199 0.006,-0.392 l 0,-1.323 c 0,-0.329 0,-0.559 -0.011,-0.726 0.079,0 0.53,0.005 0.651,0.015 0.047,0.011 0.08,0.026 0.08,0.116 l 0,0.857 z m 0,1.123 c 0.042,0.011 0.126,0.016 0.201,0.016 0.222,0 0.365,-0.146 0.365,-0.371 C 24.531,1.495 24.43,1.412 24.356,1.37 24.282,1.328 24.15,1.312 23.965,1.318 l 0,0.72 z m 4.43,-2.033 c 0,-0.068 0.032,-0.078 0.095,-0.078 0.36,0 0.487,0.01 0.656,0.031 -0.005,0.089 -0.015,0.22 -0.015,0.487 l 0,0.512 c 0,0.057 0.031,0.115 0.053,0.152 0.058,0.093 0.693,1.034 0.767,1.165 0.038,0.062 0.064,0.121 -0.021,0.147 -0.111,0.031 -0.254,0.046 -0.54,0.046 -0.079,-0.141 -0.328,-0.616 -0.53,-0.956 -0.153,0.288 -0.269,0.507 -0.412,0.747 -0.101,0.173 -0.138,0.209 -0.217,0.209 -0.153,0 -0.535,-0.036 -0.71,-0.072 l 0,-0.022 c 0.106,-0.141 0.366,-0.538 0.661,-0.977 0.106,-0.162 0.144,-0.24 0.176,-0.308 0.026,-0.048 0.037,-0.095 0.037,-0.173 l 0,-0.91 z"
             id="path5036"
             style="fill:#000000;fill-opacity:1;fill-rule:nonzero;stroke:none" />
        </g>
      </g>
    </g>
  </g>
</svg>
