<?xml version="1.0" encoding="UTF-8" standalone="no"?>
<!-- Created with Inkscape (http://www.inkscape.org/) -->

<svg
   xmlns:dc="http://purl.org/dc/elements/1.1/"
   xmlns:cc="http://creativecommons.org/ns#"
   xmlns:rdf="http://www.w3.org/1999/02/22-rdf-syntax-ns#"
   xmlns:svg="http://www.w3.org/2000/svg"
   xmlns="http://www.w3.org/2000/svg"
   xmlns:sodipodi="http://sodipodi.sourceforge.net/DTD/sodipodi-0.dtd"
   xmlns:inkscape="http://www.inkscape.org/namespaces/inkscape"
   width="180"
   height="80"
   id="svg7968"
   version="1.1"
   inkscape:version="0.48+devel r"
   viewBox="0 0 180 80.000001"
   sodipodi:docname="oz_logo.svg">
  <defs
     id="defs7970">
    <clipPath
       clipPathUnits="userSpaceOnUse"
       id="clipPath6316">
      <path
         d="m 0,0 1024,0 0,1600 L 0,1600 0,0 Z"
         id="path6318"
         inkscape:connector-curvature="0" />
    </clipPath>
    <clipPath
       clipPathUnits="userSpaceOnUse"
       id="clipPath6298">
      <path
         d="m 0,0 1024,0 0,1600 L 0,1600 0,0 Z"
         id="path6300"
         inkscape:connector-curvature="0" />
    </clipPath>
    <clipPath
       clipPathUnits="userSpaceOnUse"
       id="clipPath6280">
      <path
         d="m 0,0 1024,0 0,1600 L 0,1600 0,0 Z"
         id="path6282"
         inkscape:connector-curvature="0" />
    </clipPath>
    <clipPath
       clipPathUnits="userSpaceOnUse"
       id="clipPath6266">
      <path
         d="m 0,0 1024,0 0,1600 L 0,1600 0,0 Z"
         id="path6268"
         inkscape:connector-curvature="0" />
    </clipPath>
    <clipPath
       clipPathUnits="userSpaceOnUse"
       id="clipPath6252">
      <path
         d="m 0,0 1024,0 0,1600 L 0,1600 0,0 Z"
         id="path6254"
         inkscape:connector-curvature="0" />
    </clipPath>
    <clipPath
       clipPathUnits="userSpaceOnUse"
       id="clipPath6224">
      <path
         d="m 0,0 1024,0 0,1600 L 0,1600 0,0 Z"
         id="path6226"
         inkscape:connector-curvature="0" />
    </clipPath>
    <clipPath
       clipPathUnits="userSpaceOnUse"
       id="clipPath6196">
      <path
         d="m 0,0 1024,0 0,1600 L 0,1600 0,0 Z"
         id="path6198"
         inkscape:connector-curvature="0" />
    </clipPath>
    <clipPath
       clipPathUnits="userSpaceOnUse"
       id="clipPath6180">
      <path
         d="m 0,0 1024,0 0,1600 L 0,1600 0,0 Z"
         id="path6182"
         inkscape:connector-curvature="0" />
    </clipPath>
  </defs>
  <sodipodi:namedview
     id="base"
     pagecolor="#ffffff"
     bordercolor="#666666"
     borderopacity="1.0"
     inkscape:pageopacity="0.0"
     inkscape:pageshadow="2"
     inkscape:zoom="5.6"
     inkscape:cx="74.468074"
     inkscape:cy="44.18674"
     inkscape:document-units="px"
     inkscape:current-layer="layer1"
     showgrid="false"
     inkscape:window-width="1914"
     inkscape:window-height="864"
     inkscape:window-x="0"
     inkscape:window-y="0"
     inkscape:window-maximized="0"
     showguides="true"
     inkscape:guide-bbox="true">
    <sodipodi:guide
       orientation="1,0"
       position="0,51.25"
       id="guide8830" />
  </sodipodi:namedview>
  <metadata
     id="metadata7973">
    <rdf:RDF>
      <cc:Work
         rdf:about="">
        <dc:format>image/svg+xml</dc:format>
        <dc:type
           rdf:resource="http://purl.org/dc/dcmitype/StillImage" />
        <dc:title></dc:title>
      </cc:Work>
    </rdf:RDF>
  </metadata>
  <g
     inkscape:label="Layer 1"
     inkscape:groupmode="layer"
     id="layer1"
     transform="translate(0,-972.3622)">
    <path
       d="m 12.404473,1042.2498 5.6575,0 0,-5.6575 -5.6575,0 0,5.6575 z"
       style="fill:#f9a50d;fill-opacity:1;fill-rule:nonzero;stroke:none"
       id="path6068"
       inkscape:connector-curvature="0" />
    <path
       d="m 24.234473,1030.4198 -5.6575,0 0,5.6575 5.6575,0 0,-5.6575 z"
       style="fill:#df2624;fill-opacity:1;fill-rule:nonzero;stroke:none"
       id="path6070"
       inkscape:connector-curvature="0" />
    <path
       d="m 24.748223,1042.2498 5.6575,0 0,-5.6575 -5.6575,0 0,5.6575 z"
       style="fill:#36a496;fill-opacity:1;fill-rule:nonzero;stroke:none"
       id="path6072"
       inkscape:connector-curvature="0" />
    <path
       d="m 37.091973,1042.2498 5.6575,0 0,-5.6575 -5.6575,0 0,5.6575 z"
       style="fill:#f9a50d;fill-opacity:1;fill-rule:nonzero;stroke:none"
       id="path6074"
       inkscape:connector-curvature="0" />
    <g
       id="g6076"
       transform="matrix(1.25,0,0,-1.25,36.624223,1036.0304)">
      <path
         d="M 0,0 -0.075,4.525 -4.601,4.45 -4.525,-0.075 0,0 Z"
         style="fill:#df2624;fill-opacity:1;fill-rule:nonzero;stroke:none"
         id="path6078"
         inkscape:connector-curvature="0" />
    </g>
    <path
       d="m 24.748223,1029.9061 5.6575,0 0,-5.6575 -5.6575,0 0,5.6575 z"
       style="fill:#c20b8d;fill-opacity:1;fill-rule:nonzero;stroke:none"
       id="path6080"
       inkscape:connector-curvature="0" />
    <path
       d="m 37.091973,1029.9061 5.6575,0 0,-5.6575 -5.6575,0 0,5.6575 z"
       style="fill:#c20b8d;fill-opacity:1;fill-rule:nonzero;stroke:none"
       id="path6082"
       inkscape:connector-curvature="0" />
    <path
       d="m 37.091973,1017.5623 5.6575,0 0,-5.6575 -5.6575,0 0,5.6575 z"
       style="fill:#f9a50d;fill-opacity:1;fill-rule:nonzero;stroke:none"
       id="path6084"
       inkscape:connector-curvature="0" />
    <path
       d="m 36.576973,1018.0773 -5.6575,0 0,5.6575 5.6575,0 0,-5.6575 z"
       style="fill:#36a496;fill-opacity:1;fill-rule:nonzero;stroke:none"
       id="path6086"
       inkscape:connector-curvature="0" />
    <path
       d="m 12.404473,999.04727 5.6575,0 0,-5.65749 -5.6575,0 0,5.65749 z"
       style="fill:#656263;fill-opacity:1;fill-rule:nonzero;stroke:none"
       id="path6088"
       inkscape:connector-curvature="0" />
    <path
       d="m 12.404473,1017.5623 5.6575,0 0,-5.6575 -5.6575,0 0,5.6575 z"
       style="fill:#656263;fill-opacity:1;fill-rule:nonzero;stroke:none"
       id="path6090"
       inkscape:connector-curvature="0" />
    <path
       d="m 18.061973,981.04603 -5.6575,0 0,5.6575 5.6575,0 0,-5.6575 z"
       style="fill:#656263;fill-opacity:1;fill-rule:nonzero;stroke:none"
       id="path6092"
       inkscape:connector-curvature="0" />
    <path
       d="m 12.404473,1005.2186 5.6575,0 0,-5.65753 -5.6575,0 0,5.65753 z"
       style="fill:#656263;fill-opacity:1;fill-rule:nonzero;stroke:none"
       id="path6094"
       inkscape:connector-curvature="0" />
    <path
       d="m 12.404473,1011.3911 5.6575,0 0,-5.6575 -5.6575,0 0,5.6575 z"
       style="fill:#656263;fill-opacity:1;fill-rule:nonzero;stroke:none"
       id="path6096"
       inkscape:connector-curvature="0" />
    <path
       d="m 24.748223,992.87478 5.6575,0 0,-5.6575 -5.6575,0 0,5.6575 z"
       style="fill:#656263;fill-opacity:1;fill-rule:nonzero;stroke:none"
       id="path6098"
       inkscape:connector-curvature="0" />
    <path
       d="m 24.234473,987.21728 -5.6575,0 0,5.6575 5.6575,0 0,-5.6575 z"
       style="fill:#656263;fill-opacity:1;fill-rule:nonzero;stroke:none"
       id="path6100"
       inkscape:connector-curvature="0" />
    <path
       d="m 12.404473,1023.7348 5.6575,0 0,-5.6575 -5.6575,0 0,5.6575 z"
       style="fill:#656263;fill-opacity:1;fill-rule:nonzero;stroke:none"
       id="path6102"
       inkscape:connector-curvature="0" />
    <path
       d="m 18.576973,999.04727 5.6575,0 0,-5.65749 -5.6575,0 0,5.65749 z"
       style="fill:#656263;fill-opacity:1;fill-rule:nonzero;stroke:none"
       id="path6104"
       inkscape:connector-curvature="0" />
    <path
       d="m 12.404473,1029.9061 5.6575,0 0,-5.6575 -5.6575,0 0,5.6575 z"
       style="fill:#656263;fill-opacity:1;fill-rule:nonzero;stroke:none"
       id="path6106"
       inkscape:connector-curvature="0" />
    <path
       d="m 30.405723,981.04603 -5.6575,0 0,5.6575 5.6575,0 0,-5.6575 z"
       style="fill:#656263;fill-opacity:1;fill-rule:nonzero;stroke:none"
       id="path6108"
       inkscape:connector-curvature="0" />
    <path
       d="m 36.576973,999.56107 -5.6575,0 0,5.65753 5.6575,0 0,-5.65753 z"
       style="fill:#656263;fill-opacity:1;fill-rule:nonzero;stroke:none"
       id="path6110"
       inkscape:connector-curvature="0" />
    <path
       d="m 37.091973,1005.2186 5.6575,0 0,-5.65753 -5.6575,0 0,5.65753 z"
       style="fill:#656263;fill-opacity:1;fill-rule:nonzero;stroke:none"
       id="path6112"
       inkscape:connector-curvature="0" />
    <path
       d="m 37.091973,999.04727 5.6575,0 0,-5.65749 -5.6575,0 0,5.65749 z"
       style="fill:#656263;fill-opacity:1;fill-rule:nonzero;stroke:none"
       id="path6114"
       inkscape:connector-curvature="0" />
    <path
       d="m 42.749473,981.04603 -5.6575,0 0,5.6575 5.6575,0 0,-5.6575 z"
       style="fill:#656263;fill-opacity:1;fill-rule:nonzero;stroke:none"
       id="path6116"
       inkscape:connector-curvature="0" />
    <path
       d="m 37.091973,992.87478 5.6575,0 0,-5.6575 -5.6575,0 0,5.6575 z"
       style="fill:#656263;fill-opacity:1;fill-rule:nonzero;stroke:none"
       id="path6118"
       inkscape:connector-curvature="0" />
    <path
       d="m 12.404473,992.87478 5.6575,0 0,-5.6575 -5.6575,0 0,5.6575 z"
       style="fill:#656263;fill-opacity:1;fill-rule:nonzero;stroke:none"
       id="path6120"
       inkscape:connector-curvature="0" />
    <path
       d="m 24.234473,1011.9048 -5.6575,0 0,5.6575 5.6575,0 0,-5.6575 z"
       style="fill:#656263;fill-opacity:1;fill-rule:nonzero;stroke:none"
       id="path6122"
       inkscape:connector-curvature="0" />
    <path
       d="m 30.919473,1011.3911 5.6575,0 0,-5.6575 -5.6575,0 0,5.6575 z"
       style="fill:#656263;fill-opacity:1;fill-rule:nonzero;stroke:none"
       id="path6124"
       inkscape:connector-curvature="0" />
    <path
       d="m 18.576973,1023.7348 5.6575,0 0,-5.6575 -5.6575,0 0,5.6575 z"
       style="fill:#656263;fill-opacity:1;fill-rule:nonzero;stroke:none"
       id="path6126"
       inkscape:connector-curvature="0" />
    <path
       d="m 36.576973,993.38978 -5.6575,0 0,5.65749 5.6575,0 0,-5.65749 z"
       style="fill:#656263;fill-opacity:1;fill-rule:nonzero;stroke:none"
       id="path6128"
       inkscape:connector-curvature="0" />
    <path
       d="m 36.576973,987.21728 -5.6575,0 0,5.6575 5.6575,0 0,-5.6575 z"
       style="fill:#656263;fill-opacity:1;fill-rule:nonzero;stroke:none"
       id="path6130"
       inkscape:connector-curvature="0" />
    <path
       d="m 11.890723,1011.9048 -5.6575007,0 0,5.6575 5.6575007,0 0,-5.6575 z"
       style="fill:#656263;fill-opacity:1;fill-rule:nonzero;stroke:none"
       id="path6132"
       inkscape:connector-curvature="0" />
    <path
       d="m 0.06072336,1005.2186 5.65749894,0 0,-5.65753 -5.65749894,0 0,5.65753 z"
       style="fill:#656263;fill-opacity:1;fill-rule:nonzero;stroke:none"
       id="path6134"
       inkscape:connector-curvature="0" />
    <path
       d="m 0.06072336,1011.3911 5.65749894,0 0,-5.6575 -5.65749894,0 0,5.6575 z"
       style="fill:#656263;fill-opacity:1;fill-rule:nonzero;stroke:none"
       id="path6136"
       inkscape:connector-curvature="0" />
    <path
       d="m 0.06072336,999.04727 5.65749894,0 0,-5.65749 -5.65749894,0 0,5.65749 z"
       style="fill:#656263;fill-opacity:1;fill-rule:nonzero;stroke:none"
       id="path6138"
       inkscape:connector-curvature="0" />
    <path
       d="m 5.7182223,981.04603 -5.65749893,0 0,5.6575 5.65749893,0 0,-5.6575 z"
       style="fill:#656263;fill-opacity:1;fill-rule:nonzero;stroke:none"
       id="path6140"
       inkscape:connector-curvature="0" />
    <path
       d="m 0.06072336,1017.5623 5.65749894,0 0,-5.6575 -5.65749894,0 0,5.6575 z"
       style="fill:#656263;fill-opacity:1;fill-rule:nonzero;stroke:none"
       id="path6142"
       inkscape:connector-curvature="0" />
    <path
       d="m 24.748223,999.04727 5.6575,0 0,-5.65749 -5.6575,0 0,5.65749 z"
       style="fill:#656263;fill-opacity:1;fill-rule:nonzero;stroke:none"
       id="path6144"
       inkscape:connector-curvature="0" />
    <path
       d="m 0.06072336,992.87478 5.65749894,0 0,-5.6575 -5.65749894,0 0,5.6575 z"
       style="fill:#656263;fill-opacity:1;fill-rule:nonzero;stroke:none"
       id="path6146"
       inkscape:connector-curvature="0" />
    <path
       d="m 0.06072336,1042.2498 5.65749894,0 0,-5.6575 -5.65749894,0 0,5.6575 z"
       style="fill:#656263;fill-opacity:1;fill-rule:nonzero;stroke:none"
       id="path6148"
       inkscape:connector-curvature="0" />
    <path
       d="m 0.06072336,1023.7348 5.65749894,0 0,-5.6575 -5.65749894,0 0,5.6575 z"
       style="fill:#656263;fill-opacity:1;fill-rule:nonzero;stroke:none"
       id="path6150"
       inkscape:connector-curvature="0" />
    <path
       d="m 0.06072336,1029.9061 5.65749894,0 0,-5.6575 -5.65749894,0 0,5.6575 z"
       style="fill:#656263;fill-opacity:1;fill-rule:nonzero;stroke:none"
       id="path6152"
       inkscape:connector-curvature="0" />
    <path
       d="m 0.06072336,1036.0773 5.65749894,0 0,-5.6575 -5.65749894,0 0,5.6575 z"
       style="fill:#656263;fill-opacity:1;fill-rule:nonzero;stroke:none"
       id="path6154"
       inkscape:connector-curvature="0" />
    <path
       d="m 11.890723,987.21728 -5.6575007,0 0,5.6575 5.6575007,0 0,-5.6575 z"
       style="fill:#656263;fill-opacity:1;fill-rule:nonzero;stroke:none"
       id="path6156"
       inkscape:connector-curvature="0" />
    <path
       d="m 11.890723,1024.2486 -5.6575007,0 0,5.6575 5.6575007,0 0,-5.6575 z"
       style="fill:#656263;fill-opacity:1;fill-rule:nonzero;stroke:none"
       id="path6158"
       inkscape:connector-curvature="0" />
    <path
       d="m 24.748223,1017.5623 5.6575,0 0,-5.6575 -5.6575,0 0,5.6575 z"
       style="fill:#656263;fill-opacity:1;fill-rule:nonzero;stroke:none"
       id="path6160"
       inkscape:connector-curvature="0" />
    <path
       d="m 24.748223,1011.3911 5.6575,0 0,-5.6575 -5.6575,0 0,5.6575 z"
       style="fill:#656263;fill-opacity:1;fill-rule:nonzero;stroke:none"
       id="path6162"
       inkscape:connector-curvature="0" />
    <path
       d="m 24.748223,1005.2186 5.6575,0 0,-5.65753 -5.6575,0 0,5.65753 z"
       style="fill:#656263;fill-opacity:1;fill-rule:nonzero;stroke:none"
       id="path6164"
       inkscape:connector-curvature="0" />
    <path
       d="m 6.2332223,1036.0773 5.6575007,0 0,-5.6575 -5.6575007,0 0,5.6575 z"
       style="fill:#656263;fill-opacity:1;fill-rule:nonzero;stroke:none"
       id="path6166"
       inkscape:connector-curvature="0" />
    <path
       d="m 11.890723,999.56107 -5.6575007,0 0,5.65753 5.6575007,0 0,-5.65753 z"
       style="fill:#656263;fill-opacity:1;fill-rule:nonzero;stroke:none"
       id="path6168"
       inkscape:connector-curvature="0" />
    <path
       d="m 11.890723,993.38978 -5.6575007,0 0,5.65749 5.6575007,0 0,-5.65749 z"
       style="fill:#656263;fill-opacity:1;fill-rule:nonzero;stroke:none"
       id="path6170"
       inkscape:connector-curvature="0" />
    <path
       d="m 11.890723,1005.7336 -5.6575007,0 0,5.6575 5.6575007,0 0,-5.6575 z"
       style="fill:#656263;fill-opacity:1;fill-rule:nonzero;stroke:none"
       id="path6172"
       inkscape:connector-curvature="0" />
    <path
       d="m 11.890723,1018.0773 -5.6575007,0 0,5.6575 5.6575007,0 0,-5.6575 z"
       style="fill:#656263;fill-opacity:1;fill-rule:nonzero;stroke:none"
       id="path6174"
       inkscape:connector-curvature="0" />
    <g
       transform="matrix(1.25,0,0,-1.25,-92.260533,2945.9999)"
       id="g6176">
      <g
         id="g6178"
         clip-path="url(#clipPath6180)">
        <g
           id="g6184"
           transform="translate(118.9845,1566.923)">
          <path
             d="m 0,0 c 3.23,0 5.85,-2.459 5.85,-5.85 0,-3.39 -2.62,-5.849 -5.85,-5.849 -3.23,0 -5.833,2.459 -5.833,5.849 C -5.833,-2.459 -3.23,0 0,0 m 0,-10.413 c 2.539,0 4.484,1.863 4.484,4.563 0,2.733 -1.945,4.564 -4.484,4.564 -2.555,0 -4.484,-1.831 -4.484,-4.564 0,-2.7 1.929,-4.563 4.484,-4.563"
             style="fill:#656263;fill-opacity:1;fill-rule:nonzero;stroke:none"
             id="path6186"
             inkscape:connector-curvature="0" />
        </g>
      </g>
    </g>
    <g
       id="g6188"
       transform="matrix(1.25,0,0,-1.25,78.081853,987.62741)">
      <path
         d="m 0,0 0,-1.238 -3.776,0 0,-10.011 -1.302,0 0,10.011 -3.76,0 0,1.238 L 0,0 Z"
         style="fill:#656263;fill-opacity:1;fill-rule:nonzero;stroke:none"
         id="path6190"
         inkscape:connector-curvature="0" />
    </g>
    <g
       transform="matrix(1.25,0,0,-1.25,-92.260533,2945.9999)"
       id="g6192">
      <g
         id="g6194"
         clip-path="url(#clipPath6196)">
        <g
           id="g6200"
           transform="translate(154.3991,1566.6979)">
          <path
             d="m 0,0 -3.809,-11.249 -1.157,0 -1.864,5.914 c -0.498,1.591 -0.611,2.201 -0.626,2.201 l -0.017,0 c -0.016,0 -0.112,-0.627 -0.611,-2.201 l -1.863,-5.914 -1.158,0 -3.808,11.249 1.366,0 2.539,-7.601 c 0.305,-0.964 0.466,-1.639 0.482,-1.639 l 0.016,0 c 0.016,0 0.145,0.675 0.482,1.639 l 1.993,6.091 1.157,0 1.992,-6.091 c 0.338,-0.964 0.467,-1.639 0.483,-1.639 l 0.016,0 c 0.016,0 0.177,0.675 0.482,1.639 L -1.366,0 0,0 Z"
             style="fill:#656263;fill-opacity:1;fill-rule:nonzero;stroke:none"
             id="path6202"
             inkscape:connector-curvature="0" />
        </g>
        <g
           id="g6204"
           transform="translate(163.7177,1558.3899)">
          <path
             d="m 0,0 -5.641,0 -1.253,-2.941 -1.414,0 4.885,11.249 1.205,0 4.885,-11.249 -1.414,0 L 0,0 Z m -0.498,1.173 -1.784,4.178 c -0.241,0.579 -0.514,1.366 -0.53,1.366 l -0.016,0 c -0.017,0 -0.29,-0.787 -0.531,-1.366 l -1.783,-4.178 4.644,0 z"
             style="fill:#656263;fill-opacity:1;fill-rule:nonzero;stroke:none"
             id="path6206"
             inkscape:connector-curvature="0" />
        </g>
        <g
           id="g6208"
           transform="translate(176.5399,1555.4486)">
          <path
             d="M 0,0 -2.539,4.21 C -2.716,4.195 -2.924,4.195 -3.118,4.195 l -2.105,0 0,-4.195 -1.318,0 0,11.249 3.423,0 c 2.636,0 4.211,-1.382 4.211,-3.551 0,-1.607 -0.851,-2.749 -2.346,-3.23 L 1.479,0 0,0 Z m -2.989,5.368 c 1.8,0 2.732,0.98 2.732,2.33 0,1.43 -1.012,2.313 -2.732,2.313 l -2.234,0 0,-4.643 2.234,0 z"
             style="fill:#656263;fill-opacity:1;fill-rule:nonzero;stroke:none"
             id="path6210"
             inkscape:connector-curvature="0" />
        </g>
      </g>
    </g>
    <g
       id="g6212"
       transform="matrix(1.25,0,0,-1.25,144.90374,987.62741)">
      <path
         d="m 0,0 0,-1.238 -3.777,0 0,-10.011 -1.301,0 0,10.011 -3.76,0 0,1.238 L 0,0 Z"
         style="fill:#656263;fill-opacity:1;fill-rule:nonzero;stroke:none"
         id="path6214"
         inkscape:connector-curvature="0" />
    </g>
    <g
       id="g6216"
       transform="matrix(1.25,0,0,-1.25,159.22499,1000.1413)">
      <path
         d="m 0,0 0,-1.238 -7.602,0 0,11.249 7.506,0 0,-1.238 -6.187,0 0,-3.47 4.965,0 0,-1.173 -4.965,0 0,-4.13 L 0,0 Z"
         style="fill:#656263;fill-opacity:1;fill-rule:nonzero;stroke:none"
         id="path6218"
         inkscape:connector-curvature="0" />
    </g>
    <g
       transform="matrix(1.25,0,0,-1.25,-92.260533,2945.9999)"
       id="g6220">
      <g
         id="g6222"
         clip-path="url(#clipPath6224)">
        <g
           id="g6228"
           transform="translate(123.2391,1550.4484)">
          <path
             d="M 0,0 -7.026,-8.414 C -7.522,-8.996 -7.917,-9.39 -7.917,-9.407 l 0.018,-0.017 c 0.017,0 0.668,0.051 1.542,0.051 l 6.357,0 0,-1.319 -9.767,0 0,1.302 7.128,8.464 C -2.296,-0.514 -1.73,-0.017 -1.73,0 l -0.018,0.017 c -0.017,0 -0.668,-0.034 -1.559,-0.034 l -6.289,0 0,1.319 L 0,1.302 0,0 Z"
             style="fill:#656263;fill-opacity:1;fill-rule:nonzero;stroke:none"
             id="path6230"
             inkscape:connector-curvature="0" />
        </g>
        <g
           id="g6232"
           transform="translate(136.2119,1542.8918)">
          <path
             d="m 0,0 -6.014,0 -1.336,-3.136 -1.509,0 5.209,11.995 1.286,0 5.209,-11.995 -1.508,0 L 0,0 Z M -0.531,1.251 -2.433,5.706 C -2.69,6.323 -2.982,7.162 -2.998,7.162 l -0.018,0 c -0.017,0 -0.308,-0.839 -0.565,-1.456 l -1.902,-4.455 4.952,0 z"
             style="fill:#656263;fill-opacity:1;fill-rule:nonzero;stroke:none"
             id="path6234"
             inkscape:connector-curvature="0" />
        </g>
        <g
           id="g6236"
           transform="translate(148.2256,1551.7506)">
          <path
             d="m 0,0 c 2.056,0 3.462,-1.217 3.462,-2.947 0,-1.217 -1.028,-2.262 -1.988,-2.45 l 0,-0.018 c 1.165,-0.154 2.759,-1.336 2.759,-3.05 0,-2.073 -1.439,-3.53 -3.959,-3.53 l -4.78,0 L -4.506,0 0,0 Z m -0.274,-4.986 c 1.389,0 2.33,0.874 2.33,1.902 0,1.13 -0.941,1.867 -2.33,1.867 l -2.827,0 0,-3.769 2.827,0 z m 0.463,-5.792 c 1.474,0 2.588,0.891 2.588,2.33 0,1.371 -1.217,2.348 -2.673,2.348 l -3.205,0 0,-4.678 3.29,0 z"
             style="fill:#656263;fill-opacity:1;fill-rule:nonzero;stroke:none"
             id="path6238"
             inkscape:connector-curvature="0" />
        </g>
        <g
           id="g6240"
           transform="translate(166.203,1551.7506)">
          <path
             d="m 0,0 -4.661,-6.1 0,-5.895 -1.388,0 0,5.895 -4.644,6.1 1.594,0 3.016,-3.924 c 0.308,-0.394 0.719,-0.943 0.737,-0.943 l 0.017,0 c 0.017,0 0.428,0.549 0.719,0.943 L -1.611,0 0,0 Z"
             style="fill:#656263;fill-opacity:1;fill-rule:nonzero;stroke:none"
             id="path6242"
             inkscape:connector-curvature="0" />
        </g>
      </g>
    </g>
    <g
       id="g6244"
       transform="matrix(1.25,0,0,-1.25,132.3521,1006.3116)">
      <path
         d="m 0,0 0,-1.319 -4.027,0 0,-10.676 -1.388,0 0,10.676 -4.009,0 0,1.319 L 0,0 Z"
         style="fill:#656263;fill-opacity:1;fill-rule:nonzero;stroke:none"
         id="path6246"
         inkscape:connector-curvature="0" />
    </g>
    <g
       transform="matrix(1.25,0,0,-1.25,-92.260533,2945.9999)"
       id="g6248">
      <g
         id="g6250"
         clip-path="url(#clipPath6252)">
        <g
           id="g6256"
           transform="translate(192.5088,1539.756)">
          <path
             d="M 0,0 -4.541,6.151 -6.494,4.198 -6.494,0 -7.9,0 l 0,11.995 1.406,0 0,-3.205 c 0,-1.918 -0.034,-2.895 -0.017,-2.895 l 0.017,0 c 0.017,0 1.079,1.114 2.004,2.039 l 4.062,4.061 1.73,0 -4.9,-4.901 L 1.662,0 0,0 Z"
             style="fill:#656263;fill-opacity:1;fill-rule:nonzero;stroke:none"
             id="path6258"
             inkscape:connector-curvature="0" />
        </g>
      </g>
    </g>
    <path
       d="m 156.94449,1006.3111 1.7575,0 0,14.9937 -1.7575,0 0,-14.9937 z"
       style="fill:#656263;fill-opacity:1;fill-rule:nonzero;stroke:none"
       id="path6260"
       inkscape:connector-curvature="0" />
    <g
       transform="matrix(1.25,0,0,-1.25,-92.260533,2945.9999)"
       id="g6262">
      <g
         id="g6264"
         clip-path="url(#clipPath6266)">
        <g
           id="g6270"
           transform="translate(119.995,1531.8492)">
          <path
             d="m 0,0 c 0,-0.591 -0.094,-1.13 -0.281,-1.614 -0.187,-0.486 -0.452,-0.9 -0.795,-1.247 -0.34,-0.345 -0.749,-0.612 -1.227,-0.801 -0.478,-0.19 -1.007,-0.284 -1.588,-0.284 l -2.953,0 0,7.898 2.953,0 c 0.581,0 1.11,-0.096 1.588,-0.284 0.478,-0.19 0.887,-0.457 1.227,-0.805 C -0.733,2.516 -0.468,2.099 -0.281,1.614 -0.094,1.129 0,0.591 0,0 m -1.096,0 c 0,0.485 -0.066,0.918 -0.199,1.3 C -1.428,1.682 -1.614,2.006 -1.857,2.271 -2.1,2.535 -2.394,2.737 -2.74,2.877 -3.084,3.016 -3.469,3.085 -3.891,3.085 l -1.88,0 0,-6.166 1.88,0 c 0.422,0 0.807,0.071 1.151,0.21 0.346,0.139 0.64,0.34 0.883,0.603 0.243,0.262 0.429,0.585 0.562,0.967 0.133,0.382 0.199,0.815 0.199,1.301"
             style="fill:#656263;fill-opacity:1;fill-rule:nonzero;stroke:none"
             id="path6272"
             inkscape:connector-curvature="0" />
        </g>
      </g>
    </g>
    <path
       d="m 62.109483,1036.1198 -1.3375,0 0,-9.8712 1.3375,0 0,9.8712 z"
       style="fill:#656263;fill-opacity:1;fill-rule:nonzero;stroke:none"
       id="path6274"
       inkscape:connector-curvature="0" />
    <g
       transform="matrix(1.25,0,0,-1.25,-92.260533,2945.9999)"
       id="g6276">
      <g
         id="g6278"
         clip-path="url(#clipPath6280)">
        <g
           id="g6284"
           transform="translate(129.9124,1528.6812)">
          <path
             d="m 0,0 c 0.212,0 0.409,0.009 0.586,0.03 0.18,0.019 0.348,0.051 0.505,0.091 0.157,0.04 0.307,0.089 0.446,0.145 0.14,0.057 0.28,0.123 0.419,0.197 l 0,1.741 -1.223,0 c -0.07,0 -0.127,0.02 -0.168,0.061 C 0.522,2.304 0.501,2.354 0.501,2.414 l 0,0.605 2.425,0 0,-3.031 C 2.728,-0.155 2.521,-0.28 2.306,-0.386 2.09,-0.493 1.862,-0.583 1.617,-0.654 1.373,-0.725 1.111,-0.779 0.833,-0.814 0.552,-0.849 0.25,-0.867 -0.077,-0.867 c -0.573,0 -1.099,0.099 -1.576,0.297 -0.479,0.196 -0.89,0.47 -1.234,0.825 -0.346,0.354 -0.615,0.781 -0.808,1.276 -0.194,0.497 -0.289,1.041 -0.289,1.637 0,0.603 0.094,1.152 0.283,1.647 0.189,0.497 0.459,0.922 0.811,1.277 0.349,0.353 0.775,0.628 1.273,0.823 0.497,0.195 1.055,0.293 1.672,0.293 0.313,0 0.602,-0.024 0.871,-0.07 C 1.193,7.093 1.442,7.027 1.672,6.94 1.902,6.853 2.115,6.748 2.308,6.627 2.504,6.502 2.685,6.363 2.855,6.21 L 2.551,5.725 C 2.489,5.627 2.408,5.577 2.308,5.577 2.25,5.577 2.186,5.597 2.116,5.637 2.025,5.688 1.921,5.751 1.808,5.824 1.694,5.898 1.555,5.968 1.391,6.037 1.228,6.104 1.035,6.163 0.812,6.21 0.59,6.257 0.327,6.281 0.021,6.281 -0.423,6.281 -0.825,6.209 -1.186,6.064 -1.545,5.918 -1.851,5.712 -2.106,5.441 -2.359,5.172 -2.554,4.845 -2.69,4.46 -2.826,4.076 -2.892,3.645 -2.892,3.168 c 0,-0.5 0.069,-0.946 0.211,-1.337 0.14,-0.39 0.341,-0.723 0.598,-0.994 C -1.826,0.565 -1.521,0.358 -1.168,0.214 -0.815,0.071 -0.427,0 0,0"
             style="fill:#656263;fill-opacity:1;fill-rule:nonzero;stroke:none"
             id="path6286"
             inkscape:connector-curvature="0" />
        </g>
      </g>
    </g>
    <path
       d="m 78.451983,1036.1198 -1.3375,0 0,-9.8712 1.3375,0 0,9.8712 z"
       style="fill:#656263;fill-opacity:1;fill-rule:nonzero;stroke:none"
       id="path6288"
       inkscape:connector-curvature="0" />
    <g
       id="g6290"
       transform="matrix(1.25,0,0,-1.25,88.728103,1026.2484)">
      <path
         d="m 0,0 0,-0.899 -2.55,0 0,-6.998 -1.071,0 0,6.998 -2.561,0 0,0.899 L 0,0 Z"
         style="fill:#656263;fill-opacity:1;fill-rule:nonzero;stroke:none"
         id="path6292"
         inkscape:connector-curvature="0" />
    </g>
    <g
       transform="matrix(1.25,0,0,-1.25,-92.260533,2945.9999)"
       id="g6294">
      <g
         id="g6296"
         clip-path="url(#clipPath6298)">
        <g
           id="g6302"
           transform="translate(152.4612,1527.9037)">
          <path
             d="M 0,0 -0.828,0 C -0.923,0 -1,0.024 -1.058,0.071 -1.116,0.119 -1.16,0.18 -1.191,0.252 l -0.738,1.909 -3.543,0 L -6.21,0.252 C -6.235,0.187 -6.28,0.129 -6.343,0.076 -6.405,0.025 -6.482,0 -6.576,0 l -0.825,0 3.157,7.897 1.086,0 L 0,0 Z m -5.174,2.932 2.947,0 -1.239,3.212 C -3.547,6.342 -3.626,6.591 -3.703,6.889 -3.744,6.737 -3.783,6.599 -3.822,6.473 -3.859,6.346 -3.897,6.234 -3.936,6.139 L -5.174,2.932 Z"
             style="fill:#656263;fill-opacity:1;fill-rule:nonzero;stroke:none"
             id="path6304"
             inkscape:connector-curvature="0" />
        </g>
      </g>
    </g>
    <g
       id="g6306"
       transform="matrix(1.25,0,0,-1.25,101.9921,1034.9976)">
      <path
         d="m 0,0 3.418,0 0,-0.898 -4.486,0 0,7.897 L 0,6.999 0,0 Z"
         style="fill:#656263;fill-opacity:1;fill-rule:nonzero;stroke:none"
         id="path6308"
         inkscape:connector-curvature="0" />
    </g>
    <path
       d="m 110.20073,1036.1198 -1.3375,0 0,-9.8712 1.3375,0 0,9.8712 z"
       style="fill:#656263;fill-opacity:1;fill-rule:nonzero;stroke:none"
       id="path6310"
       inkscape:connector-curvature="0" />
    <g
       transform="matrix(1.25,0,0,-1.25,-92.260533,2945.9999)"
       id="g6312">
      <g
         id="g6314"
         clip-path="url(#clipPath6316)">
        <g
           id="g6320"
           transform="translate(170.1643,1535.8011)">
          <path
             d="M 0,0 0,-0.397 C 0,-0.523 -0.039,-0.64 -0.117,-0.749 l -4.468,-6.278 4.507,0 0,-0.87 -5.908,0 0,0.418 c 0,0.11 0.035,0.215 0.105,0.315 l 4.475,6.292 -4.37,0 0,0.872 L 0,0 Z"
             style="fill:#656263;fill-opacity:1;fill-rule:nonzero;stroke:none"
             id="path6322"
             inkscape:connector-curvature="0" />
        </g>
        <g
           id="g6324"
           transform="translate(179.1245,1527.9037)">
          <path
             d="M 0,0 -0.828,0 C -0.923,0 -1,0.024 -1.058,0.071 -1.116,0.119 -1.161,0.18 -1.191,0.252 l -0.738,1.909 -3.542,0 -0.74,-1.909 C -6.235,0.187 -6.28,0.129 -6.343,0.076 -6.405,0.025 -6.482,0 -6.575,0 l -0.826,0 3.157,7.897 1.086,0 L 0,0 Z m -5.174,2.932 2.947,0 -1.238,3.212 C -3.547,6.342 -3.626,6.591 -3.704,6.889 -3.744,6.737 -3.783,6.599 -3.822,6.473 -3.859,6.346 -3.897,6.234 -3.935,6.139 L -5.174,2.932 Z"
             style="fill:#656263;fill-opacity:1;fill-rule:nonzero;stroke:none"
             id="path6326"
             inkscape:connector-curvature="0" />
        </g>
        <g
           id="g6328"
           transform="translate(186.2759,1529.5338)">
          <path
             d="m 0,0 c 0.058,0 0.111,-0.022 0.159,-0.071 l 0.42,-0.458 c -0.325,-0.373 -0.716,-0.666 -1.178,-0.876 -0.46,-0.209 -1.016,-0.314 -1.667,-0.314 -0.568,0 -1.086,0.098 -1.548,0.296 -0.463,0.196 -0.858,0.471 -1.184,0.826 -0.328,0.354 -0.581,0.78 -0.762,1.276 -0.178,0.496 -0.269,1.041 -0.269,1.636 0,0.595 0.095,1.141 0.289,1.637 0.192,0.496 0.463,0.923 0.813,1.278 0.348,0.356 0.767,0.634 1.254,0.831 0.485,0.195 1.023,0.294 1.612,0.294 0.58,0 1.08,-0.091 1.501,-0.271 C -0.138,5.906 0.234,5.661 0.56,5.352 L 0.214,4.861 C 0.189,4.825 0.159,4.794 0.127,4.771 0.092,4.747 0.045,4.734 -0.018,4.734 c -0.047,0 -0.098,0.018 -0.151,0.053 -0.054,0.035 -0.116,0.078 -0.19,0.129 -0.073,0.051 -0.159,0.106 -0.259,0.166 -0.1,0.059 -0.217,0.114 -0.352,0.165 -0.136,0.051 -0.295,0.094 -0.474,0.13 -0.18,0.035 -0.389,0.052 -0.623,0.052 -0.422,0 -0.809,-0.073 -1.161,-0.218 C -3.578,5.066 -3.88,4.86 -4.132,4.591 -4.387,4.323 -4.585,3.996 -4.727,3.61 -4.868,3.225 -4.938,2.793 -4.938,2.315 c 0,-0.492 0.07,-0.93 0.211,-1.316 0.142,-0.387 0.336,-0.712 0.578,-0.979 0.245,-0.266 0.535,-0.469 0.87,-0.609 0.334,-0.14 0.694,-0.21 1.079,-0.21 0.236,0 0.447,0.015 0.634,0.042 0.188,0.028 0.362,0.071 0.52,0.129 0.16,0.059 0.31,0.133 0.447,0.223 0.139,0.09 0.277,0.197 0.416,0.323 C -0.12,-0.027 -0.06,0 0,0"
             style="fill:#656263;fill-opacity:1;fill-rule:nonzero;stroke:none"
             id="path6330"
             inkscape:connector-curvature="0" />
        </g>
        <g
           id="g6332"
           transform="translate(192.1254,1530.632)">
          <path
             d="m 0,0 c 0,-0.441 -0.054,-0.837 -0.162,-1.186 -0.109,-0.349 -0.269,-0.644 -0.48,-0.885 -0.211,-0.239 -0.471,-0.425 -0.778,-0.552 -0.31,-0.13 -0.664,-0.194 -1.065,-0.194 -0.357,0 -0.728,0.052 -1.112,0.154 0.006,0.107 0.015,0.212 0.026,0.318 0.012,0.103 0.024,0.208 0.034,0.311 0.006,0.062 0.03,0.113 0.069,0.152 0.038,0.038 0.096,0.057 0.174,0.057 0.065,0 0.154,-0.017 0.265,-0.049 0.11,-0.034 0.256,-0.05 0.439,-0.05 0.244,0 0.458,0.037 0.649,0.11 0.188,0.075 0.348,0.187 0.479,0.342 0.13,0.154 0.231,0.351 0.297,0.592 0.069,0.241 0.102,0.526 0.102,0.857 l 0,5.192 L 0,5.169 0,0 Z"
             style="fill:#656263;fill-opacity:1;fill-rule:nonzero;stroke:none"
             id="path6334"
             inkscape:connector-curvature="0" />
        </g>
        <g
           id="g6336"
           transform="translate(201.1116,1527.9037)">
          <path
             d="M 0,0 -0.827,0 C -0.924,0 -0.999,0.024 -1.059,0.071 -1.117,0.119 -1.16,0.18 -1.191,0.252 l -0.738,1.909 -3.543,0 L -6.21,0.252 C -6.236,0.187 -6.28,0.129 -6.343,0.076 -6.406,0.025 -6.482,0 -6.575,0 l -0.826,0 3.158,7.897 1.085,0 L 0,0 Z m -5.174,2.932 2.947,0 -1.239,3.212 C -3.548,6.342 -3.626,6.591 -3.704,6.889 -3.744,6.737 -3.783,6.599 -3.822,6.473 -3.86,6.346 -3.898,6.234 -3.935,6.139 L -5.174,2.932 Z"
             style="fill:#656263;fill-opacity:1;fill-rule:nonzero;stroke:none"
             id="path6338"
             inkscape:connector-curvature="0" />
        </g>
      </g>
    </g>
  </g>
</svg>
