<?xml version="1.0" encoding="UTF-8" standalone="no"?>
<!-- Created with Inkscape (http://www.inkscape.org/) -->

<svg
   xmlns:dc="http://purl.org/dc/elements/1.1/"
   xmlns:cc="http://creativecommons.org/ns#"
   xmlns:rdf="http://www.w3.org/1999/02/22-rdf-syntax-ns#"
   xmlns:svg="http://www.w3.org/2000/svg"
   xmlns="http://www.w3.org/2000/svg"
   xmlns:sodipodi="http://sodipodi.sourceforge.net/DTD/sodipodi-0.dtd"
   xmlns:inkscape="http://www.inkscape.org/namespaces/inkscape"
   version="1.1"
   width="80"
   height="30"
   viewBox="0 0 80 30"
   id="svg14434"
   inkscape:version="0.48+devel r"
   sodipodi:docname="webchefs.svg">
  <sodipodi:namedview
     pagecolor="#ffffff"
     bordercolor="#666666"
     borderopacity="1"
     objecttolerance="10"
     gridtolerance="10"
     guidetolerance="10"
     inkscape:pageopacity="0"
     inkscape:pageshadow="2"
     inkscape:window-width="1920"
     inkscape:window-height="1030"
     id="namedview15280"
     showgrid="false"
     inkscape:zoom="2.2384615"
     inkscape:cx="65"
     inkscape:cy="15"
     inkscape:window-x="0"
     inkscape:window-y="0"
     inkscape:window-maximized="1"
     inkscape:current-layer="svg14434" />
  <defs
     id="defs14436">
    <clipPath
       id="clipPath4970">
      <path
         d="m 0,0 1024,0 0,1600 L 0,1600 0,0 Z"
         id="path4972"
         inkscape:connector-curvature="0" />
    </clipPath>
    <clipPath
       id="clipPath4942">
      <path
         d="m 0,0 1024,0 0,1600 L 0,1600 0,0 Z"
         id="path4944"
         inkscape:connector-curvature="0" />
    </clipPath>
  </defs>
  <metadata
     id="metadata14439">
    <rdf:RDF>
      <cc:Work
         rdf:about="">
        <dc:format>image/svg+xml</dc:format>
        <dc:type
           rdf:resource="http://purl.org/dc/dcmitype/StillImage" />
        <dc:title></dc:title>
      </cc:Work>
    </rdf:RDF>
  </metadata>
  <g
     transform="translate(-57.202749,-1022.3622)"
     id="layer1">
    <this
       x="1.6721463"
       y="1043.1929"
       id="text4890"
       style="font-size:9.19837475px;font-variant:normal;font-weight:300;font-stretch:normal;writing-mode:lr-tb;fill:#000000;fill-opacity:1;fill-rule:nonzero;stroke:none;font-family:Ubuntu Light;-inkscape-font-specification:Ubuntu-Light">
      <tspan
         x="1.6721463 7.1911588 14.540677 21.227871 28.577389 37.214657 43.340786 50.092384 52.603539"
         y="1043.1929"
         id="tspan4892">KODOWANIE</tspan>
    </this>
    <g
       transform="matrix(1.25,0,0,-1.25,75.896439,1027.2799)"
       id="g4934">
      <path
         d="M 0,0 -2.106,-0.546 -1.861,-1.494 0.245,-0.948 0,0 Z"
         id="path4936"
         style="fill:#000000;fill-opacity:1;fill-rule:nonzero;stroke:none"
         inkscape:connector-curvature="0" />
    </g>
    <g
       transform="matrix(1.25,0,0,-1.25,-1059.1956,1058.7928)"
       id="g4938">
      <g
         clip-path="url(#clipPath4942)"
         id="g4940">
        <g
           transform="translate(902.1351,20.5474)"
           id="g4946">
          <path
             d="M 0,0 C 3.474,1.877 7.271,2.854 11.051,2.931 11.044,3.273 11.039,3.615 11.035,3.957 7.097,3.871 3.148,2.848 -0.461,0.894 -0.309,0.595 -0.155,0.297 0,0"
             id="path4948"
             style="fill:#000000;fill-opacity:1;fill-rule:nonzero;stroke:none"
             inkscape:connector-curvature="0" />
        </g>
        <g
           transform="translate(914.5452,13.7688)"
           id="g4950">
          <path
             d="m 0,0 0,4.405 -5.156,0 0,-0.001 -1.611,0 -2.953,0 -2.204,0 0,-4.404 5.157,0 0,3.276 1.611,0 L -5.156,0 0,0 Z m -7.896,1.128 -2.9,0 0,2.148 1.076,0 1.824,0 0,-2.148 z m 6.768,0 -2.9,0 0,2.148 1.395,0 1.505,0 0,-2.148 z M -3.15,2.202 c 0,-0.325 0.264,-0.589 0.589,-0.589 0.325,0 0.589,0.264 0.589,0.589 0,0.325 -0.264,0.589 -0.589,0.589 -0.325,0 -0.589,-0.264 -0.589,-0.589 m -6.759,0 c 0,-0.325 0.264,-0.589 0.589,-0.589 0.325,0 0.589,0.264 0.589,0.589 0,0.325 -0.264,0.589 -0.589,0.589 -0.325,0 -0.589,-0.264 -0.589,-0.589"
             id="path4952"
             style="fill:#000000;fill-opacity:1;fill-rule:nonzero;stroke:none"
             inkscape:connector-curvature="0" />
        </g>
        <g
           transform="translate(914.5452,13.7688)"
           id="g4954">
          <path
             d="m 0,0 0,4.405 -5.156,0 0,-0.001 -1.611,0 -2.953,0 -2.204,0 0,-4.404 5.157,0 0,3.276 1.611,0 L -5.156,0 0,0 Z m -7.896,1.128 -2.9,0 0,2.148 1.076,0 1.824,0 0,-2.148 z m 6.768,0 -2.9,0 0,2.148 1.395,0 1.505,0 0,-2.148 z M -3.15,2.202 c 0,-0.325 0.264,-0.589 0.589,-0.589 0.325,0 0.589,0.264 0.589,0.589 0,0.325 -0.264,0.589 -0.589,0.589 -0.325,0 -0.589,-0.264 -0.589,-0.589 z m -6.759,0 c 0,-0.325 0.264,-0.589 0.589,-0.589 0.325,0 0.589,0.264 0.589,0.589 0,0.325 -0.264,0.589 -0.589,0.589 -0.325,0 -0.589,-0.264 -0.589,-0.589 z"
             id="path4956"
             style="fill:none;stroke:#ffffff;stroke-width:0.147;stroke-linecap:butt;stroke-linejoin:miter;stroke-miterlimit:10;stroke-opacity:1;stroke-dasharray:none"
             inkscape:connector-curvature="0" />
        </g>
        <g
           transform="translate(913.6725,11.5085)"
           id="g4958">
          <path
             d="M 0,0 C -0.161,0.175 -0.434,0.186 -0.61,0.025 -0.779,-0.13 -0.796,-0.388 -0.654,-0.563 -0.656,-0.582 -0.666,-0.609 -0.678,-0.622 -0.766,-0.717 -1.06,-0.701 -1.363,-0.583 -1.604,-0.49 -2.417,0.205 -2.724,0.466 -2.848,0.571 -2.937,0.648 -2.993,0.693 -3.506,1.1 -4.494,1.249 -5.089,0.859 -5.684,1.249 -6.672,1.1 -7.185,0.693 -7.242,0.648 -7.331,0.571 -7.454,0.466 -7.761,0.205 -8.575,-0.49 -8.815,-0.583 -9.118,-0.701 -9.413,-0.717 -9.5,-0.622 c -0.012,0.013 -0.022,0.04 -0.024,0.059 0.141,0.175 0.124,0.433 -0.044,0.588 -0.175,0.161 -0.449,0.15 -0.611,-0.025 -0.329,-0.358 -0.234,-0.904 0.043,-1.206 0.207,-0.225 0.508,-0.34 0.862,-0.34 0.237,0 0.777,0.114 1.057,0.198 0.748,0.224 3.033,1.226 3.115,1.28 0.082,-0.054 2.393,-1.056 3.141,-1.28 0.28,-0.084 0.819,-0.198 1.057,-0.198 0.354,0 0.655,0.115 0.862,0.34 C 0.235,-0.904 0.329,-0.358 0,0"
             id="path4960"
             style="fill:#000000;fill-opacity:1;fill-rule:nonzero;stroke:none"
             inkscape:connector-curvature="0" />
        </g>
      </g>
    </g>
    <g
       transform="matrix(1.25,0,0,-1.25,75.342139,1046.5652)"
       id="g4962">
      <path
         d="M 0,0 0.008,-0.9 2.009,-0.881 2.001,0.019 0,0 Z"
         id="path4964"
         style="fill:#000000;fill-opacity:1;fill-rule:nonzero;stroke:none"
         inkscape:connector-curvature="0" />
    </g>
    <g
       transform="matrix(1.25,0,0,-1.25,-1059.1956,1058.7928)"
       id="g4966">
      <g
         clip-path="url(#clipPath4970)"
         id="g4968">
        <g
           transform="translate(917.2881,19.45)"
           id="g4974">
          <path
             d="m 0,0 c -0.03,-1.664 -0.767,-6.974 2.319,-6.325 1.57,0.331 3.74,4.786 1.369,5.136 C 2.77,-1.053 2.508,-2.14 2.453,-2.832 2.371,-3.848 2.664,-5.055 3.415,-5.777 4.313,-6.642 5.648,-6.09 6.374,-5.296 7.515,-4.047 7.146,-1.995 6.929,-0.491 6.848,0.068 6.761,0.626 6.75,1.193 6.605,1.083 6.46,0.973 6.316,0.862 7.265,0.653 8.14,0.886 8.748,1.67 9.016,2.015 8.534,2.504 8.263,2.155 7.807,1.566 7.229,1.363 6.498,1.524 6.285,1.571 6.06,1.425 6.064,1.193 6.098,-0.625 7.602,-5.179 4.634,-5.532 3.222,-5.7 2.655,-2.748 3.429,-1.91 3.667,-1.653 3.918,-2.129 3.962,-2.299 4.078,-2.748 3.919,-3.273 3.782,-3.697 3.509,-4.542 2.824,-5.691 1.821,-5.694 -0.003,-5.701 0.666,-1.099 0.686,0 0.694,0.443 0.008,0.442 0,0"
             id="path4976"
             style="fill:#000000;fill-opacity:1;fill-rule:nonzero;stroke:none"
             inkscape:connector-curvature="0" />
        </g>
        <g
           transform="translate(928.6221,23.3054)"
           id="g4978">
          <path
             d="m 0,0 c -0.196,-1.816 -0.393,-3.632 -0.553,-5.451 -0.107,-1.205 -0.568,-3.16 0.345,-4.178 0.626,-0.697 1.581,-0.537 2.249,0.021 0.943,0.788 1.447,2.038 1.593,3.238 0.135,1.116 -0.149,2.537 -1.567,2.444 -1.048,-0.07 -1.089,-1.532 -0.524,-2.145 0.784,-0.85 2.122,-1.048 3.012,-0.249 0.923,0.828 1.414,2.112 1.579,3.318 0.059,0.433 -0.602,0.619 -0.662,0.183 C 5.277,-4.246 4.31,-6.899 2.433,-5.912 2.085,-5.729 1.385,-4.657 2.236,-4.601 2.971,-4.553 3.002,-5.479 2.989,-5.961 2.966,-6.795 2.652,-7.682 2.222,-8.385 1.91,-8.894 1.162,-9.675 0.493,-9.341 -0.278,-8.956 -0.018,-7.445 0.028,-6.779 0.18,-4.514 0.443,-2.256 0.686,0 0.734,0.44 0.047,0.435 0,0"
             id="path4980"
             style="fill:#000000;fill-opacity:1;fill-rule:nonzero;stroke:none"
             inkscape:connector-curvature="0" />
        </g>
        <g
           transform="translate(924.3137,17.4175)"
           id="g4982">
          <path
             d="M 0,0 C 1.266,-0.255 3.143,-0.254 3.642,1.209 3.812,1.707 3.502,2.201 3.074,2.428 2.474,2.745 1.794,2.407 1.341,2.004 0.479,1.236 0.393,-0.705 1.377,-1.414 c 1.157,-0.834 2.991,-0.297 2.98,1.29 -0.002,0.443 -0.689,0.443 -0.686,0 C 3.678,-1.083 2.631,-1.349 1.907,-0.954 1.189,-0.563 1.297,0.588 1.589,1.204 1.774,1.593 2.228,1.91 2.668,1.846 3.369,1.744 2.77,0.977 2.466,0.802 1.825,0.432 0.873,0.522 0.182,0.661 -0.25,0.749 -0.433,0.087 0,0"
             id="path4984"
             style="fill:#000000;fill-opacity:1;fill-rule:nonzero;stroke:none"
             inkscape:connector-curvature="0" />
        </g>
        <g
           transform="translate(935.1143,16.6229)"
           id="g4986">
          <path
             d="M 0,0 C 0.128,0.126 0.28,0.228 0.452,0.303 0.623,0.377 0.81,0.415 1.007,0.415 1.274,0.415 1.575,0.306 1.901,0.093 1.944,0.062 1.98,0.043 2.011,0.032 2.043,0.02 2.071,0.014 2.096,0.014 c 0.083,0 0.156,0.031 0.217,0.093 0.061,0.061 0.092,0.136 0.092,0.222 0,0.103 -0.051,0.2 -0.153,0.288 C 2.158,0.699 2.039,0.772 1.898,0.833 1.759,0.894 1.608,0.943 1.449,0.978 1.29,1.014 1.142,1.031 1.007,1.031 0.734,1.031 0.471,0.979 0.223,0.874 -0.025,0.77 -0.244,0.625 -0.429,0.444 -0.615,0.262 -0.765,0.046 -0.874,-0.196 c -0.11,-0.244 -0.167,-0.51 -0.167,-0.791 0,-0.284 0.054,-0.553 0.161,-0.801 0.106,-0.248 0.253,-0.467 0.436,-0.65 0.183,-0.183 0.402,-0.33 0.649,-0.435 0.249,-0.107 0.519,-0.161 0.802,-0.161 0.122,0 0.264,0.016 0.424,0.05 0.159,0.033 0.311,0.08 0.452,0.139 0.143,0.06 0.265,0.132 0.364,0.216 0.105,0.091 0.158,0.193 0.158,0.303 0,0.196 -0.11,0.303 -0.309,0.303 -0.044,0 -0.104,-0.022 -0.196,-0.072 -0.295,-0.214 -0.596,-0.322 -0.893,-0.322 -0.201,0 -0.39,0.039 -0.563,0.117 -0.174,0.078 -0.326,0.184 -0.452,0.314 -0.126,0.129 -0.226,0.282 -0.297,0.453 -0.071,0.171 -0.107,0.354 -0.107,0.543 0,0.19 0.037,0.373 0.109,0.542 C -0.23,-0.276 -0.128,-0.125 0,0"
             id="path4988"
             style="fill:#000000;fill-opacity:1;fill-rule:nonzero;stroke:none"
             inkscape:connector-curvature="0" />
        </g>
        <g
           transform="translate(940.868,17.6661)"
           id="g4990">
          <path
             d="m 0,0 c -0.203,0 -0.314,-0.112 -0.314,-0.314 l 0,-1.419 -1.626,0 0,1.419 C -1.94,-0.112 -2.048,0 -2.243,0 -2.446,0 -2.557,-0.112 -2.557,-0.314 l 0,-3.461 c 0,-0.202 0.111,-0.314 0.314,-0.314 0.195,0 0.303,0.112 0.303,0.314 l 0,1.413 1.626,0 0,-1.413 c 0,-0.202 0.111,-0.314 0.314,-0.314 0.203,0 0.315,0.112 0.315,0.314 l 0,3.461 C 0.315,-0.112 0.203,0 0,0"
             id="path4992"
             style="fill:#000000;fill-opacity:1;fill-rule:nonzero;stroke:none"
             inkscape:connector-curvature="0" />
        </g>
        <g
           transform="translate(944.172,17.0375)"
           id="g4994">
          <path
             d="M 0,0 C 0.199,0 0.308,0.112 0.308,0.314 0.308,0.509 0.199,0.617 0,0.617 l -1.768,0 c -0.203,0 -0.314,-0.108 -0.314,-0.303 l 0,-3.46 c 0,-0.196 0.111,-0.303 0.314,-0.303 l 1.768,0 c 0.199,0 0.308,0.109 0.308,0.306 0,0.201 -0.109,0.311 -0.308,0.311 l -1.454,0 0,1.099 1.089,0 c 0.202,0 0.314,0.111 0.314,0.314 0,0.203 -0.112,0.314 -0.314,0.314 l -1.089,0 0,1.105 L 0,0 Z"
             id="path4996"
             style="fill:#000000;fill-opacity:1;fill-rule:nonzero;stroke:none"
             inkscape:connector-curvature="0" />
        </g>
        <g
           transform="translate(947.2783,17.6543)"
           id="g4998">
          <path
             d="m 0,0 -1.779,0 c -0.195,0 -0.303,-0.107 -0.303,-0.302 l 0,-3.461 c 0,-0.203 0.112,-0.314 0.315,-0.314 0.194,0 0.302,0.111 0.302,0.314 l 0,1.413 1.094,0 c 0.207,0 0.32,0.112 0.32,0.314 0,0.203 -0.113,0.315 -0.32,0.315 l -1.094,0 0,1.104 1.465,0 c 0.199,0 0.309,0.112 0.309,0.315 C 0.309,-0.107 0.199,0 0,0"
             id="path5000"
             style="fill:#000000;fill-opacity:1;fill-rule:nonzero;stroke:none"
             inkscape:connector-curvature="0" />
        </g>
        <g
           transform="translate(949.7192,15.6411)"
           id="g5002">
          <path
             d="M 0,0 C -0.029,0.028 -0.105,0.095 -0.234,0.203 -0.361,0.309 -0.536,0.455 -0.76,0.64 -0.891,0.749 -0.991,0.85 -1.058,0.939 -1.12,1.023 -1.152,1.105 -1.152,1.183 c 0,0.08 0.034,0.142 0.105,0.189 0.078,0.052 0.161,0.076 0.253,0.076 0.075,0 0.136,-0.019 0.188,-0.059 0.056,-0.044 0.108,-0.092 0.156,-0.145 l 0.132,-0.15 c 0.05,-0.057 0.108,-0.086 0.172,-0.086 0.196,0 0.303,0.106 0.303,0.297 0,0.097 -0.029,0.193 -0.088,0.284 C 0.011,1.677 -0.064,1.756 -0.155,1.822 -0.244,1.887 -0.345,1.941 -0.453,1.981 -0.7,2.073 -0.933,2.056 -1.144,1.969 -1.261,1.92 -1.366,1.854 -1.456,1.772 -1.548,1.688 -1.62,1.592 -1.672,1.485 -1.726,1.376 -1.753,1.259 -1.753,1.137 c 0,-0.148 0.043,-0.288 0.127,-0.417 0.081,-0.124 0.181,-0.246 0.299,-0.362 0.118,-0.116 0.248,-0.229 0.387,-0.337 0.138,-0.108 0.266,-0.217 0.379,-0.325 0.113,-0.107 0.209,-0.217 0.287,-0.328 0.074,-0.107 0.11,-0.216 0.11,-0.335 0,-0.069 -0.018,-0.134 -0.052,-0.194 -0.035,-0.061 -0.083,-0.115 -0.141,-0.159 -0.059,-0.045 -0.129,-0.081 -0.206,-0.106 -0.079,-0.026 -0.158,-0.038 -0.243,-0.038 -0.293,0 -0.486,0.139 -0.588,0.428 -0.062,0.154 -0.156,0.232 -0.282,0.232 -0.199,0 -0.308,-0.101 -0.308,-0.285 0,-0.132 0.038,-0.259 0.112,-0.376 0.072,-0.115 0.166,-0.217 0.28,-0.305 0.113,-0.087 0.24,-0.157 0.377,-0.207 0.137,-0.05 0.274,-0.075 0.406,-0.075 0.175,0 0.338,0.026 0.487,0.078 0.15,0.051 0.282,0.127 0.391,0.223 0.111,0.097 0.199,0.213 0.261,0.346 0.062,0.134 0.094,0.281 0.094,0.438 C 0.424,-0.62 0.281,-0.295 0,0"
             id="path5004"
             style="fill:#000000;fill-opacity:1;fill-rule:nonzero;stroke:none"
             inkscape:connector-curvature="0" />
        </g>
      </g>
    </g>
  </g>
</svg>
