<?xml version="1.0" encoding="UTF-8" standalone="no"?>
<!-- Created with Inkscape (http://www.inkscape.org/) -->

<svg
   xmlns:dc="http://purl.org/dc/elements/1.1/"
   xmlns:cc="http://creativecommons.org/ns#"
   xmlns:rdf="http://www.w3.org/1999/02/22-rdf-syntax-ns#"
   xmlns:svg="http://www.w3.org/2000/svg"
   xmlns="http://www.w3.org/2000/svg"
   xmlns:sodipodi="http://sodipodi.sourceforge.net/DTD/sodipodi-0.dtd"
   xmlns:inkscape="http://www.inkscape.org/namespaces/inkscape"
   width="40"
   height="40"
   id="svg3243"
   version="1.1"
   inkscape:version="0.48.5 r10040"
   sodipodi:docname="science:hover.svg">
  <defs
     id="defs3245">
    <clipPath
       clipPathUnits="userSpaceOnUse"
       id="clipPath102">
      <path
         inkscape:connector-curvature="0"
         d="m 0,0 841.89,0 0,595.276 L 0,595.276 0,0 z"
         id="path104" />
    </clipPath>
  </defs>
  <sodipodi:namedview
     id="base"
     pagecolor="#ffffa9"
     bordercolor="#666666"
     borderopacity="1.0"
     inkscape:pageopacity="0"
     inkscape:pageshadow="2"
     inkscape:zoom="7.919596"
     inkscape:cx="4.3620448"
     inkscape:cy="-1.396586"
     inkscape:document-units="px"
     inkscape:current-layer="layer1"
     showgrid="false"
     inkscape:window-width="1920"
     inkscape:window-height="1056"
     inkscape:window-x="0"
     inkscape:window-y="24"
     inkscape:window-maximized="1"
     showguides="true"
     inkscape:guide-bbox="true">
    <sodipodi:guide
       orientation="0,1"
       position="26.696429,35.535714"
       id="guide3344" />
    <sodipodi:guide
       orientation="0,1"
       position="29.553572,5"
       id="guide3346" />
    <sodipodi:guide
       orientation="1,0"
       position="8.4821429,11.160714"
       id="guide3348" />
  </sodipodi:namedview>
  <metadata
     id="metadata3248">
    <rdf:RDF>
      <cc:Work
         rdf:about="">
        <dc:format>image/svg+xml</dc:format>
        <dc:type
           rdf:resource="http://purl.org/dc/dcmitype/StillImage" />
        <dc:title></dc:title>
      </cc:Work>
    </rdf:RDF>
  </metadata>
  <g
     inkscape:label="Layer 1"
     inkscape:groupmode="layer"
     id="layer1"
     transform="translate(0,-1012.3622)">
    <rect
       style="fill:#808080;fill-opacity:0.94117647;stroke:#ffffff;stroke-opacity:1"
       id="rect4260"
       width="79.044434"
       height="64.346458"
       x="-94.828072"
       y="1005.3146" />
    <g
       id="g66"
       transform="matrix(0.62944771,0,0,-0.62944771,33.901323,1026.0805)" />
    <g
       transform="translate(0.4821429,0.095536)"
       id="layer1-9"
       inkscape:label="Layer 1"
       style="fill:#ffffff">
      <g
         transform="translate(1325.7768,816.82725)"
         id="g8495"
         style="fill:#ffffff">
        <path
           d="m -1317.7768,203.08495 3.1812,0 0,-3.18125 -3.1812,0 0,3.18125 z"
           style="fill:#ffffff;fill-opacity:1;fill-rule:nonzero;stroke:none"
           id="path4654"
           inkscape:connector-curvature="0" />
        <path
           d="m -1317.7768,206.5162 3.1812,0 0,-3.18125 -3.1812,0 0,3.18125 z"
           style="fill:#ffffff;fill-opacity:1;fill-rule:nonzero;stroke:none"
           id="path4656"
           inkscape:connector-curvature="0" />
        <path
           d="m -1317.7768,209.94745 3.1812,0 0,-3.18125 -3.1812,0 0,3.18125 z"
           style="fill:#ffffff;fill-opacity:1;fill-rule:nonzero;stroke:none"
           id="path4658"
           inkscape:connector-curvature="0" />
        <path
           d="m -1317.7768,213.3787 3.1812,0 0,-3.18125 -3.1812,0 0,3.18125 z"
           style="fill:#ffffff;fill-opacity:1;fill-rule:nonzero;stroke:none"
           id="path4660"
           inkscape:connector-curvature="0" />
        <path
           d="m -1317.7768,216.80995 3.1812,0 0,-3.18125 -3.1812,0 0,3.18125 z"
           style="fill:#ffffff;fill-opacity:1;fill-rule:nonzero;stroke:none"
           id="path4662"
           inkscape:connector-curvature="0" />
        <path
           d="m -1317.7768,220.2412 3.1812,0 0,-3.18125 -3.1812,0 0,3.18125 z"
           style="fill:#ffffff;fill-opacity:1;fill-rule:nonzero;stroke:none"
           id="path4664"
           inkscape:connector-curvature="0" />
        <path
           d="m -1317.7768,223.67245 3.1812,0 0,-3.18125 -3.1812,0 0,3.18125 z"
           style="fill:#ffffff;fill-opacity:1;fill-rule:nonzero;stroke:none"
           id="path4666"
           inkscape:connector-curvature="0" />
        <path
           d="m -1317.7768,227.1037 3.1812,0 0,-3.18125 -3.1812,0 0,3.18125 z"
           style="fill:#ffffff;fill-opacity:1;fill-rule:nonzero;stroke:none"
           id="path4668"
           inkscape:connector-curvature="0" />
        <path
           d="m -1314.2868,203.08495 3.1812,0 0,-3.18125 -3.1812,0 0,3.18125 z"
           style="fill:#ffffff;fill-opacity:1;fill-rule:nonzero;stroke:none"
           id="path4670"
           inkscape:connector-curvature="0" />
        <path
           d="m -1310.7956,203.08495 3.1813,0 0,-3.18125 -3.1813,0 0,3.18125 z"
           style="fill:#ffffff;fill-opacity:1;fill-rule:nonzero;stroke:none"
           id="path4672"
           inkscape:connector-curvature="0" />
        <path
           d="m -1310.7956,209.94745 3.1813,0 0,-3.18125 -3.1813,0 0,3.18125 z"
           style="fill:#ffffff;fill-opacity:1;fill-rule:nonzero;stroke:none"
           id="path4674"
           inkscape:connector-curvature="0" />
        <path
           d="m -1310.7956,216.80995 3.1813,0 0,-3.18125 -3.1813,0 0,3.18125 z"
           style="fill:#ffffff;fill-opacity:1;fill-rule:nonzero;stroke:none"
           id="path4676"
           inkscape:connector-curvature="0" />
        <path
           d="m -1310.7956,223.67245 3.1813,0 0,-3.18125 -3.1813,0 0,3.18125 z"
           style="fill:#ffffff;fill-opacity:1;fill-rule:nonzero;stroke:none"
           id="path4678"
           inkscape:connector-curvature="0" />
        <path
           d="m -1307.3043,203.08495 3.1812,0 0,-3.18125 -3.1812,0 0,3.18125 z"
           style="fill:#ffffff;fill-opacity:1;fill-rule:nonzero;stroke:none"
           id="path4680"
           inkscape:connector-curvature="0" />
        <path
           d="m -1307.3043,209.94745 3.1812,0 0,-3.18125 -3.1812,0 0,3.18125 z"
           style="fill:#ffffff;fill-opacity:1;fill-rule:nonzero;stroke:none"
           id="path4682"
           inkscape:connector-curvature="0" />
        <path
           d="m -1307.3043,216.80995 3.1812,0 0,-3.18125 -3.1812,0 0,3.18125 z"
           style="fill:#ffffff;fill-opacity:1;fill-rule:nonzero;stroke:none"
           id="path4684"
           inkscape:connector-curvature="0" />
        <path
           d="m -1307.3043,223.67245 3.1812,0 0,-3.18125 -3.1812,0 0,3.18125 z"
           style="fill:#ffffff;fill-opacity:1;fill-rule:nonzero;stroke:none"
           id="path4686"
           inkscape:connector-curvature="0" />
        <path
           d="m -1303.8143,203.08495 3.1812,0 0,-3.18125 -3.1812,0 0,3.18125 z"
           style="fill:#ffffff;fill-opacity:1;fill-rule:nonzero;stroke:none"
           id="path4688"
           inkscape:connector-curvature="0" />
        <path
           d="m -1303.8143,209.94745 3.1812,0 0,-3.18125 -3.1812,0 0,3.18125 z"
           style="fill:#ffffff;fill-opacity:1;fill-rule:nonzero;stroke:none"
           id="path4690"
           inkscape:connector-curvature="0" />
        <path
           d="m -1303.8143,216.80995 3.1812,0 0,-3.18125 -3.1812,0 0,3.18125 z"
           style="fill:#ffffff;fill-opacity:1;fill-rule:nonzero;stroke:none"
           id="path4692"
           inkscape:connector-curvature="0" />
        <path
           d="m -1303.8143,223.67245 3.1812,0 0,-3.18125 -3.1812,0 0,3.18125 z"
           style="fill:#ffffff;fill-opacity:1;fill-rule:nonzero;stroke:none"
           id="path4694"
           inkscape:connector-curvature="0" />
        <path
           d="m -1300.3231,203.08495 3.1813,0 0,-3.18125 -3.1813,0 0,3.18125 z"
           style="fill:#ffffff;fill-opacity:1;fill-rule:nonzero;stroke:none"
           id="path4696"
           inkscape:connector-curvature="0" />
        <path
           d="m -1296.8331,203.08495 3.1813,0 0,-3.18125 -3.1813,0 0,3.18125 z"
           style="fill:#ffffff;fill-opacity:1;fill-rule:nonzero;stroke:none"
           id="path4698"
           inkscape:connector-curvature="0" />
        <path
           d="m -1296.8331,206.5162 3.1813,0 0,-3.18125 -3.1813,0 0,3.18125 z"
           style="fill:#ffffff;fill-opacity:1;fill-rule:nonzero;stroke:none"
           id="path4700"
           inkscape:connector-curvature="0" />
        <path
           d="m -1296.8331,209.94745 3.1813,0 0,-3.18125 -3.1813,0 0,3.18125 z"
           style="fill:#ffffff;fill-opacity:1;fill-rule:nonzero;stroke:none"
           id="path4702"
           inkscape:connector-curvature="0" />
        <path
           d="m -1296.8331,213.3787 3.1813,0 0,-3.18125 -3.1813,0 0,3.18125 z"
           style="fill:#ffffff;fill-opacity:1;fill-rule:nonzero;stroke:none"
           id="path4704"
           inkscape:connector-curvature="0" />
        <path
           d="m -1296.8331,216.80995 3.1813,0 0,-3.18125 -3.1813,0 0,3.18125 z"
           style="fill:#ffffff;fill-opacity:1;fill-rule:nonzero;stroke:none"
           id="path4706"
           inkscape:connector-curvature="0" />
        <path
           d="m -1296.8331,220.2412 3.1813,0 0,-3.18125 -3.1813,0 0,3.18125 z"
           style="fill:#ffffff;fill-opacity:1;fill-rule:nonzero;stroke:none"
           id="path4708"
           inkscape:connector-curvature="0" />
        <path
           d="m -1296.8331,223.67245 3.1813,0 0,-3.18125 -3.1813,0 0,3.18125 z"
           style="fill:#ffffff;fill-opacity:1;fill-rule:nonzero;stroke:none"
           id="path4710"
           inkscape:connector-curvature="0" />
        <path
           d="m -1296.8331,227.1037 3.1813,0 0,-3.18125 -3.1813,0 0,3.18125 z"
           style="fill:#ffffff;fill-opacity:1;fill-rule:nonzero;stroke:none"
           id="path4712"
           inkscape:connector-curvature="0" />
        <path
           d="m -1317.7768,230.53495 3.1812,0 0,-3.18125 -3.1812,0 0,3.18125 z"
           style="fill:#ffffff;fill-opacity:1;fill-rule:nonzero;stroke:none"
           id="path4714"
           inkscape:connector-curvature="0" />
        <path
           d="m -1296.8331,230.53495 3.1813,0 0,-3.18125 -3.1813,0 0,3.18125 z"
           style="fill:#ffffff;fill-opacity:1;fill-rule:nonzero;stroke:none"
           id="path4716"
           inkscape:connector-curvature="0" />
        <path
           d="m -1314.2868,230.53495 3.1812,0 0,-3.18125 -3.1812,0 0,3.18125 z"
           style="fill:#ffffff;fill-opacity:1;fill-rule:nonzero;stroke:none"
           id="path4718"
           inkscape:connector-curvature="0" />
        <path
           d="m -1310.7956,230.53495 3.1813,0 0,-3.18125 -3.1813,0 0,3.18125 z"
           style="fill:#ffffff;fill-opacity:1;fill-rule:nonzero;stroke:none"
           id="path4720"
           inkscape:connector-curvature="0" />
        <path
           d="m -1307.3043,230.53495 3.1812,0 0,-3.18125 -3.1812,0 0,3.18125 z"
           style="fill:#ffffff;fill-opacity:1;fill-rule:nonzero;stroke:none"
           id="path4722"
           inkscape:connector-curvature="0" />
        <path
           d="m -1303.8143,230.53495 3.1812,0 0,-3.18125 -3.1812,0 0,3.18125 z"
           style="fill:#ffffff;fill-opacity:1;fill-rule:nonzero;stroke:none"
           id="path4724"
           inkscape:connector-curvature="0" />
        <path
           d="m -1300.3231,230.53495 3.1813,0 0,-3.18125 -3.1813,0 0,3.18125 z"
           style="fill:#ffffff;fill-opacity:1;fill-rule:nonzero;stroke:none"
           id="path4726"
           inkscape:connector-curvature="0" />
      </g>
    </g>
  </g>
</svg>
