<?xml version="1.0" encoding="UTF-8" standalone="no"?>
<!-- Created with Inkscape (http://www.inkscape.org/) -->

<svg
   xmlns:dc="http://purl.org/dc/elements/1.1/"
   xmlns:cc="http://creativecommons.org/ns#"
   xmlns:rdf="http://www.w3.org/1999/02/22-rdf-syntax-ns#"
   xmlns:svg="http://www.w3.org/2000/svg"
   xmlns="http://www.w3.org/2000/svg"
   xmlns:sodipodi="http://sodipodi.sourceforge.net/DTD/sodipodi-0.dtd"
   xmlns:inkscape="http://www.inkscape.org/namespaces/inkscape"
   width="40"
   height="40"
   id="svg3243"
   version="1.1"
   inkscape:version="0.48.5 r10040"
   sodipodi:docname="white_card:hover.svg">
  <defs
     id="defs3245" />
  <sodipodi:namedview
     id="base"
     pagecolor="#ffffa9"
     bordercolor="#666666"
     borderopacity="1.0"
     inkscape:pageopacity="0"
     inkscape:pageshadow="2"
     inkscape:zoom="11.2"
     inkscape:cx="28.97965"
     inkscape:cy="2.7186208"
     inkscape:document-units="px"
     inkscape:current-layer="layer1"
     showgrid="false"
     inkscape:window-width="1920"
     inkscape:window-height="1056"
     inkscape:window-x="0"
     inkscape:window-y="24"
     inkscape:window-maximized="1"
     showguides="true"
     inkscape:guide-bbox="true">
    <sodipodi:guide
       orientation="0,1"
       position="26.696429,35.535714"
       id="guide3344" />
    <sodipodi:guide
       orientation="0,1"
       position="29.553572,5"
       id="guide3346" />
    <sodipodi:guide
       orientation="1,0"
       position="8.4821429,11.160714"
       id="guide3348" />
  </sodipodi:namedview>
  <metadata
     id="metadata3248">
    <rdf:RDF>
      <cc:Work
         rdf:about="">
        <dc:format>image/svg+xml</dc:format>
        <dc:type
           rdf:resource="http://purl.org/dc/dcmitype/StillImage" />
        <dc:title></dc:title>
      </cc:Work>
    </rdf:RDF>
  </metadata>
  <g
     inkscape:label="Layer 1"
     inkscape:groupmode="layer"
     id="layer1"
     transform="translate(0,-1012.3622)">
    <g
       id="g46"
       transform="matrix(0.59031057,0,0,-0.59031057,9.2398651,1047.0272)">
      <path
         inkscape:connector-curvature="0"
         d="m 0,0 4.606,0 32.269,19.913 0,6.388 L 0,3.545 0,0 z m 0,9.933 36.875,22.756 0,5.814 -0.34,0.363 L 0,16.321 0,9.933 z m 0,-6.388 36.875,22.756 0,6.388 L 0,9.933 0,3.545 z M 25.309,0 l 11.566,7.138 0,6.388 L 14.958,0 25.309,0 z m 11.566,0 0,7.138 L 25.309,0 36.875,0 z m -21.917,0 21.917,13.526 0,6.387 L 4.606,0 14.958,0 z M 0,16.321 36.535,38.866 32.741,42.913 0,22.708 0,16.321 z m 0,33.516 0,-7.966 12.908,7.966 -12.908,0 z m 0,-7.966 0,-6.387 23.259,14.353 -10.351,0 L 0,41.871 z M 0,22.708 32.741,42.913 28.947,46.96 0,29.096 0,22.708 z m 0,6.388 28.947,17.864 -2.697,2.877 -2.991,0 L 0,35.484 0,29.096 z"
         style="fill:none;stroke:#231f20;stroke-width:2;stroke-linecap:round;stroke-linejoin:round;stroke-miterlimit:10;stroke-opacity:1;stroke-dasharray:none"
         id="path48" />
    </g>
    <g
       id="g50"
       transform="matrix(0.59031057,0,0,-0.59031057,24.35931,1017.6078)">
      <path
         inkscape:connector-curvature="0"
         d="m 0,0 0,-11.214 5.568,0 5.39,0 L 0,0 z"
         style="fill:#ffffff;fill-opacity:1;fill-rule:nonzero;stroke:none"
         id="path52" />
    </g>
    <g
       id="g54"
       transform="matrix(0.59031057,0,0,-0.59031057,24.35931,1017.6078)">
      <path
         inkscape:connector-curvature="0"
         d="m 0,0 0,-11.214 5.568,0 5.39,0 L 0,0 z"
         style="fill:none;stroke:#231f20;stroke-width:2;stroke-linecap:round;stroke-linejoin:round;stroke-miterlimit:10;stroke-opacity:1;stroke-dasharray:none"
         id="path56" />
    </g>
  </g>
</svg>
