<?xml version="1.0" encoding="UTF-8" standalone="no"?>
<!-- Created with Inkscape (http://www.inkscape.org/) -->

<svg
   xmlns:dc="http://purl.org/dc/elements/1.1/"
   xmlns:cc="http://creativecommons.org/ns#"
   xmlns:rdf="http://www.w3.org/1999/02/22-rdf-syntax-ns#"
   xmlns:svg="http://www.w3.org/2000/svg"
   xmlns="http://www.w3.org/2000/svg"
   xmlns:sodipodi="http://sodipodi.sourceforge.net/DTD/sodipodi-0.dtd"
   xmlns:inkscape="http://www.inkscape.org/namespaces/inkscape"
   width="40"
   height="40"
   id="svg3243"
   version="1.1"
   inkscape:version="0.48.5 r10040"
   sodipodi:docname="park_place.svg">
  <defs
     id="defs3245">
    <clipPath
       clipPathUnits="userSpaceOnUse"
       id="clipPath102">
      <path
         inkscape:connector-curvature="0"
         d="m 0,0 841.89,0 0,595.276 L 0,595.276 0,0 z"
         id="path104" />
    </clipPath>
    <clipPath
       clipPathUnits="userSpaceOnUse"
       id="clipPath4568">
      <path
         inkscape:connector-curvature="0"
         d="m 0,0 841.89,0 0,595.276 L 0,595.276 0,0 z"
         id="path4570" />
    </clipPath>
    <clipPath
       clipPathUnits="userSpaceOnUse"
       id="clipPath4536">
      <path
         inkscape:connector-curvature="0"
         d="m 0,0 841.89,0 0,595.276 L 0,595.276 0,0 z"
         id="path4538" />
    </clipPath>
  </defs>
  <sodipodi:namedview
     id="base"
     pagecolor="#ffffa9"
     bordercolor="#666666"
     borderopacity="1.0"
     inkscape:pageopacity="0"
     inkscape:pageshadow="2"
     inkscape:zoom="7.919596"
     inkscape:cx="-11.436191"
     inkscape:cy="15.339662"
     inkscape:document-units="px"
     inkscape:current-layer="layer1"
     showgrid="false"
     inkscape:window-width="1920"
     inkscape:window-height="1056"
     inkscape:window-x="0"
     inkscape:window-y="24"
     inkscape:window-maximized="1"
     showguides="true"
     inkscape:guide-bbox="true">
    <sodipodi:guide
       orientation="0,1"
       position="26.696429,35.535714"
       id="guide3344" />
    <sodipodi:guide
       orientation="0,1"
       position="29.553572,5"
       id="guide3346" />
    <sodipodi:guide
       orientation="1,0"
       position="5.555839,-4.9244937"
       id="guide3348" />
  </sodipodi:namedview>
  <metadata
     id="metadata3248">
    <rdf:RDF>
      <cc:Work
         rdf:about="">
        <dc:format>image/svg+xml</dc:format>
        <dc:type
           rdf:resource="http://purl.org/dc/dcmitype/StillImage" />
        <dc:title></dc:title>
      </cc:Work>
    </rdf:RDF>
  </metadata>
  <g
     inkscape:label="Layer 1"
     inkscape:groupmode="layer"
     id="layer1"
     transform="translate(0,-1012.3622)">
    <rect
       style="fill:#808080;fill-opacity:0.94117647;stroke:#ffffff;stroke-opacity:1"
       id="rect4260"
       width="79.044434"
       height="64.346458"
       x="-105.6872"
       y="999.00092" />
    <g
       id="g66"
       transform="matrix(0.62944771,0,0,-0.62944771,33.901323,1026.0805)" />
    <g
       id="g4528"
       transform="matrix(0.43099982,0,0,-0.43099982,14.422347,1033.429)"
       style="stroke:#ffffff">
      <path
         inkscape:connector-curvature="0"
         d="m 0,0 -5.875,0 0.5,18.583 4.875,0 L 0,0 z"
         style="fill:none;stroke:#ffffff;stroke-width:2;stroke-linecap:round;stroke-linejoin:round;stroke-miterlimit:10;stroke-opacity:1;stroke-dasharray:none"
         id="path4530" />
    </g>
    <g
       transform="matrix(0.43099982,0,0,-0.43099982,-157.63041,1128.18)"
       id="g4532"
       style="stroke:#ffffff">
      <g
         id="g4534"
         clip-path="url(#clipPath4536)"
         style="stroke:#ffffff">
        <g
           id="g4540"
           transform="translate(407.0695,247.3085)"
           style="stroke:#ffffff">
          <path
             inkscape:connector-curvature="0"
             d="M 0,0 C 0,0 -4.841,-9.281 -10.813,-9.281 -16.784,-9.281 -21.625,0 -21.625,0 L -10.813,9.281 0,0 z"
             style="fill:none;stroke:#ffffff;stroke-width:2;stroke-linecap:round;stroke-linejoin:round;stroke-miterlimit:10;stroke-opacity:1;stroke-dasharray:none"
             id="path4542" />
        </g>
      </g>
    </g>
    <g
       id="g4544"
       transform="matrix(0.43099982,0,0,-0.43099982,20.851313,1046.7279)"
       style="stroke:#ffffff">
      <path
         inkscape:connector-curvature="0"
         d="m 0,0 -5.875,0 0.5,12.583 4.875,0 L 0,0 z"
         style="fill:none;stroke:#ffffff;stroke-width:2;stroke-linecap:round;stroke-linejoin:round;stroke-miterlimit:10;stroke-opacity:1;stroke-dasharray:none"
         id="path4546" />
    </g>
    <g
       id="g4548"
       transform="matrix(0.43099982,0,0,-0.43099982,19.717008,1035.0477)"
       style="stroke:#ffffff">
      <path
         inkscape:connector-curvature="0"
         d="M 2.9436502,-5.0986996 4.274,-7.403 l 4.275,-7.404 -8.549,0 -8.549,0 4.275,7.404 1.4516398,2.5143869 z"
         style="fill:none;stroke:#ffffff;stroke-width:2;stroke-linecap:round;stroke-linejoin:round;stroke-miterlimit:10;stroke-opacity:1;stroke-dasharray:none"
         id="path4550"
         sodipodi:nodetypes="cccccccc" />
    </g>
    <g
       id="g4556"
       transform="matrix(0.43099982,0,0,-0.43099982,19.717008,1030.4324)"
       style="stroke:#ffffff;fill:none">
      <path
         inkscape:connector-curvature="0"
         d="m 0,0 4.274,-7.403 4.275,-7.404 -8.549,0 -8.549,0 4.275,7.404 L 0,0 z"
         style="fill:none;stroke:#ffffff;stroke-width:2;stroke-linecap:round;stroke-linejoin:round;stroke-miterlimit:10;stroke-opacity:1;stroke-dasharray:none"
         id="path4558" />
    </g>
    <g
       id="g4560"
       transform="matrix(0.43099982,0,0,-0.43099982,29.139739,1033.1538)"
       style="stroke:#ffffff">
      <path
         inkscape:connector-curvature="0"
         d="m 0,0 -5.875,0 0.2798154,10.399619 5.31435884,0.03755 z"
         style="fill:none;stroke:#ffffff;stroke-width:2;stroke-linecap:round;stroke-linejoin:round;stroke-miterlimit:10;stroke-opacity:1;stroke-dasharray:none"
         id="path4562"
         sodipodi:nodetypes="ccccc" />
    </g>
    <g
       style="stroke:#ffffff;fill:none"
       clip-path="url(#clipPath4568)"
       id="g4566"
       transform="matrix(0.43099982,0,0,-0.43099982,-157.63041,1128.18)">
      <g
         style="stroke:#ffffff;fill:none"
         transform="translate(437.7791,239.1451)"
         id="g4572">
        <path
           id="path4574"
           style="fill:none;fill-opacity:1;fill-rule:nonzero;stroke:#ffffff"
           d="m 0,0 c 0,-4.073 -3.302,-7.375 -7.375,-7.375 -4.073,0 -7.375,3.302 -7.375,7.375 0,4.073 3.302,7.375 7.375,7.375 C -3.302,7.375 0,4.073 0,0"
           inkscape:connector-curvature="0" />
      </g>
      <g
         style="stroke:#ffffff;fill:none"
         transform="translate(437.7791,239.1451)"
         id="g4576">
        <path
           id="path4578"
           style="fill:none;stroke:#ffffff;stroke-width:2;stroke-linecap:round;stroke-linejoin:round;stroke-miterlimit:10;stroke-opacity:1;stroke-dasharray:none"
           d="m 0,0 c 0,-4.073 -3.302,-7.375 -7.375,-7.375 -4.073,0 -7.375,3.302 -7.375,7.375 0,4.073 3.302,7.375 7.375,7.375 C -3.302,7.375 0,4.073 0,0 z"
           inkscape:connector-curvature="0" />
      </g>
    </g>
  </g>
</svg>
