<?xml version="1.0" encoding="UTF-8" standalone="no"?>
<!-- Created with Inkscape (http://www.inkscape.org/) -->

<svg
   xmlns:dc="http://purl.org/dc/elements/1.1/"
   xmlns:cc="http://creativecommons.org/ns#"
   xmlns:rdf="http://www.w3.org/1999/02/22-rdf-syntax-ns#"
   xmlns:svg="http://www.w3.org/2000/svg"
   xmlns="http://www.w3.org/2000/svg"
   xmlns:sodipodi="http://sodipodi.sourceforge.net/DTD/sodipodi-0.dtd"
   xmlns:inkscape="http://www.inkscape.org/namespaces/inkscape"
   width="40"
   height="40"
   id="svg3243"
   version="1.1"
   inkscape:version="0.48.5 r10040"
   sodipodi:docname="willa:hover.svg">
  <defs
     id="defs3245">
    <clipPath
       clipPathUnits="userSpaceOnUse"
       id="clipPath102">
      <path
         inkscape:connector-curvature="0"
         d="m 0,0 841.89,0 0,595.276 L 0,595.276 0,0 z"
         id="path104" />
    </clipPath>
    <clipPath
       clipPathUnits="userSpaceOnUse"
       id="clipPath4568">
      <path
         inkscape:connector-curvature="0"
         d="m 0,0 841.89,0 0,595.276 L 0,595.276 0,0 z"
         id="path4570" />
    </clipPath>
    <clipPath
       clipPathUnits="userSpaceOnUse"
       id="clipPath4536">
      <path
         inkscape:connector-curvature="0"
         d="m 0,0 841.89,0 0,595.276 L 0,595.276 0,0 z"
         id="path4538" />
    </clipPath>
  </defs>
  <sodipodi:namedview
     id="base"
     pagecolor="#ffffa9"
     bordercolor="#666666"
     borderopacity="1.0"
     inkscape:pageopacity="0"
     inkscape:pageshadow="2"
     inkscape:zoom="7.919596"
     inkscape:cx="-11.436191"
     inkscape:cy="15.339662"
     inkscape:document-units="px"
     inkscape:current-layer="layer1"
     showgrid="false"
     inkscape:window-width="1920"
     inkscape:window-height="1056"
     inkscape:window-x="0"
     inkscape:window-y="24"
     inkscape:window-maximized="1"
     showguides="true"
     inkscape:guide-bbox="true">
    <sodipodi:guide
       orientation="0,1"
       position="26.696429,35.535714"
       id="guide3344" />
    <sodipodi:guide
       orientation="0,1"
       position="29.553572,5"
       id="guide3346" />
    <sodipodi:guide
       orientation="1,0"
       position="5.555839,-4.9244937"
       id="guide3348" />
  </sodipodi:namedview>
  <metadata
     id="metadata3248">
    <rdf:RDF>
      <cc:Work
         rdf:about="">
        <dc:format>image/svg+xml</dc:format>
        <dc:type
           rdf:resource="http://purl.org/dc/dcmitype/StillImage" />
        <dc:title></dc:title>
      </cc:Work>
    </rdf:RDF>
  </metadata>
  <g
     inkscape:label="Layer 1"
     inkscape:groupmode="layer"
     id="layer1"
     transform="translate(0,-1012.3622)">
    <rect
       style="fill:#808080;fill-opacity:0.94117647;stroke:#ffffff;stroke-opacity:1"
       id="rect4260"
       width="79.044434"
       height="64.346458"
       x="-99.373749"
       y="1001.6525" />
    <g
       id="g66"
       transform="matrix(0.62944771,0,0,-0.62944771,33.901323,1026.0805)" />
    <g
       id="g4508"
       transform="matrix(0.47682687,0,0,-0.47682687,20.123853,1035.9954)">
      <path
         d="m 0,0 c -2.482,0 -4.372,-1.311 -4.615,-4.411 l -0.016,-9.3 9.301,0 0,9.3 C 4.67,-4.411 4.43,0 0,0 z m -16.886,-12.779 0,18.371 16.396,17.595 16.397,-17.595 0,-18.371 m 13.666,-1 -60.125,0 0,19.236 60.125,0 0,-19.236 z m -1.471,24.995 -13.233,14.273 -31.217,0 -12.733,-14.273"
         style="fill:none;stroke:#231f20;stroke-width:2;stroke-linecap:round;stroke-linejoin:round;stroke-miterlimit:10;stroke-opacity:1;stroke-dasharray:none"
         id="path4510"
         inkscape:connector-curvature="0" />
    </g>
  </g>
</svg>
