<?xml version="1.0" encoding="UTF-8" standalone="no"?>
<!-- Created with Inkscape (http://www.inkscape.org/) -->

<svg
   xmlns:dc="http://purl.org/dc/elements/1.1/"
   xmlns:cc="http://creativecommons.org/ns#"
   xmlns:rdf="http://www.w3.org/1999/02/22-rdf-syntax-ns#"
   xmlns:svg="http://www.w3.org/2000/svg"
   xmlns="http://www.w3.org/2000/svg"
   xmlns:sodipodi="http://sodipodi.sourceforge.net/DTD/sodipodi-0.dtd"
   xmlns:inkscape="http://www.inkscape.org/namespaces/inkscape"
   width="40"
   height="40"
   id="svg7869"
   version="1.1"
   inkscape:version="0.48.5 r10040"
   viewBox="0 0 40 40.000001"
   sodipodi:docname="doc_ico.svg">
  <defs
     id="defs7871" />
  <sodipodi:namedview
     id="base"
     pagecolor="#ffffff"
     bordercolor="#666666"
     borderopacity="1.0"
     inkscape:pageopacity="0.0"
     inkscape:pageshadow="2"
     inkscape:zoom="11.2"
     inkscape:cx="3.16598"
     inkscape:cy="24.051771"
     inkscape:document-units="px"
     inkscape:current-layer="layer1"
     showgrid="false"
     inkscape:window-width="1914"
     inkscape:window-height="864"
     inkscape:window-x="0"
     inkscape:window-y="24"
     inkscape:window-maximized="0" />
  <metadata
     id="metadata7874">
    <rdf:RDF>
      <cc:Work
         rdf:about="">
        <dc:format>image/svg+xml</dc:format>
        <dc:type
           rdf:resource="http://purl.org/dc/dcmitype/StillImage" />
        <dc:title></dc:title>
      </cc:Work>
    </rdf:RDF>
  </metadata>
  <g
     inkscape:label="Layer 1"
     inkscape:groupmode="layer"
     id="layer1"
     transform="translate(0,-1012.3622)">
    <path
       d="m 11.535534,1026.7747 3.1812,0 0,-3.1812 -3.1812,0 0,3.1812 z"
       style="fill:#373334;fill-opacity:1;fill-rule:nonzero;stroke:none"
       id="path4658"
       inkscape:connector-curvature="0" />
    <path
       d="m 11.535534,1033.6372 3.1812,0 0,-3.1812 -3.1812,0 0,3.1812 z"
       style="fill:#373334;fill-opacity:1;fill-rule:nonzero;stroke:none"
       id="path4662"
       inkscape:connector-curvature="0" />
    <path
       d="m 11.535534,1040.4997 3.1812,0 0,-3.1812 -3.1812,0 0,3.1812 z"
       style="fill:#373334;fill-opacity:1;fill-rule:nonzero;stroke:none"
       id="path4666"
       inkscape:connector-curvature="0" />
    <path
       d="m 14.9812,1026.7747 3.1813,0 0,-3.1812 -3.1813,0 0,3.1812 z"
       style="fill:#373334;fill-opacity:1;fill-rule:nonzero;stroke:none"
       id="path4674"
       inkscape:connector-curvature="0" />
    <path
       d="m 14.9812,1033.6372 3.1813,0 0,-3.1812 -3.1813,0 0,3.1812 z"
       style="fill:#373334;fill-opacity:1;fill-rule:nonzero;stroke:none"
       id="path4676"
       inkscape:connector-curvature="0" />
    <path
       d="m 14.9812,1040.4997 3.1813,0 0,-3.1812 -3.1813,0 0,3.1812 z"
       style="fill:#373334;fill-opacity:1;fill-rule:nonzero;stroke:none"
       id="path4678"
       inkscape:connector-curvature="0" />
    <path
       d="m 18.4725,1026.7747 3.1812,0 0,-3.1812 -3.1812,0 0,3.1812 z"
       style="fill:#373334;fill-opacity:1;fill-rule:nonzero;stroke:none"
       id="path4682"
       inkscape:connector-curvature="0" />
    <path
       d="m 18.4725,1033.6372 3.1812,0 0,-3.1812 -3.1812,0 0,3.1812 z"
       style="fill:#373334;fill-opacity:1;fill-rule:nonzero;stroke:none"
       id="path4684"
       inkscape:connector-curvature="0" />
    <path
       d="m 18.4725,1040.4997 3.1812,0 0,-3.1812 -3.1812,0 0,3.1812 z"
       style="fill:#373334;fill-opacity:1;fill-rule:nonzero;stroke:none"
       id="path4686"
       inkscape:connector-curvature="0" />
    <path
       d="m 21.9625,1026.7747 3.1812,0 0,-3.1812 -3.1812,0 0,3.1812 z"
       style="fill:#373334;fill-opacity:1;fill-rule:nonzero;stroke:none"
       id="path4690"
       inkscape:connector-curvature="0" />
    <path
       d="m 21.9625,1033.6372 3.1812,0 0,-3.1812 -3.1812,0 0,3.1812 z"
       style="fill:#373334;fill-opacity:1;fill-rule:nonzero;stroke:none"
       id="path4692"
       inkscape:connector-curvature="0" />
    <path
       d="m 21.9625,1040.4997 3.1812,0 0,-3.1812 -3.1812,0 0,3.1812 z"
       style="fill:#373334;fill-opacity:1;fill-rule:nonzero;stroke:none"
       id="path4694"
       inkscape:connector-curvature="0" />
    <path
       d="m 25.408166,1026.7747 3.1813,0 0,-3.1812 -3.1813,0 0,3.1812 z"
       style="fill:#373334;fill-opacity:1;fill-rule:nonzero;stroke:none"
       id="path4702"
       inkscape:connector-curvature="0" />
    <path
       d="m 25.408166,1033.6372 3.1813,0 0,-3.1812 -3.1813,0 0,3.1812 z"
       style="fill:#373334;fill-opacity:1;fill-rule:nonzero;stroke:none"
       id="path4706"
       inkscape:connector-curvature="0" />
    <path
       d="m 25.408166,1040.4997 3.1813,0 0,-3.1812 -3.1813,0 0,3.1812 z"
       style="fill:#373334;fill-opacity:1;fill-rule:nonzero;stroke:none"
       id="path4710"
       inkscape:connector-curvature="0" />
  </g>
</svg>
