<?xml version="1.0" encoding="UTF-8" standalone="no"?>
<!-- Created with Inkscape (http://www.inkscape.org/) -->

<svg
   xmlns:dc="http://purl.org/dc/elements/1.1/"
   xmlns:cc="http://creativecommons.org/ns#"
   xmlns:rdf="http://www.w3.org/1999/02/22-rdf-syntax-ns#"
   xmlns:svg="http://www.w3.org/2000/svg"
   xmlns="http://www.w3.org/2000/svg"
   xmlns:sodipodi="http://sodipodi.sourceforge.net/DTD/sodipodi-0.dtd"
   xmlns:inkscape="http://www.inkscape.org/namespaces/inkscape"
   width="16"
   height="16"
   id="svg11633"
   version="1.1"
   inkscape:version="0.48+devel r"
   viewBox="0 0 16 16"
   sodipodi:docname="color_mon_ico.svg">
  <defs
     id="defs11635" />
  <sodipodi:namedview
     id="base"
     pagecolor="#ffffff"
     bordercolor="#666666"
     borderopacity="1.0"
     inkscape:pageopacity="0.0"
     inkscape:pageshadow="2"
     inkscape:zoom="11.2"
     inkscape:cx="5.8308467"
     inkscape:cy="-5.3188228"
     inkscape:document-units="px"
     inkscape:current-layer="layer1"
     showgrid="false"
     inkscape:window-width="1914"
     inkscape:window-height="864"
     inkscape:window-x="0"
     inkscape:window-y="0"
     inkscape:window-maximized="0" />
  <metadata
     id="metadata11638">
    <rdf:RDF>
      <cc:Work
         rdf:about="">
        <dc:format>image/svg+xml</dc:format>
        <dc:type
           rdf:resource="http://purl.org/dc/dcmitype/StillImage" />
        <dc:title></dc:title>
      </cc:Work>
    </rdf:RDF>
  </metadata>
  <g
     inkscape:label="Layer 1"
     inkscape:groupmode="layer"
     id="layer1"
     transform="translate(0,-1036.3622)">
    <path
       d="m 2.3906251,1038.6228 1.5125,0 0,-1.5125 -1.5125,0 0,1.5125 z"
       style="fill:#c4122d;fill-opacity:1;fill-rule:nonzero;stroke:none"
       id="path10052"
       inkscape:connector-curvature="0" />
    <path
       d="m 2.3906251,1040.2541 1.5125,0 0,-1.5125 -1.5125,0 0,1.5125 z"
       style="fill:#c4122d;fill-opacity:1;fill-rule:nonzero;stroke:none"
       id="path10054"
       inkscape:connector-curvature="0" />
    <path
       d="m 2.3906251,1041.8853 1.5125,0 0,-1.5125 -1.5125,0 0,1.5125 z"
       style="fill:#c4122d;fill-opacity:1;fill-rule:nonzero;stroke:none"
       id="path10056"
       inkscape:connector-curvature="0" />
    <path
       d="m 2.3906251,1043.5166 1.5125,0 0,-1.5125 -1.5125,0 0,1.5125 z"
       style="fill:#c4122d;fill-opacity:1;fill-rule:nonzero;stroke:none"
       id="path10058"
       inkscape:connector-curvature="0" />
    <path
       d="m 2.3906251,1045.1478 1.5125,0 0,-1.5125 -1.5125,0 0,1.5125 z"
       style="fill:#c4122d;fill-opacity:1;fill-rule:nonzero;stroke:none"
       id="path10060"
       inkscape:connector-curvature="0" />
    <path
       d="m 2.3906251,1046.7791 1.5125,0 0,-1.5125 -1.5125,0 0,1.5125 z"
       style="fill:#c4122d;fill-opacity:1;fill-rule:nonzero;stroke:none"
       id="path10062"
       inkscape:connector-curvature="0" />
    <path
       d="m 2.3906251,1048.4091 1.5125,0 0,-1.5125 -1.5125,0 0,1.5125 z"
       style="fill:#c4122d;fill-opacity:1;fill-rule:nonzero;stroke:none"
       id="path10064"
       inkscape:connector-curvature="0" />
    <path
       d="m 2.3906251,1050.0403 1.5125,0 0,-1.5125 -1.5125,0 0,1.5125 z"
       style="fill:#c4122d;fill-opacity:1;fill-rule:nonzero;stroke:none"
       id="path10066"
       inkscape:connector-curvature="0" />
    <path
       d="m 4.0506251,1040.2541 1.5125,0 0,-1.5125 -1.5125,0 0,1.5125 z"
       style="fill:#c4122d;fill-opacity:1;fill-rule:nonzero;stroke:none"
       id="path10068"
       inkscape:connector-curvature="0" />
    <path
       d="m 4.0506251,1046.7791 1.5125,0 0,-1.5125 -1.5125,0 0,1.5125 z"
       style="fill:#c4122d;fill-opacity:1;fill-rule:nonzero;stroke:none"
       id="path10070"
       inkscape:connector-curvature="0" />
    <path
       d="m 4.0506251,1048.4091 1.5125,0 0,-1.5125 -1.5125,0 0,1.5125 z"
       style="fill:#c4122d;fill-opacity:1;fill-rule:nonzero;stroke:none"
       id="path10072"
       inkscape:connector-curvature="0" />
    <path
       d="m 4.0506251,1050.0403 1.5125,0 0,-1.5125 -1.5125,0 0,1.5125 z"
       style="fill:#c4122d;fill-opacity:1;fill-rule:nonzero;stroke:none"
       id="path10074"
       inkscape:connector-curvature="0" />
    <path
       d="m 5.7093751,1038.6228 1.5125,0 0,-1.5125 -1.5125,0 0,1.5125 z"
       style="fill:#c4122d;fill-opacity:1;fill-rule:nonzero;stroke:none"
       id="path10076"
       inkscape:connector-curvature="0" />
    <path
       d="m 5.7093751,1040.2541 1.5125,0 0,-1.5125 -1.5125,0 0,1.5125 z"
       style="fill:#c4122d;fill-opacity:1;fill-rule:nonzero;stroke:none"
       id="path10078"
       inkscape:connector-curvature="0" />
    <path
       d="m 5.7093751,1041.8853 1.5125,0 0,-1.5125 -1.5125,0 0,1.5125 z"
       style="fill:#c4122d;fill-opacity:1;fill-rule:nonzero;stroke:none"
       id="path10080"
       inkscape:connector-curvature="0" />
    <path
       d="m 5.7093751,1043.5166 1.5125,0 0,-1.5125 -1.5125,0 0,1.5125 z"
       style="fill:#c4122d;fill-opacity:1;fill-rule:nonzero;stroke:none"
       id="path10082"
       inkscape:connector-curvature="0" />
    <path
       d="m 5.7093751,1045.1478 1.5125,0 0,-1.5125 -1.5125,0 0,1.5125 z"
       style="fill:#c4122d;fill-opacity:1;fill-rule:nonzero;stroke:none"
       id="path10084"
       inkscape:connector-curvature="0" />
    <path
       d="m 5.7093751,1046.7791 1.5125,0 0,-1.5125 -1.5125,0 0,1.5125 z"
       style="fill:#c4122d;fill-opacity:1;fill-rule:nonzero;stroke:none"
       id="path10086"
       inkscape:connector-curvature="0" />
    <path
       d="m 5.7093751,1051.6716 1.5125,0 0,-1.5125 -1.5125,0 0,1.5125 z"
       style="fill:#c4122d;fill-opacity:1;fill-rule:nonzero;stroke:none"
       id="path10088"
       inkscape:connector-curvature="0" />
    <path
       d="m 7.3693751,1040.2541 1.5125,0 0,-1.5125 -1.5125,0 0,1.5125 z"
       style="fill:#c4122d;fill-opacity:1;fill-rule:nonzero;stroke:none"
       id="path10090"
       inkscape:connector-curvature="0" />
    <path
       d="m 7.3693751,1046.7791 1.5125,0 0,-1.5125 -1.5125,0 0,1.5125 z"
       style="fill:#c4122d;fill-opacity:1;fill-rule:nonzero;stroke:none"
       id="path10092"
       inkscape:connector-curvature="0" />
    <path
       d="m 7.3693751,1051.6716 1.5125,0 0,-1.5125 -1.5125,0 0,1.5125 z"
       style="fill:#c4122d;fill-opacity:1;fill-rule:nonzero;stroke:none"
       id="path10094"
       inkscape:connector-curvature="0" />
    <path
       d="m 9.0281251,1038.6228 1.5124999,0 0,-1.5125 -1.5124999,0 0,1.5125 z"
       style="fill:#c4122d;fill-opacity:1;fill-rule:nonzero;stroke:none"
       id="path10096"
       inkscape:connector-curvature="0" />
    <path
       d="m 9.0281251,1040.2541 1.5124999,0 0,-1.5125 -1.5124999,0 0,1.5125 z"
       style="fill:#c4122d;fill-opacity:1;fill-rule:nonzero;stroke:none"
       id="path10098"
       inkscape:connector-curvature="0" />
    <path
       d="m 9.0281251,1041.8853 1.5124999,0 0,-1.5125 -1.5124999,0 0,1.5125 z"
       style="fill:#c4122d;fill-opacity:1;fill-rule:nonzero;stroke:none"
       id="path10100"
       inkscape:connector-curvature="0" />
    <path
       d="m 9.0281251,1043.5166 1.5124999,0 0,-1.5125 -1.5124999,0 0,1.5125 z"
       style="fill:#c4122d;fill-opacity:1;fill-rule:nonzero;stroke:none"
       id="path10102"
       inkscape:connector-curvature="0" />
    <path
       d="m 9.0281251,1045.1478 1.5124999,0 0,-1.5125 -1.5124999,0 0,1.5125 z"
       style="fill:#c4122d;fill-opacity:1;fill-rule:nonzero;stroke:none"
       id="path10104"
       inkscape:connector-curvature="0" />
    <path
       d="m 9.0281251,1046.7791 1.5124999,0 0,-1.5125 -1.5124999,0 0,1.5125 z"
       style="fill:#c4122d;fill-opacity:1;fill-rule:nonzero;stroke:none"
       id="path10106"
       inkscape:connector-curvature="0" />
    <path
       d="m 9.0281251,1051.6716 1.5124999,0 0,-1.5125 -1.5124999,0 0,1.5125 z"
       style="fill:#c4122d;fill-opacity:1;fill-rule:nonzero;stroke:none"
       id="path10108"
       inkscape:connector-curvature="0" />
    <path
       d="m 10.688125,1040.2541 1.5125,0 0,-1.5125 -1.5125,0 0,1.5125 z"
       style="fill:#c4122d;fill-opacity:1;fill-rule:nonzero;stroke:none"
       id="path10110"
       inkscape:connector-curvature="0" />
    <path
       d="m 10.688125,1046.7791 1.5125,0 0,-1.5125 -1.5125,0 0,1.5125 z"
       style="fill:#c4122d;fill-opacity:1;fill-rule:nonzero;stroke:none"
       id="path10112"
       inkscape:connector-curvature="0" />
    <path
       d="m 10.688125,1048.4091 1.5125,0 0,-1.5125 -1.5125,0 0,1.5125 z"
       style="fill:#c4122d;fill-opacity:1;fill-rule:nonzero;stroke:none"
       id="path10114"
       inkscape:connector-curvature="0" />
    <path
       d="m 10.688125,1050.0403 1.5125,0 0,-1.5125 -1.5125,0 0,1.5125 z"
       style="fill:#c4122d;fill-opacity:1;fill-rule:nonzero;stroke:none"
       id="path10116"
       inkscape:connector-curvature="0" />
    <path
       d="m 12.346875,1038.6228 1.5125,0 0,-1.5125 -1.5125,0 0,1.5125 z"
       style="fill:#c4122d;fill-opacity:1;fill-rule:nonzero;stroke:none"
       id="path10118"
       inkscape:connector-curvature="0" />
    <path
       d="m 12.346875,1040.2541 1.5125,0 0,-1.5125 -1.5125,0 0,1.5125 z"
       style="fill:#c4122d;fill-opacity:1;fill-rule:nonzero;stroke:none"
       id="path10120"
       inkscape:connector-curvature="0" />
    <path
       d="m 12.346875,1041.8853 1.5125,0 0,-1.5125 -1.5125,0 0,1.5125 z"
       style="fill:#c4122d;fill-opacity:1;fill-rule:nonzero;stroke:none"
       id="path10122"
       inkscape:connector-curvature="0" />
    <path
       d="m 12.346875,1043.5166 1.5125,0 0,-1.5125 -1.5125,0 0,1.5125 z"
       style="fill:#c4122d;fill-opacity:1;fill-rule:nonzero;stroke:none"
       id="path10124"
       inkscape:connector-curvature="0" />
    <path
       d="m 12.346875,1045.1478 1.5125,0 0,-1.5125 -1.5125,0 0,1.5125 z"
       style="fill:#c4122d;fill-opacity:1;fill-rule:nonzero;stroke:none"
       id="path10126"
       inkscape:connector-curvature="0" />
    <path
       d="m 12.346875,1046.7791 1.5125,0 0,-1.5125 -1.5125,0 0,1.5125 z"
       style="fill:#c4122d;fill-opacity:1;fill-rule:nonzero;stroke:none"
       id="path10128"
       inkscape:connector-curvature="0" />
    <path
       d="m 12.346875,1048.4091 1.5125,0 0,-1.5125 -1.5125,0 0,1.5125 z"
       style="fill:#c4122d;fill-opacity:1;fill-rule:nonzero;stroke:none"
       id="path10130"
       inkscape:connector-curvature="0" />
    <path
       d="m 12.346875,1050.0403 1.5125,0 0,-1.5125 -1.5125,0 0,1.5125 z"
       style="fill:#c4122d;fill-opacity:1;fill-rule:nonzero;stroke:none"
       id="path10132"
       inkscape:connector-curvature="0" />
    <path
       d="m 2.3906251,1051.6716 1.5125,0 0,-1.5125 -1.5125,0 0,1.5125 z"
       style="fill:#c4122d;fill-opacity:1;fill-rule:nonzero;stroke:none"
       id="path10134"
       inkscape:connector-curvature="0" />
    <path
       d="m 4.0506251,1051.6716 1.5125,0 0,-1.5125 -1.5125,0 0,1.5125 z"
       style="fill:#c4122d;fill-opacity:1;fill-rule:nonzero;stroke:none"
       id="path10136"
       inkscape:connector-curvature="0" />
    <path
       d="m 10.688125,1051.6716 1.5125,0 0,-1.5125 -1.5125,0 0,1.5125 z"
       style="fill:#c4122d;fill-opacity:1;fill-rule:nonzero;stroke:none"
       id="path10138"
       inkscape:connector-curvature="0" />
    <path
       d="m 12.346875,1051.6716 1.5125,0 0,-1.5125 -1.5125,0 0,1.5125 z"
       style="fill:#c4122d;fill-opacity:1;fill-rule:nonzero;stroke:none"
       id="path10140"
       inkscape:connector-curvature="0" />
  </g>
</svg>
