<?xml version="1.0" encoding="UTF-8" standalone="no"?>
<!-- Created with Inkscape (http://www.inkscape.org/) -->

<svg
   xmlns:dc="http://purl.org/dc/elements/1.1/"
   xmlns:cc="http://creativecommons.org/ns#"
   xmlns:rdf="http://www.w3.org/1999/02/22-rdf-syntax-ns#"
   xmlns:svg="http://www.w3.org/2000/svg"
   xmlns="http://www.w3.org/2000/svg"
   xmlns:sodipodi="http://sodipodi.sourceforge.net/DTD/sodipodi-0.dtd"
   xmlns:inkscape="http://www.inkscape.org/namespaces/inkscape"
   width="16"
   height="16"
   id="svg11633"
   version="1.1"
   inkscape:version="0.48+devel r"
   viewBox="0 0 16 16"
   sodipodi:docname="color_doc_ico.svg">
  <defs
     id="defs11635" />
  <sodipodi:namedview
     id="base"
     pagecolor="#ffffff"
     bordercolor="#666666"
     borderopacity="1.0"
     inkscape:pageopacity="0.0"
     inkscape:pageshadow="2"
     inkscape:zoom="11.2"
     inkscape:cx="5.8308467"
     inkscape:cy="6.988952"
     inkscape:document-units="px"
     inkscape:current-layer="layer1"
     showgrid="false"
     inkscape:window-width="1914"
     inkscape:window-height="864"
     inkscape:window-x="0"
     inkscape:window-y="0"
     inkscape:window-maximized="0" />
  <metadata
     id="metadata11638">
    <rdf:RDF>
      <cc:Work
         rdf:about="">
        <dc:format>image/svg+xml</dc:format>
        <dc:type
           rdf:resource="http://purl.org/dc/dcmitype/StillImage" />
        <dc:title></dc:title>
      </cc:Work>
    </rdf:RDF>
  </metadata>
  <g
     inkscape:label="Layer 1"
     inkscape:groupmode="layer"
     id="layer1"
     transform="translate(0,-1036.3622)">
    <g
       id="g12259"
       transform="translate(-77.618944,606.29811)">
      <path
         inkscape:connector-curvature="0"
         id="path10702"
         style="fill:#2d887d;fill-opacity:1;fill-rule:nonzero;stroke:none"
         d="m 79.979905,432.30835 1.5125,0 0,-1.5125 -1.5125,0 0,1.5125 z" />
      <path
         inkscape:connector-curvature="0"
         id="path10704"
         style="fill:#2d887d;fill-opacity:1;fill-rule:nonzero;stroke:none"
         d="m 79.979905,433.9396 1.5125,0 0,-1.5125 -1.5125,0 0,1.5125 z" />
      <path
         inkscape:connector-curvature="0"
         id="path10706"
         style="fill:#2d887d;fill-opacity:1;fill-rule:nonzero;stroke:none"
         d="m 79.979905,435.57085 1.5125,0 0,-1.5125 -1.5125,0 0,1.5125 z" />
      <path
         inkscape:connector-curvature="0"
         id="path10708"
         style="fill:#2d887d;fill-opacity:1;fill-rule:nonzero;stroke:none"
         d="m 79.979905,437.20085 1.5125,0 0,-1.5125 -1.5125,0 0,1.5125 z" />
      <path
         inkscape:connector-curvature="0"
         id="path10710"
         style="fill:#2d887d;fill-opacity:1;fill-rule:nonzero;stroke:none"
         d="m 79.979905,438.8321 1.5125,0 0,-1.5125 -1.5125,0 0,1.5125 z" />
      <path
         inkscape:connector-curvature="0"
         id="path10712"
         style="fill:#2d887d;fill-opacity:1;fill-rule:nonzero;stroke:none"
         d="m 79.979905,440.46335 1.5125,0 0,-1.5125 -1.5125,0 0,1.5125 z" />
      <path
         inkscape:connector-curvature="0"
         id="path10714"
         style="fill:#2d887d;fill-opacity:1;fill-rule:nonzero;stroke:none"
         d="m 79.979905,442.0946 1.5125,0 0,-1.5125 -1.5125,0 0,1.5125 z" />
      <path
         inkscape:connector-curvature="0"
         id="path10716"
         style="fill:#2d887d;fill-opacity:1;fill-rule:nonzero;stroke:none"
         d="m 79.979905,443.72585 1.5125,0 0,-1.5125 -1.5125,0 0,1.5125 z" />
      <path
         inkscape:connector-curvature="0"
         id="path10718"
         style="fill:#2d887d;fill-opacity:1;fill-rule:nonzero;stroke:none"
         d="m 81.639905,432.30835 1.5125,0 0,-1.5125 -1.5125,0 0,1.5125 z" />
      <path
         inkscape:connector-curvature="0"
         id="path10720"
         style="fill:#2d887d;fill-opacity:1;fill-rule:nonzero;stroke:none"
         d="m 83.298655,432.30835 1.5125,0 0,-1.5125 -1.5125,0 0,1.5125 z" />
      <path
         inkscape:connector-curvature="0"
         id="path10722"
         style="fill:#2d887d;fill-opacity:1;fill-rule:nonzero;stroke:none"
         d="m 83.298655,435.57085 1.5125,0 0,-1.5125 -1.5125,0 0,1.5125 z" />
      <path
         inkscape:connector-curvature="0"
         id="path10724"
         style="fill:#2d887d;fill-opacity:1;fill-rule:nonzero;stroke:none"
         d="m 83.298655,438.8321 1.5125,0 0,-1.5125 -1.5125,0 0,1.5125 z" />
      <path
         inkscape:connector-curvature="0"
         id="path10726"
         style="fill:#2d887d;fill-opacity:1;fill-rule:nonzero;stroke:none"
         d="m 83.298655,442.0946 1.5125,0 0,-1.5125 -1.5125,0 0,1.5125 z" />
      <path
         inkscape:connector-curvature="0"
         id="path10728"
         style="fill:#2d887d;fill-opacity:1;fill-rule:nonzero;stroke:none"
         d="m 84.958655,432.30835 1.5125,0 0,-1.5125 -1.5125,0 0,1.5125 z" />
      <path
         inkscape:connector-curvature="0"
         id="path10730"
         style="fill:#2d887d;fill-opacity:1;fill-rule:nonzero;stroke:none"
         d="m 84.958655,435.57085 1.5125,0 0,-1.5125 -1.5125,0 0,1.5125 z" />
      <path
         inkscape:connector-curvature="0"
         id="path10732"
         style="fill:#2d887d;fill-opacity:1;fill-rule:nonzero;stroke:none"
         d="m 84.958655,438.8321 1.5125,0 0,-1.5125 -1.5125,0 0,1.5125 z" />
      <path
         inkscape:connector-curvature="0"
         id="path10734"
         style="fill:#2d887d;fill-opacity:1;fill-rule:nonzero;stroke:none"
         d="m 84.958655,442.0946 1.5125,0 0,-1.5125 -1.5125,0 0,1.5125 z" />
      <path
         inkscape:connector-curvature="0"
         id="path10736"
         style="fill:#2d887d;fill-opacity:1;fill-rule:nonzero;stroke:none"
         d="m 86.617405,432.30835 1.5125,0 0,-1.5125 -1.5125,0 0,1.5125 z" />
      <path
         inkscape:connector-curvature="0"
         id="path10738"
         style="fill:#2d887d;fill-opacity:1;fill-rule:nonzero;stroke:none"
         d="m 86.617405,435.57085 1.5125,0 0,-1.5125 -1.5125,0 0,1.5125 z" />
      <path
         inkscape:connector-curvature="0"
         id="path10740"
         style="fill:#2d887d;fill-opacity:1;fill-rule:nonzero;stroke:none"
         d="m 86.617405,438.8321 1.5125,0 0,-1.5125 -1.5125,0 0,1.5125 z" />
      <path
         inkscape:connector-curvature="0"
         id="path10742"
         style="fill:#2d887d;fill-opacity:1;fill-rule:nonzero;stroke:none"
         d="m 86.617405,442.0946 1.5125,0 0,-1.5125 -1.5125,0 0,1.5125 z" />
      <path
         inkscape:connector-curvature="0"
         id="path10744"
         style="fill:#2d887d;fill-opacity:1;fill-rule:nonzero;stroke:none"
         d="m 88.277405,432.30835 1.5125,0 0,-1.5125 -1.5125,0 0,1.5125 z" />
      <path
         inkscape:connector-curvature="0"
         id="path10746"
         style="fill:#2d887d;fill-opacity:1;fill-rule:nonzero;stroke:none"
         d="m 89.936155,432.30835 1.5125,0 0,-1.5125 -1.5125,0 0,1.5125 z" />
      <path
         inkscape:connector-curvature="0"
         id="path10748"
         style="fill:#2d887d;fill-opacity:1;fill-rule:nonzero;stroke:none"
         d="m 89.936155,433.9396 1.5125,0 0,-1.5125 -1.5125,0 0,1.5125 z" />
      <path
         inkscape:connector-curvature="0"
         id="path10750"
         style="fill:#2d887d;fill-opacity:1;fill-rule:nonzero;stroke:none"
         d="m 89.936155,435.57085 1.5125,0 0,-1.5125 -1.5125,0 0,1.5125 z" />
      <path
         inkscape:connector-curvature="0"
         id="path10752"
         style="fill:#2d887d;fill-opacity:1;fill-rule:nonzero;stroke:none"
         d="m 89.936155,437.20085 1.5125,0 0,-1.5125 -1.5125,0 0,1.5125 z" />
      <path
         inkscape:connector-curvature="0"
         id="path10754"
         style="fill:#2d887d;fill-opacity:1;fill-rule:nonzero;stroke:none"
         d="m 89.936155,438.8321 1.5125,0 0,-1.5125 -1.5125,0 0,1.5125 z" />
      <path
         inkscape:connector-curvature="0"
         id="path10756"
         style="fill:#2d887d;fill-opacity:1;fill-rule:nonzero;stroke:none"
         d="m 89.936155,440.46335 1.5125,0 0,-1.5125 -1.5125,0 0,1.5125 z" />
      <path
         inkscape:connector-curvature="0"
         id="path10758"
         style="fill:#2d887d;fill-opacity:1;fill-rule:nonzero;stroke:none"
         d="m 89.936155,442.0946 1.5125,0 0,-1.5125 -1.5125,0 0,1.5125 z" />
      <path
         inkscape:connector-curvature="0"
         id="path10760"
         style="fill:#2d887d;fill-opacity:1;fill-rule:nonzero;stroke:none"
         d="m 89.936155,443.72585 1.5125,0 0,-1.5125 -1.5125,0 0,1.5125 z" />
      <path
         inkscape:connector-curvature="0"
         id="path10762"
         style="fill:#2d887d;fill-opacity:1;fill-rule:nonzero;stroke:none"
         d="m 79.979905,445.3571 1.5125,0 0,-1.5125 -1.5125,0 0,1.5125 z" />
      <path
         inkscape:connector-curvature="0"
         id="path10764"
         style="fill:#2d887d;fill-opacity:1;fill-rule:nonzero;stroke:none"
         d="m 89.936155,445.3571 1.5125,0 0,-1.5125 -1.5125,0 0,1.5125 z" />
      <path
         inkscape:connector-curvature="0"
         id="path10766"
         style="fill:#2d887d;fill-opacity:1;fill-rule:nonzero;stroke:none"
         d="m 81.639905,445.3571 1.5125,0 0,-1.5125 -1.5125,0 0,1.5125 z" />
      <path
         inkscape:connector-curvature="0"
         id="path10768"
         style="fill:#2d887d;fill-opacity:1;fill-rule:nonzero;stroke:none"
         d="m 83.298655,445.3571 1.5125,0 0,-1.5125 -1.5125,0 0,1.5125 z" />
      <path
         inkscape:connector-curvature="0"
         id="path10770"
         style="fill:#2d887d;fill-opacity:1;fill-rule:nonzero;stroke:none"
         d="m 84.958655,445.3571 1.5125,0 0,-1.5125 -1.5125,0 0,1.5125 z" />
      <path
         inkscape:connector-curvature="0"
         id="path10772"
         style="fill:#2d887d;fill-opacity:1;fill-rule:nonzero;stroke:none"
         d="m 86.617405,445.3571 1.5125,0 0,-1.5125 -1.5125,0 0,1.5125 z" />
      <path
         inkscape:connector-curvature="0"
         id="path10774"
         style="fill:#2d887d;fill-opacity:1;fill-rule:nonzero;stroke:none"
         d="m 88.277405,445.3571 1.5125,0 0,-1.5125 -1.5125,0 0,1.5125 z" />
    </g>
  </g>
</svg>
