<?xml version="1.0" encoding="UTF-8" standalone="no"?>
<!-- Created with Inkscape (http://www.inkscape.org/) -->

<svg
   xmlns:dc="http://purl.org/dc/elements/1.1/"
   xmlns:cc="http://creativecommons.org/ns#"
   xmlns:rdf="http://www.w3.org/1999/02/22-rdf-syntax-ns#"
   xmlns:svg="http://www.w3.org/2000/svg"
   xmlns="http://www.w3.org/2000/svg"
   xmlns:sodipodi="http://sodipodi.sourceforge.net/DTD/sodipodi-0.dtd"
   xmlns:inkscape="http://www.inkscape.org/namespaces/inkscape"
   width="40"
   height="40"
   id="svg7869"
   version="1.1"
   inkscape:version="0.48+devel r"
   viewBox="0 0 40 40.000001"
   sodipodi:docname="doc_ico.svg">
  <defs
     id="defs7871" />
  <sodipodi:namedview
     id="base"
     pagecolor="#ffffff"
     bordercolor="#666666"
     borderopacity="1.0"
     inkscape:pageopacity="0.0"
     inkscape:pageshadow="2"
     inkscape:zoom="3.959798"
     inkscape:cx="-31.752006"
     inkscape:cy="-12.241303"
     inkscape:document-units="px"
     inkscape:current-layer="layer1"
     showgrid="false"
     inkscape:window-width="1914"
     inkscape:window-height="864"
     inkscape:window-x="0"
     inkscape:window-y="0"
     inkscape:window-maximized="0" />
  <metadata
     id="metadata7874">
    <rdf:RDF>
      <cc:Work
         rdf:about="">
        <dc:format>image/svg+xml</dc:format>
        <dc:type
           rdf:resource="http://purl.org/dc/dcmitype/StillImage" />
        <dc:title></dc:title>
      </cc:Work>
    </rdf:RDF>
  </metadata>
  <g
     inkscape:label="Layer 1"
     inkscape:groupmode="layer"
     id="layer1"
     transform="translate(0,-1012.3622)">
    <g
       id="g8495"
       transform="translate(1325.7768,816.82725)">
      <path
         inkscape:connector-curvature="0"
         id="path4654"
         style="fill:#373334;fill-opacity:1;fill-rule:nonzero;stroke:none"
         d="m -1317.7768,203.08495 3.1812,0 0,-3.18125 -3.1812,0 0,3.18125 z" />
      <path
         inkscape:connector-curvature="0"
         id="path4656"
         style="fill:#373334;fill-opacity:1;fill-rule:nonzero;stroke:none"
         d="m -1317.7768,206.5162 3.1812,0 0,-3.18125 -3.1812,0 0,3.18125 z" />
      <path
         inkscape:connector-curvature="0"
         id="path4658"
         style="fill:#373334;fill-opacity:1;fill-rule:nonzero;stroke:none"
         d="m -1317.7768,209.94745 3.1812,0 0,-3.18125 -3.1812,0 0,3.18125 z" />
      <path
         inkscape:connector-curvature="0"
         id="path4660"
         style="fill:#373334;fill-opacity:1;fill-rule:nonzero;stroke:none"
         d="m -1317.7768,213.3787 3.1812,0 0,-3.18125 -3.1812,0 0,3.18125 z" />
      <path
         inkscape:connector-curvature="0"
         id="path4662"
         style="fill:#373334;fill-opacity:1;fill-rule:nonzero;stroke:none"
         d="m -1317.7768,216.80995 3.1812,0 0,-3.18125 -3.1812,0 0,3.18125 z" />
      <path
         inkscape:connector-curvature="0"
         id="path4664"
         style="fill:#373334;fill-opacity:1;fill-rule:nonzero;stroke:none"
         d="m -1317.7768,220.2412 3.1812,0 0,-3.18125 -3.1812,0 0,3.18125 z" />
      <path
         inkscape:connector-curvature="0"
         id="path4666"
         style="fill:#373334;fill-opacity:1;fill-rule:nonzero;stroke:none"
         d="m -1317.7768,223.67245 3.1812,0 0,-3.18125 -3.1812,0 0,3.18125 z" />
      <path
         inkscape:connector-curvature="0"
         id="path4668"
         style="fill:#373334;fill-opacity:1;fill-rule:nonzero;stroke:none"
         d="m -1317.7768,227.1037 3.1812,0 0,-3.18125 -3.1812,0 0,3.18125 z" />
      <path
         inkscape:connector-curvature="0"
         id="path4670"
         style="fill:#373334;fill-opacity:1;fill-rule:nonzero;stroke:none"
         d="m -1314.2868,203.08495 3.1812,0 0,-3.18125 -3.1812,0 0,3.18125 z" />
      <path
         inkscape:connector-curvature="0"
         id="path4672"
         style="fill:#373334;fill-opacity:1;fill-rule:nonzero;stroke:none"
         d="m -1310.7956,203.08495 3.1813,0 0,-3.18125 -3.1813,0 0,3.18125 z" />
      <path
         inkscape:connector-curvature="0"
         id="path4674"
         style="fill:#373334;fill-opacity:1;fill-rule:nonzero;stroke:none"
         d="m -1310.7956,209.94745 3.1813,0 0,-3.18125 -3.1813,0 0,3.18125 z" />
      <path
         inkscape:connector-curvature="0"
         id="path4676"
         style="fill:#373334;fill-opacity:1;fill-rule:nonzero;stroke:none"
         d="m -1310.7956,216.80995 3.1813,0 0,-3.18125 -3.1813,0 0,3.18125 z" />
      <path
         inkscape:connector-curvature="0"
         id="path4678"
         style="fill:#373334;fill-opacity:1;fill-rule:nonzero;stroke:none"
         d="m -1310.7956,223.67245 3.1813,0 0,-3.18125 -3.1813,0 0,3.18125 z" />
      <path
         inkscape:connector-curvature="0"
         id="path4680"
         style="fill:#373334;fill-opacity:1;fill-rule:nonzero;stroke:none"
         d="m -1307.3043,203.08495 3.1812,0 0,-3.18125 -3.1812,0 0,3.18125 z" />
      <path
         inkscape:connector-curvature="0"
         id="path4682"
         style="fill:#373334;fill-opacity:1;fill-rule:nonzero;stroke:none"
         d="m -1307.3043,209.94745 3.1812,0 0,-3.18125 -3.1812,0 0,3.18125 z" />
      <path
         inkscape:connector-curvature="0"
         id="path4684"
         style="fill:#373334;fill-opacity:1;fill-rule:nonzero;stroke:none"
         d="m -1307.3043,216.80995 3.1812,0 0,-3.18125 -3.1812,0 0,3.18125 z" />
      <path
         inkscape:connector-curvature="0"
         id="path4686"
         style="fill:#373334;fill-opacity:1;fill-rule:nonzero;stroke:none"
         d="m -1307.3043,223.67245 3.1812,0 0,-3.18125 -3.1812,0 0,3.18125 z" />
      <path
         inkscape:connector-curvature="0"
         id="path4688"
         style="fill:#373334;fill-opacity:1;fill-rule:nonzero;stroke:none"
         d="m -1303.8143,203.08495 3.1812,0 0,-3.18125 -3.1812,0 0,3.18125 z" />
      <path
         inkscape:connector-curvature="0"
         id="path4690"
         style="fill:#373334;fill-opacity:1;fill-rule:nonzero;stroke:none"
         d="m -1303.8143,209.94745 3.1812,0 0,-3.18125 -3.1812,0 0,3.18125 z" />
      <path
         inkscape:connector-curvature="0"
         id="path4692"
         style="fill:#373334;fill-opacity:1;fill-rule:nonzero;stroke:none"
         d="m -1303.8143,216.80995 3.1812,0 0,-3.18125 -3.1812,0 0,3.18125 z" />
      <path
         inkscape:connector-curvature="0"
         id="path4694"
         style="fill:#373334;fill-opacity:1;fill-rule:nonzero;stroke:none"
         d="m -1303.8143,223.67245 3.1812,0 0,-3.18125 -3.1812,0 0,3.18125 z" />
      <path
         inkscape:connector-curvature="0"
         id="path4696"
         style="fill:#373334;fill-opacity:1;fill-rule:nonzero;stroke:none"
         d="m -1300.3231,203.08495 3.1813,0 0,-3.18125 -3.1813,0 0,3.18125 z" />
      <path
         inkscape:connector-curvature="0"
         id="path4698"
         style="fill:#373334;fill-opacity:1;fill-rule:nonzero;stroke:none"
         d="m -1296.8331,203.08495 3.1813,0 0,-3.18125 -3.1813,0 0,3.18125 z" />
      <path
         inkscape:connector-curvature="0"
         id="path4700"
         style="fill:#373334;fill-opacity:1;fill-rule:nonzero;stroke:none"
         d="m -1296.8331,206.5162 3.1813,0 0,-3.18125 -3.1813,0 0,3.18125 z" />
      <path
         inkscape:connector-curvature="0"
         id="path4702"
         style="fill:#373334;fill-opacity:1;fill-rule:nonzero;stroke:none"
         d="m -1296.8331,209.94745 3.1813,0 0,-3.18125 -3.1813,0 0,3.18125 z" />
      <path
         inkscape:connector-curvature="0"
         id="path4704"
         style="fill:#373334;fill-opacity:1;fill-rule:nonzero;stroke:none"
         d="m -1296.8331,213.3787 3.1813,0 0,-3.18125 -3.1813,0 0,3.18125 z" />
      <path
         inkscape:connector-curvature="0"
         id="path4706"
         style="fill:#373334;fill-opacity:1;fill-rule:nonzero;stroke:none"
         d="m -1296.8331,216.80995 3.1813,0 0,-3.18125 -3.1813,0 0,3.18125 z" />
      <path
         inkscape:connector-curvature="0"
         id="path4708"
         style="fill:#373334;fill-opacity:1;fill-rule:nonzero;stroke:none"
         d="m -1296.8331,220.2412 3.1813,0 0,-3.18125 -3.1813,0 0,3.18125 z" />
      <path
         inkscape:connector-curvature="0"
         id="path4710"
         style="fill:#373334;fill-opacity:1;fill-rule:nonzero;stroke:none"
         d="m -1296.8331,223.67245 3.1813,0 0,-3.18125 -3.1813,0 0,3.18125 z" />
      <path
         inkscape:connector-curvature="0"
         id="path4712"
         style="fill:#373334;fill-opacity:1;fill-rule:nonzero;stroke:none"
         d="m -1296.8331,227.1037 3.1813,0 0,-3.18125 -3.1813,0 0,3.18125 z" />
      <path
         inkscape:connector-curvature="0"
         id="path4714"
         style="fill:#373334;fill-opacity:1;fill-rule:nonzero;stroke:none"
         d="m -1317.7768,230.53495 3.1812,0 0,-3.18125 -3.1812,0 0,3.18125 z" />
      <path
         inkscape:connector-curvature="0"
         id="path4716"
         style="fill:#373334;fill-opacity:1;fill-rule:nonzero;stroke:none"
         d="m -1296.8331,230.53495 3.1813,0 0,-3.18125 -3.1813,0 0,3.18125 z" />
      <path
         inkscape:connector-curvature="0"
         id="path4718"
         style="fill:#373334;fill-opacity:1;fill-rule:nonzero;stroke:none"
         d="m -1314.2868,230.53495 3.1812,0 0,-3.18125 -3.1812,0 0,3.18125 z" />
      <path
         inkscape:connector-curvature="0"
         id="path4720"
         style="fill:#373334;fill-opacity:1;fill-rule:nonzero;stroke:none"
         d="m -1310.7956,230.53495 3.1813,0 0,-3.18125 -3.1813,0 0,3.18125 z" />
      <path
         inkscape:connector-curvature="0"
         id="path4722"
         style="fill:#373334;fill-opacity:1;fill-rule:nonzero;stroke:none"
         d="m -1307.3043,230.53495 3.1812,0 0,-3.18125 -3.1812,0 0,3.18125 z" />
      <path
         inkscape:connector-curvature="0"
         id="path4724"
         style="fill:#373334;fill-opacity:1;fill-rule:nonzero;stroke:none"
         d="m -1303.8143,230.53495 3.1812,0 0,-3.18125 -3.1812,0 0,3.18125 z" />
      <path
         inkscape:connector-curvature="0"
         id="path4726"
         style="fill:#373334;fill-opacity:1;fill-rule:nonzero;stroke:none"
         d="m -1300.3231,230.53495 3.1813,0 0,-3.18125 -3.1813,0 0,3.18125 z" />
    </g>
  </g>
</svg>
