<?xml version="1.0" encoding="UTF-8" standalone="no"?>
<!-- Created with Inkscape (http://www.inkscape.org/) -->

<svg
   xmlns:dc="http://purl.org/dc/elements/1.1/"
   xmlns:cc="http://creativecommons.org/ns#"
   xmlns:rdf="http://www.w3.org/1999/02/22-rdf-syntax-ns#"
   xmlns:svg="http://www.w3.org/2000/svg"
   xmlns="http://www.w3.org/2000/svg"
   xmlns:sodipodi="http://sodipodi.sourceforge.net/DTD/sodipodi-0.dtd"
   xmlns:inkscape="http://www.inkscape.org/namespaces/inkscape"
   width="90"
   height="90"
   id="svg7972"
   version="1.1"
   inkscape:version="0.48+devel r"
   viewBox="0 0 90 90"
   sodipodi:docname="folder_default.svg">
  <defs
     id="defs7974" />
  <sodipodi:namedview
     id="base"
     pagecolor="#ffffff"
     bordercolor="#666666"
     borderopacity="1.0"
     inkscape:pageopacity="0.0"
     inkscape:pageshadow="2"
     inkscape:zoom="2.8"
     inkscape:cx="50.053082"
     inkscape:cy="79.732503"
     inkscape:document-units="px"
     inkscape:current-layer="layer1"
     showgrid="false"
     inkscape:window-width="1914"
     inkscape:window-height="864"
     inkscape:window-x="0"
     inkscape:window-y="0"
     inkscape:window-maximized="0" />
  <metadata
     id="metadata7977">
    <rdf:RDF>
      <cc:Work
         rdf:about="">
        <dc:format>image/svg+xml</dc:format>
        <dc:type
           rdf:resource="http://purl.org/dc/dcmitype/StillImage" />
        <dc:title></dc:title>
      </cc:Work>
    </rdf:RDF>
  </metadata>
  <g
     inkscape:label="Layer 1"
     inkscape:groupmode="layer"
     id="layer1"
     transform="translate(0,-962.3622)">
    <path
       d="m 7.1597258,989.67718 3.9812512,0 0,-3.98125 -3.9812512,0 0,3.98125 z"
       style="fill:#517286;fill-opacity:1;fill-rule:nonzero;stroke:none"
       id="path2736"
       inkscape:connector-curvature="0" />
    <path
       d="m 7.1597258,993.97093 3.9812512,0 0,-3.98125 -3.9812512,0 0,3.98125 z"
       style="fill:#517286;fill-opacity:1;fill-rule:nonzero;stroke:none"
       id="path2738"
       inkscape:connector-curvature="0" />
    <path
       d="m 7.1597258,998.26469 3.9812512,0 0,-3.98126 -3.9812512,0 0,3.98126 z"
       style="fill:#517286;fill-opacity:1;fill-rule:nonzero;stroke:none"
       id="path2740"
       inkscape:connector-curvature="0" />
    <path
       d="m 7.1597258,1002.5584 3.9812512,0 0,-3.98121 -3.9812512,0 0,3.98121 z"
       style="fill:#517286;fill-opacity:1;fill-rule:nonzero;stroke:none"
       id="path2742"
       inkscape:connector-curvature="0" />
    <path
       d="m 7.1597258,1006.8534 3.9812512,0 0,-3.9812 -3.9812512,0 0,3.9812 z"
       style="fill:#517286;fill-opacity:1;fill-rule:nonzero;stroke:none"
       id="path2744"
       inkscape:connector-curvature="0" />
    <path
       d="m 7.1597258,1011.1472 3.9812512,0 0,-3.9813 -3.9812512,0 0,3.9813 z"
       style="fill:#517286;fill-opacity:1;fill-rule:nonzero;stroke:none"
       id="path2746"
       inkscape:connector-curvature="0" />
    <path
       d="m 7.1597258,1015.4409 3.9812512,0 0,-3.9812 -3.9812512,0 0,3.9812 z"
       style="fill:#517286;fill-opacity:1;fill-rule:nonzero;stroke:none"
       id="path2748"
       inkscape:connector-curvature="0" />
    <path
       d="m 7.1597258,1019.7347 3.9812512,0 0,-3.9813 -3.9812512,0 0,3.9813 z"
       style="fill:#517286;fill-opacity:1;fill-rule:nonzero;stroke:none"
       id="path2750"
       inkscape:connector-curvature="0" />
    <path
       d="m 11.528477,989.67718 3.98125,0 0,-3.98125 -3.98125,0 0,3.98125 z"
       style="fill:#517286;fill-opacity:1;fill-rule:nonzero;stroke:none"
       id="path2752"
       inkscape:connector-curvature="0" />
    <path
       d="m 15.897227,989.67718 3.98125,0 0,-3.98125 -3.98125,0 0,3.98125 z"
       style="fill:#517286;fill-opacity:1;fill-rule:nonzero;stroke:none"
       id="path2754"
       inkscape:connector-curvature="0" />
    <path
       d="m 15.897227,998.26469 3.98125,0 0,-3.98126 -3.98125,0 0,3.98126 z"
       style="fill:#517286;fill-opacity:1;fill-rule:nonzero;stroke:none"
       id="path2756"
       inkscape:connector-curvature="0" />
    <path
       d="m 15.897227,1006.8534 3.98125,0 0,-3.9812 -3.98125,0 0,3.9812 z"
       style="fill:#517286;fill-opacity:1;fill-rule:nonzero;stroke:none"
       id="path2758"
       inkscape:connector-curvature="0" />
    <path
       d="m 15.897227,1015.4409 3.98125,0 0,-3.9812 -3.98125,0 0,3.9812 z"
       style="fill:#517286;fill-opacity:1;fill-rule:nonzero;stroke:none"
       id="path2760"
       inkscape:connector-curvature="0" />
    <path
       d="m 20.264727,989.67718 3.98125,0 0,-3.98125 -3.98125,0 0,3.98125 z"
       style="fill:#517286;fill-opacity:1;fill-rule:nonzero;stroke:none"
       id="path2762"
       inkscape:connector-curvature="0" />
    <path
       d="m 20.264727,998.26469 3.98125,0 0,-3.98126 -3.98125,0 0,3.98126 z"
       style="fill:#517286;fill-opacity:1;fill-rule:nonzero;stroke:none"
       id="path2764"
       inkscape:connector-curvature="0" />
    <path
       d="m 20.264727,1006.8534 3.98125,0 0,-3.9812 -3.98125,0 0,3.9812 z"
       style="fill:#517286;fill-opacity:1;fill-rule:nonzero;stroke:none"
       id="path2766"
       inkscape:connector-curvature="0" />
    <path
       d="m 20.264727,1015.4409 3.98125,0 0,-3.9812 -3.98125,0 0,3.9812 z"
       style="fill:#517286;fill-opacity:1;fill-rule:nonzero;stroke:none"
       id="path2768"
       inkscape:connector-curvature="0" />
    <path
       d="m 24.633477,989.67718 3.98125,0 0,-3.98125 -3.98125,0 0,3.98125 z"
       style="fill:#517286;fill-opacity:1;fill-rule:nonzero;stroke:none"
       id="path2770"
       inkscape:connector-curvature="0" />
    <path
       d="m 24.633477,998.26469 3.98125,0 0,-3.98126 -3.98125,0 0,3.98126 z"
       style="fill:#517286;fill-opacity:1;fill-rule:nonzero;stroke:none"
       id="path2772"
       inkscape:connector-curvature="0" />
    <path
       d="m 24.633477,1006.8534 3.98125,0 0,-3.9812 -3.98125,0 0,3.9812 z"
       style="fill:#517286;fill-opacity:1;fill-rule:nonzero;stroke:none"
       id="path2774"
       inkscape:connector-curvature="0" />
    <path
       d="m 24.633477,1015.4409 3.98125,0 0,-3.9812 -3.98125,0 0,3.9812 z"
       style="fill:#517286;fill-opacity:1;fill-rule:nonzero;stroke:none"
       id="path2776"
       inkscape:connector-curvature="0" />
    <path
       d="m 29.002227,989.67718 3.98125,0 0,-3.98125 -3.98125,0 0,3.98125 z"
       style="fill:#517286;fill-opacity:1;fill-rule:nonzero;stroke:none"
       id="path2778"
       inkscape:connector-curvature="0" />
    <path
       d="m 33.370977,989.67718 3.98125,0 0,-3.98125 -3.98125,0 0,3.98125 z"
       style="fill:#517286;fill-opacity:1;fill-rule:nonzero;stroke:none"
       id="path2780"
       inkscape:connector-curvature="0" />
    <path
       d="m 33.370977,993.97093 3.98125,0 0,-3.98125 -3.98125,0 0,3.98125 z"
       style="fill:#517286;fill-opacity:1;fill-rule:nonzero;stroke:none"
       id="path2782"
       inkscape:connector-curvature="0" />
    <path
       d="m 33.370977,998.26469 3.98125,0 0,-3.98126 -3.98125,0 0,3.98126 z"
       style="fill:#517286;fill-opacity:1;fill-rule:nonzero;stroke:none"
       id="path2784"
       inkscape:connector-curvature="0" />
    <path
       d="m 33.370977,1002.5584 3.98125,0 0,-3.98121 -3.98125,0 0,3.98121 z"
       style="fill:#517286;fill-opacity:1;fill-rule:nonzero;stroke:none"
       id="path2786"
       inkscape:connector-curvature="0" />
    <path
       d="m 33.370977,1006.8534 3.98125,0 0,-3.9812 -3.98125,0 0,3.9812 z"
       style="fill:#517286;fill-opacity:1;fill-rule:nonzero;stroke:none"
       id="path2788"
       inkscape:connector-curvature="0" />
    <path
       d="m 33.370977,1011.1472 3.98125,0 0,-3.9813 -3.98125,0 0,3.9813 z"
       style="fill:#517286;fill-opacity:1;fill-rule:nonzero;stroke:none"
       id="path2790"
       inkscape:connector-curvature="0" />
    <path
       d="m 33.370977,1015.4409 3.98125,0 0,-3.9812 -3.98125,0 0,3.9812 z"
       style="fill:#517286;fill-opacity:1;fill-rule:nonzero;stroke:none"
       id="path2792"
       inkscape:connector-curvature="0" />
    <path
       d="m 33.370977,1019.7347 3.98125,0 0,-3.9813 -3.98125,0 0,3.9813 z"
       style="fill:#517286;fill-opacity:1;fill-rule:nonzero;stroke:none"
       id="path2794"
       inkscape:connector-curvature="0" />
    <path
       d="m 7.1597258,1024.0284 3.9812512,0 0,-3.9812 -3.9812512,0 0,3.9812 z"
       style="fill:#517286;fill-opacity:1;fill-rule:nonzero;stroke:none"
       id="path2796"
       inkscape:connector-curvature="0" />
    <path
       d="m 33.370977,1024.0284 3.98125,0 0,-3.9812 -3.98125,0 0,3.9812 z"
       style="fill:#517286;fill-opacity:1;fill-rule:nonzero;stroke:none"
       id="path2798"
       inkscape:connector-curvature="0" />
    <path
       d="m 11.528477,1024.0284 3.98125,0 0,-3.9812 -3.98125,0 0,3.9812 z"
       style="fill:#517286;fill-opacity:1;fill-rule:nonzero;stroke:none"
       id="path2800"
       inkscape:connector-curvature="0" />
    <path
       d="m 15.897227,1024.0284 3.98125,0 0,-3.9812 -3.98125,0 0,3.9812 z"
       style="fill:#517286;fill-opacity:1;fill-rule:nonzero;stroke:none"
       id="path2802"
       inkscape:connector-curvature="0" />
    <path
       d="m 20.264727,1024.0284 3.98125,0 0,-3.9812 -3.98125,0 0,3.9812 z"
       style="fill:#517286;fill-opacity:1;fill-rule:nonzero;stroke:none"
       id="path2804"
       inkscape:connector-curvature="0" />
    <path
       d="m 24.633477,1024.0284 3.98125,0 0,-3.9812 -3.98125,0 0,3.9812 z"
       style="fill:#517286;fill-opacity:1;fill-rule:nonzero;stroke:none"
       id="path2806"
       inkscape:connector-curvature="0" />
    <path
       d="m 29.002227,1024.0284 3.98125,0 0,-3.9812 -3.98125,0 0,3.9812 z"
       style="fill:#517286;fill-opacity:1;fill-rule:nonzero;stroke:none"
       id="path2808"
       inkscape:connector-curvature="0" />
    <path
       d="m 51.933477,990.64718 3.98125,0 0,-3.72625 -3.98125,0 0,3.72625 z"
       style="fill:#517286;fill-opacity:1;fill-rule:nonzero;stroke:none"
       id="path2810"
       inkscape:connector-curvature="0" />
    <path
       d="m 51.933477,994.66718 3.98125,0 0,-3.72625 -3.98125,0 0,3.72625 z"
       style="fill:#517286;fill-opacity:1;fill-rule:nonzero;stroke:none"
       id="path2812"
       inkscape:connector-curvature="0" />
    <path
       d="m 51.933477,998.68719 3.98125,0 0,-3.72626 -3.98125,0 0,3.72626 z"
       style="fill:#517286;fill-opacity:1;fill-rule:nonzero;stroke:none"
       id="path2814"
       inkscape:connector-curvature="0" />
    <path
       d="m 51.933477,1002.7059 3.98125,0 0,-3.72621 -3.98125,0 0,3.72621 z"
       style="fill:#517286;fill-opacity:1;fill-rule:nonzero;stroke:none"
       id="path2816"
       inkscape:connector-curvature="0" />
    <path
       d="m 51.933477,1006.7259 3.98125,0 0,-3.7262 -3.98125,0 0,3.7262 z"
       style="fill:#517286;fill-opacity:1;fill-rule:nonzero;stroke:none"
       id="path2818"
       inkscape:connector-curvature="0" />
    <path
       d="m 51.933477,1010.7459 3.98125,0 0,-3.7262 -3.98125,0 0,3.7262 z"
       style="fill:#517286;fill-opacity:1;fill-rule:nonzero;stroke:none"
       id="path2820"
       inkscape:connector-curvature="0" />
    <path
       d="m 51.933477,1014.7647 3.98125,0 0,-3.7263 -3.98125,0 0,3.7263 z"
       style="fill:#517286;fill-opacity:1;fill-rule:nonzero;stroke:none"
       id="path2822"
       inkscape:connector-curvature="0" />
    <path
       d="m 51.933477,1018.7847 3.98125,0 0,-3.7263 -3.98125,0 0,3.7263 z"
       style="fill:#517286;fill-opacity:1;fill-rule:nonzero;stroke:none"
       id="path2824"
       inkscape:connector-curvature="0" />
    <path
       d="m 56.302227,994.66718 3.98126,0 0,-3.72625 -3.98126,0 0,3.72625 z"
       style="fill:#517286;fill-opacity:1;fill-rule:nonzero;stroke:none"
       id="path2826"
       inkscape:connector-curvature="0" />
    <path
       d="m 56.302227,1010.7459 3.98126,0 0,-3.7262 -3.98126,0 0,3.7262 z"
       style="fill:#517286;fill-opacity:1;fill-rule:nonzero;stroke:none"
       id="path2828"
       inkscape:connector-curvature="0" />
    <path
       d="m 56.302227,1014.7647 3.98126,0 0,-3.7263 -3.98126,0 0,3.7263 z"
       style="fill:#517286;fill-opacity:1;fill-rule:nonzero;stroke:none"
       id="path2830"
       inkscape:connector-curvature="0" />
    <path
       d="m 56.302227,1018.7847 3.98126,0 0,-3.7263 -3.98126,0 0,3.7263 z"
       style="fill:#517286;fill-opacity:1;fill-rule:nonzero;stroke:none"
       id="path2832"
       inkscape:connector-curvature="0" />
    <path
       d="m 60.670987,990.64718 3.98125,0 0,-3.72625 -3.98125,0 0,3.72625 z"
       style="fill:#517286;fill-opacity:1;fill-rule:nonzero;stroke:none"
       id="path2834"
       inkscape:connector-curvature="0" />
    <path
       d="m 60.670987,994.66718 3.98125,0 0,-3.72625 -3.98125,0 0,3.72625 z"
       style="fill:#517286;fill-opacity:1;fill-rule:nonzero;stroke:none"
       id="path2836"
       inkscape:connector-curvature="0" />
    <path
       d="m 60.670987,998.68719 3.98125,0 0,-3.72626 -3.98125,0 0,3.72626 z"
       style="fill:#517286;fill-opacity:1;fill-rule:nonzero;stroke:none"
       id="path2838"
       inkscape:connector-curvature="0" />
    <path
       d="m 60.670987,1002.7059 3.98125,0 0,-3.72621 -3.98125,0 0,3.72621 z"
       style="fill:#517286;fill-opacity:1;fill-rule:nonzero;stroke:none"
       id="path2840"
       inkscape:connector-curvature="0" />
    <path
       d="m 60.670987,1006.7259 3.98125,0 0,-3.7262 -3.98125,0 0,3.7262 z"
       style="fill:#517286;fill-opacity:1;fill-rule:nonzero;stroke:none"
       id="path2842"
       inkscape:connector-curvature="0" />
    <path
       d="m 60.670987,1010.7459 3.98125,0 0,-3.7262 -3.98125,0 0,3.7262 z"
       style="fill:#517286;fill-opacity:1;fill-rule:nonzero;stroke:none"
       id="path2844"
       inkscape:connector-curvature="0" />
    <path
       d="m 60.670987,1022.8047 3.98125,0 0,-3.7263 -3.98125,0 0,3.7263 z"
       style="fill:#517286;fill-opacity:1;fill-rule:nonzero;stroke:none"
       id="path2846"
       inkscape:connector-curvature="0" />
    <path
       d="m 65.039737,994.66718 3.98125,0 0,-3.72625 -3.98125,0 0,3.72625 z"
       style="fill:#517286;fill-opacity:1;fill-rule:nonzero;stroke:none"
       id="path2848"
       inkscape:connector-curvature="0" />
    <path
       d="m 65.039737,1010.7459 3.98125,0 0,-3.7262 -3.98125,0 0,3.7262 z"
       style="fill:#517286;fill-opacity:1;fill-rule:nonzero;stroke:none"
       id="path2850"
       inkscape:connector-curvature="0" />
    <path
       d="m 65.039737,1022.8047 3.98125,0 0,-3.7263 -3.98125,0 0,3.7263 z"
       style="fill:#517286;fill-opacity:1;fill-rule:nonzero;stroke:none"
       id="path2852"
       inkscape:connector-curvature="0" />
    <path
       d="m 69.408487,990.64718 3.98125,0 0,-3.72625 -3.98125,0 0,3.72625 z"
       style="fill:#517286;fill-opacity:1;fill-rule:nonzero;stroke:none"
       id="path2854"
       inkscape:connector-curvature="0" />
    <path
       d="m 69.408487,994.66718 3.98125,0 0,-3.72625 -3.98125,0 0,3.72625 z"
       style="fill:#517286;fill-opacity:1;fill-rule:nonzero;stroke:none"
       id="path2856"
       inkscape:connector-curvature="0" />
    <path
       d="m 69.408487,998.68719 3.98125,0 0,-3.72626 -3.98125,0 0,3.72626 z"
       style="fill:#517286;fill-opacity:1;fill-rule:nonzero;stroke:none"
       id="path2858"
       inkscape:connector-curvature="0" />
    <path
       d="m 69.408487,1002.7059 3.98125,0 0,-3.72621 -3.98125,0 0,3.72621 z"
       style="fill:#517286;fill-opacity:1;fill-rule:nonzero;stroke:none"
       id="path2860"
       inkscape:connector-curvature="0" />
    <path
       d="m 69.408487,1006.7259 3.98125,0 0,-3.7262 -3.98125,0 0,3.7262 z"
       style="fill:#517286;fill-opacity:1;fill-rule:nonzero;stroke:none"
       id="path2862"
       inkscape:connector-curvature="0" />
    <path
       d="m 69.408487,1010.7459 3.98125,0 0,-3.7262 -3.98125,0 0,3.7262 z"
       style="fill:#517286;fill-opacity:1;fill-rule:nonzero;stroke:none"
       id="path2864"
       inkscape:connector-curvature="0" />
    <path
       d="m 69.408487,1022.8047 3.98125,0 0,-3.7263 -3.98125,0 0,3.7263 z"
       style="fill:#517286;fill-opacity:1;fill-rule:nonzero;stroke:none"
       id="path2866"
       inkscape:connector-curvature="0" />
    <path
       d="m 73.777237,994.66718 3.98125,0 0,-3.72625 -3.98125,0 0,3.72625 z"
       style="fill:#517286;fill-opacity:1;fill-rule:nonzero;stroke:none"
       id="path2868"
       inkscape:connector-curvature="0" />
    <path
       d="m 73.777237,1010.7459 3.98125,0 0,-3.7262 -3.98125,0 0,3.7262 z"
       style="fill:#517286;fill-opacity:1;fill-rule:nonzero;stroke:none"
       id="path2870"
       inkscape:connector-curvature="0" />
    <path
       d="m 73.777237,1014.7647 3.98125,0 0,-3.7263 -3.98125,0 0,3.7263 z"
       style="fill:#517286;fill-opacity:1;fill-rule:nonzero;stroke:none"
       id="path2872"
       inkscape:connector-curvature="0" />
    <path
       d="m 73.777237,1018.7847 3.98125,0 0,-3.7263 -3.98125,0 0,3.7263 z"
       style="fill:#517286;fill-opacity:1;fill-rule:nonzero;stroke:none"
       id="path2874"
       inkscape:connector-curvature="0" />
    <path
       d="m 78.144737,990.64718 3.98125,0 0,-3.72625 -3.98125,0 0,3.72625 z"
       style="fill:#517286;fill-opacity:1;fill-rule:nonzero;stroke:none"
       id="path2876"
       inkscape:connector-curvature="0" />
    <path
       d="m 78.144737,994.66718 3.98125,0 0,-3.72625 -3.98125,0 0,3.72625 z"
       style="fill:#517286;fill-opacity:1;fill-rule:nonzero;stroke:none"
       id="path2878"
       inkscape:connector-curvature="0" />
    <path
       d="m 78.144737,998.68719 3.98125,0 0,-3.72626 -3.98125,0 0,3.72626 z"
       style="fill:#517286;fill-opacity:1;fill-rule:nonzero;stroke:none"
       id="path2880"
       inkscape:connector-curvature="0" />
    <path
       d="m 78.144737,1002.7059 3.98125,0 0,-3.72621 -3.98125,0 0,3.72621 z"
       style="fill:#517286;fill-opacity:1;fill-rule:nonzero;stroke:none"
       id="path2882"
       inkscape:connector-curvature="0" />
    <path
       d="m 78.144737,1006.7259 3.98125,0 0,-3.7262 -3.98125,0 0,3.7262 z"
       style="fill:#517286;fill-opacity:1;fill-rule:nonzero;stroke:none"
       id="path2884"
       inkscape:connector-curvature="0" />
    <path
       d="m 78.144737,1010.7459 3.98125,0 0,-3.7262 -3.98125,0 0,3.7262 z"
       style="fill:#517286;fill-opacity:1;fill-rule:nonzero;stroke:none"
       id="path2886"
       inkscape:connector-curvature="0" />
    <path
       d="m 78.144737,1014.7647 3.98125,0 0,-3.7263 -3.98125,0 0,3.7263 z"
       style="fill:#517286;fill-opacity:1;fill-rule:nonzero;stroke:none"
       id="path2888"
       inkscape:connector-curvature="0" />
    <path
       d="m 78.144737,1018.7847 3.98125,0 0,-3.7263 -3.98125,0 0,3.7263 z"
       style="fill:#517286;fill-opacity:1;fill-rule:nonzero;stroke:none"
       id="path2890"
       inkscape:connector-curvature="0" />
    <path
       d="m 51.933477,1022.8047 3.98125,0 0,-3.7263 -3.98125,0 0,3.7263 z"
       style="fill:#517286;fill-opacity:1;fill-rule:nonzero;stroke:none"
       id="path2892"
       inkscape:connector-curvature="0" />
    <path
       d="m 56.302227,1022.8047 3.98126,0 0,-3.7263 -3.98126,0 0,3.7263 z"
       style="fill:#517286;fill-opacity:1;fill-rule:nonzero;stroke:none"
       id="path2894"
       inkscape:connector-curvature="0" />
    <path
       d="m 73.777237,1022.8047 3.98125,0 0,-3.7263 -3.98125,0 0,3.7263 z"
       style="fill:#517286;fill-opacity:1;fill-rule:nonzero;stroke:none"
       id="path2896"
       inkscape:connector-curvature="0" />
    <path
       d="m 78.144737,1022.8047 3.98125,0 0,-3.7263 -3.98125,0 0,3.7263 z"
       style="fill:#517286;fill-opacity:1;fill-rule:nonzero;stroke:none"
       id="path2898"
       inkscape:connector-curvature="0" />
  </g>
</svg>
