<?xml version="1.0" encoding="utf-8"?>
<!-- Generator: Adobe Illustrator 17.1.0, SVG Export Plug-In . SVG Version: 6.00 Build 0)  -->
<!DOCTYPE svg PUBLIC "-//W3C//DTD SVG 1.1//EN" "http://www.w3.org/Graphics/SVG/1.1/DTD/svg11.dtd">
<svg version="1.1" id="Layer_1" xmlns="http://www.w3.org/2000/svg" xmlns:xlink="http://www.w3.org/1999/xlink" x="0px" y="0px"
	 viewBox="0 0 56.912 33.041" style="enable-background:new 0 0 56.912 33.041;" xml:space="preserve">
<g>
	<path style="fill:#9FA4A7;" d="M4.761,5.946l0.016-2.745c0-0.14,0-0.473,0.007-0.977C4.683,2.697,4.597,3.03,4.55,3.216
		l-0.698,2.73h-1.26L1.887,3.278C1.809,2.976,1.738,2.627,1.66,2.224c0.015,0.48,0.023,0.822,0.023,1.031v2.691H0.047V0.37h2.2
		L3.03,3.154c0.016,0.07,0.079,0.341,0.188,0.814c0.078-0.403,0.141-0.674,0.18-0.806L4.197,0.37h2.201v5.576H4.761z"/>
	<path style="fill:#9FA4A7;" d="M7.62,1.829h1.668v4.118H7.62V1.829z M7.62,0.231h1.668V1.41H7.62V0.231z"/>
	<path style="fill:#9FA4A7;" d="M13.266,5.946V3.813c0-0.566-0.11-0.822-0.564-0.822c-0.415,0-0.619,0.272-0.619,0.83v2.125h-1.652
		V1.828h1.504v0.605c0.383-0.481,0.853-0.713,1.456-0.713c0.509,0,0.909,0.17,1.183,0.496c0.321,0.38,0.344,0.876,0.344,1.59v2.14
		H13.266z"/>
	<path style="fill:#9FA4A7;" d="M16.026,1.829h1.668v4.118h-1.668V1.829z M16.026,0.231h1.668V1.41h-1.668V0.231z"/>
	<path style="fill:#9FA4A7;" d="M20.685,6.094c-1.347,0-2.052-0.481-2.122-1.442h1.605c0,0.349,0.18,0.519,0.541,0.519
		c0.352,0,0.54-0.124,0.54-0.341c0-0.295-0.235-0.326-0.697-0.427c-1.284-0.271-1.88-0.496-1.88-1.364
		c0-0.877,0.697-1.358,2.044-1.358c1.245,0,1.927,0.442,2.029,1.296h-1.488c-0.024-0.241-0.227-0.404-0.525-0.404
		c-0.298,0-0.446,0.109-0.446,0.287c0,0.295,0.274,0.295,0.791,0.411c1.237,0.279,1.809,0.504,1.809,1.396
		C22.886,5.606,22.142,6.094,20.685,6.094"/>
	<path style="fill:#9FA4A7;" d="M25.368,6.016c-1.026,0-1.41-0.287-1.41-1.179V2.774h-0.587V1.828h0.587V0.557h1.645v1.271h0.775
		v0.946h-0.775v1.645c0,0.294,0.157,0.38,0.556,0.38c0.07,0,0.149,0,0.235-0.008v1.186C26.034,6,25.689,6.016,25.368,6.016"/>
	<path style="fill:#9FA4A7;" d="M29.338,2.658c-0.43,0-0.697,0.279-0.72,0.768h1.472C30.059,2.914,29.808,2.658,29.338,2.658
		 M28.618,4.248c0.016,0.527,0.29,0.822,0.767,0.822c0.321,0,0.541-0.124,0.619-0.341h1.582c-0.227,0.892-1.01,1.365-2.294,1.365
		c-1.441,0-2.326-0.861-2.326-2.172c0-1.38,0.908-2.241,2.388-2.241c1.472,0,2.365,0.915,2.365,2.466v0.101H28.618z"/>
	<path style="fill:#9FA4A7;" d="M35.048,3.333c-0.665,0-0.971,0.287-0.971,0.923v1.69h-1.66V1.828h1.527v0.753
		c0.219-0.605,0.619-0.861,1.292-0.861h0.149v1.636C35.26,3.341,35.15,3.333,35.048,3.333"/>
	<path style="fill:#9FA4A7;" d="M38.055,6.094c-1.347,0-2.052-0.481-2.122-1.442h1.605c0,0.349,0.18,0.519,0.54,0.519
		c0.353,0,0.541-0.124,0.541-0.341c0-0.295-0.235-0.326-0.697-0.427c-1.285-0.271-1.88-0.496-1.88-1.364
		c0-0.877,0.697-1.358,2.044-1.358c1.245,0,1.927,0.442,2.029,1.296h-1.488c-0.024-0.241-0.228-0.404-0.525-0.404
		c-0.298,0-0.447,0.109-0.447,0.287c0,0.295,0.275,0.295,0.791,0.411c1.238,0.279,1.809,0.504,1.809,1.396
		C40.255,5.606,39.511,6.094,38.055,6.094"/>
	<path style="fill:#9FA4A7;" d="M42.762,6.016c-1.026,0-1.409-0.287-1.409-1.179V2.774h-0.588V1.828h0.588V0.557h1.644v1.271h0.776
		v0.946h-0.776v1.645c0,0.294,0.157,0.38,0.556,0.38c0.071,0,0.149,0,0.235-0.008v1.186C43.428,6,43.083,6.016,42.762,6.016"/>
	<polygon style="fill:#9FA4A7;" points="50.162,5.946 48.541,5.946 47.938,3.565 47.335,5.946 45.714,5.946 44.344,1.828 
		45.98,1.828 46.599,4.341 47.241,1.828 48.635,1.828 49.277,4.341 49.896,1.828 51.47,1.828 	"/>
	<path style="fill:#9FA4A7;" d="M53.976,2.821c-0.501,0-0.681,0.334-0.681,1.063c0,0.729,0.18,1.07,0.681,1.07
		c0.501,0,0.689-0.341,0.689-1.07C54.665,3.155,54.477,2.821,53.976,2.821 M53.976,6.094c-1.464,0-2.349-0.845-2.349-2.21
		c0-1.365,0.885-2.203,2.349-2.203c1.465,0,2.349,0.838,2.349,2.203C56.325,5.249,55.441,6.094,53.976,6.094"/>
	<polygon style="fill:#B92517;" points="4.914,15.446 3.052,12.431 2.451,13.049 2.451,15.446 0.029,15.446 0.029,7.919 
		2.451,7.919 2.451,10.41 4.638,7.919 7.472,7.919 4.754,10.693 7.82,15.446 	"/>
	<path style="fill:#B92517;" d="M12.139,15.446v-0.817c-0.518,0.65-1.152,0.964-1.966,0.964c-0.688,0-1.227-0.231-1.597-0.67
		c-0.433-0.513-0.455-1.194-0.455-2.157V9.887h2.231v2.868c0,0.765,0.148,1.121,0.761,1.121c0.561,0,0.836-0.377,0.836-1.131V9.887
		h2.23v5.559H12.139z"/>
	<rect x="15.596" y="7.919" style="fill:#B92517;" width="2.252" height="7.527"/>
	<path style="fill:#B92517;" d="M21.538,15.541c-1.385,0-1.903-0.387-1.903-1.591v-2.785h-0.793V9.888h0.793V8.171h2.22v1.717h1.047
		v1.277h-1.047v2.219c0,0.398,0.212,0.513,0.751,0.513c0.095,0,0.201,0,0.317-0.01v1.602C22.437,15.52,21.971,15.541,21.538,15.541"
		/>
	<path style="fill:#B92517;" d="M27.944,15.446v-0.817c-0.518,0.65-1.152,0.964-1.966,0.964c-0.688,0-1.227-0.231-1.597-0.67
		c-0.433-0.513-0.455-1.194-0.455-2.157V9.887h2.231v2.868c0,0.765,0.148,1.121,0.761,1.121c0.561,0,0.836-0.377,0.836-1.131V9.887
		h2.23v5.559H27.944z"/>
	<path style="fill:#B92517;" d="M34.911,11.918c-0.898,0-1.311,0.387-1.311,1.246v2.282h-2.241V9.887h2.061v1.015
		c0.296-0.816,0.836-1.162,1.745-1.162h0.201v2.209C35.197,11.928,35.049,11.918,34.911,11.918"/>
	<path style="fill:#B92517;" d="M40.467,15.415c-0.286,0.859-0.497,1.476-0.835,1.801c-0.433,0.429-0.983,0.46-1.766,0.46
		c-0.264,0-0.645-0.01-1.131-0.042v-1.643h0.634c0.413,0,0.614-0.126,0.614-0.471c0-0.157-0.043-0.335-0.117-0.545l-1.882-5.088
		h2.263l0.983,3.371l0.951-3.371h2.104L40.467,15.415z"/>
	<path style="fill:#9FA4A7;" d="M0,19.277h1.668v4.118H0V19.277z M0,17.68h1.668v1.179H0V17.68z"/>
	<path style="fill:#9FA4A7;" d="M7.745,19.23H7.236v2.753h0.486c0.893,0,1.198-0.333,1.198-1.372
		C8.92,19.602,8.599,19.23,7.745,19.23 M9.296,23.162c-0.478,0.217-1.143,0.233-2.021,0.233H5.427v-5.576h2.185
		c0.807,0,1.433,0.023,1.95,0.318c0.783,0.45,1.175,1.272,1.175,2.474C10.737,21.875,10.244,22.743,9.296,23.162"/>
	<polygon style="fill:#9FA4A7;" points="11.235,23.395 11.235,22.286 13.13,20.479 11.398,20.479 11.398,19.277 15.08,19.277 
		15.08,20.378 13.232,22.193 15.174,22.193 15.174,23.395 	"/>
	<path style="fill:#9FA4A7;" d="M15.91,19.277h1.668v4.118H15.91V19.277z M15.91,17.68h1.668v1.179H15.91V17.68z"/>
	<path style="fill:#9FA4A7;" d="M20.773,20.107c-0.43,0-0.697,0.279-0.72,0.768h1.472C21.494,20.363,21.243,20.107,20.773,20.107
		 M20.053,21.697c0.016,0.527,0.29,0.822,0.767,0.822c0.322,0,0.541-0.124,0.619-0.341h1.582c-0.227,0.892-1.01,1.365-2.295,1.365
		c-1.44,0-2.325-0.861-2.325-2.172c0-1.38,0.908-2.241,2.388-2.241c1.472,0,2.365,0.915,2.365,2.466v0.101H20.053z"/>
	<path style="fill:#9FA4A7;" d="M26.067,20.425c-0.462,0-0.674,0.31-0.674,0.954c0,0.612,0.259,0.954,0.674,0.954
		s0.681-0.342,0.681-0.954C26.748,20.735,26.529,20.425,26.067,20.425 M26.881,23.395v-0.504c-0.36,0.442-0.807,0.651-1.363,0.651
		c-1.049,0-1.785-0.845-1.785-2.187c0-1.341,0.752-2.202,1.77-2.202c0.501,0,0.9,0.186,1.229,0.566v-1.9h1.613v5.576H26.881z"/>
	<polygon style="fill:#9FA4A7;" points="28.996,23.395 28.996,22.286 30.891,20.479 29.161,20.479 29.161,19.277 32.841,19.277 
		32.841,20.378 30.993,22.193 32.935,22.193 32.935,23.395 	"/>
	<path style="fill:#9FA4A7;" d="M33.671,19.277h1.668v4.118h-1.668V19.277z M33.671,17.68h1.668v1.179h-1.668V17.68z"/>
	<path style="fill:#9FA4A7;" d="M38.344,23.542c-1.488,0-2.389-0.861-2.389-2.21c0-1.365,0.901-2.203,2.373-2.203
		c1.355,0,2.216,0.683,2.256,1.714h-1.653c-0.031-0.387-0.227-0.574-0.611-0.574c-0.485,0-0.697,0.342-0.697,1.063
		c0,0.729,0.204,1.07,0.682,1.07c0.383,0,0.603-0.209,0.642-0.613h1.652C40.529,22.867,39.683,23.542,38.344,23.542"/>
	<path style="fill:#9FA4A7;" d="M43.004,23.465c-1.026,0-1.41-0.287-1.41-1.179v-2.063h-0.587v-0.946h0.587v-1.271h1.645v1.271
		h0.775v0.946h-0.775v1.645c0,0.294,0.156,0.38,0.556,0.38c0.07,0,0.149,0,0.235-0.008v1.186
		C43.67,23.449,43.325,23.465,43.004,23.465"/>
	<polygon style="fill:#9FA4A7;" points="50.303,23.395 48.682,23.395 48.079,21.014 47.476,23.395 45.855,23.395 44.485,19.277 
		46.121,19.277 46.74,21.79 47.382,19.277 48.776,19.277 49.418,21.79 50.037,19.277 51.611,19.277 	"/>
	<path style="fill:#9FA4A7;" d="M54.642,21.557c-0.767,0.287-1.253,0.233-1.253,0.628c0,0.233,0.165,0.373,0.47,0.373
		c0.556,0,0.791-0.249,0.791-0.792C54.65,21.697,54.65,21.627,54.642,21.557 M54.791,23.395L54.689,23
		c-0.423,0.372-0.901,0.542-1.511,0.542c-0.948,0-1.473-0.48-1.473-1.31c0-0.915,0.58-1.171,1.809-1.326
		c0.799-0.101,1.144-0.062,1.144-0.442c0-0.241-0.196-0.342-0.595-0.342c-0.345,0-0.525,0.132-0.556,0.411h-1.614
		c0.016-0.922,0.768-1.403,2.224-1.403c0.76,0,1.339,0.163,1.622,0.349c0.438,0.294,0.532,0.605,0.532,1.155v2.296
		c0,0.147,0.062,0.271,0.18,0.349v0.116H54.791z"/>
	<path style="fill:#9FA4A7;" d="M3.626,31.15l-1.582-2.575c-0.086-0.139-0.204-0.411-0.329-0.798
		c0.047,0.279,0.047,0.535,0.047,0.759v2.614H0.047v-5.576h1.715l1.582,2.59c0.094,0.148,0.204,0.411,0.329,0.799
		c-0.039-0.24-0.047-0.496-0.047-0.76v-2.629h1.723v5.576H3.626z"/>
	<path style="fill:#9FA4A7;" d="M9.045,29.312c-0.767,0.287-1.253,0.233-1.253,0.628c0,0.233,0.165,0.372,0.47,0.372
		c0.556,0,0.791-0.248,0.791-0.791C9.053,29.452,9.053,29.382,9.045,29.312 M9.194,31.15l-0.102-0.395
		c-0.423,0.372-0.9,0.542-1.511,0.542c-0.948,0-1.473-0.48-1.473-1.31c0-0.915,0.58-1.171,1.81-1.326
		c0.798-0.101,1.143-0.062,1.143-0.442c0-0.241-0.196-0.342-0.595-0.342c-0.345,0-0.525,0.132-0.556,0.411H6.296
		c0.016-0.922,0.768-1.403,2.225-1.403c0.759,0,1.339,0.163,1.621,0.349c0.438,0.294,0.532,0.605,0.532,1.155v2.296
		c0,0.147,0.063,0.271,0.18,0.349v0.116H9.194z"/>
	<path style="fill:#9FA4A7;" d="M14.216,28.537c-0.666,0-0.971,0.287-0.971,0.923v1.691h-1.66v-4.118h1.527v0.752
		c0.219-0.605,0.618-0.861,1.292-0.861h0.149v1.636C14.427,28.545,14.318,28.537,14.216,28.537"/>
	<path style="fill:#9FA4A7;" d="M17.254,28.024c-0.501,0-0.681,0.334-0.681,1.063c0,0.729,0.18,1.07,0.681,1.07
		c0.501,0,0.689-0.341,0.689-1.07C17.943,28.358,17.755,28.024,17.254,28.024 M17.254,31.297c-1.464,0-2.349-0.845-2.349-2.21
		c0-1.365,0.885-2.203,2.349-2.203c1.464,0,2.349,0.838,2.349,2.203C19.603,30.452,18.718,31.297,17.254,31.297"/>
	<path style="fill:#9FA4A7;" d="M22.376,28.18c-0.462,0-0.674,0.31-0.674,0.954c0,0.612,0.259,0.953,0.674,0.953
		s0.681-0.341,0.681-0.953C23.057,28.49,22.838,28.18,22.376,28.18 M23.19,31.15v-0.504c-0.36,0.442-0.807,0.651-1.363,0.651
		c-1.049,0-1.785-0.845-1.785-2.186c0-1.342,0.752-2.203,1.77-2.203c0.501,0,0.9,0.186,1.229,0.566v-1.9h1.613v5.576H23.19z"/>
	<path style="fill:#9FA4A7;" d="M27.646,28.024c-0.501,0-0.681,0.334-0.681,1.063c0,0.729,0.18,1.07,0.681,1.07
		c0.501,0,0.689-0.341,0.689-1.07C28.335,28.358,28.147,28.024,27.646,28.024 M27.646,31.297c-1.464,0-2.349-0.845-2.349-2.21
		c0-1.365,0.885-2.203,2.349-2.203c1.465,0,2.349,0.838,2.349,2.203C29.995,30.452,29.111,31.297,27.646,31.297"/>
	<polygon style="fill:#9FA4A7;" points="35.909,31.15 34.288,31.15 33.685,28.769 33.082,31.15 31.461,31.15 30.091,27.032 
		31.727,27.032 32.346,29.545 32.988,27.032 34.382,27.032 35.024,29.545 35.643,27.032 37.217,27.032 	"/>
	<path style="fill:#9FA4A7;" d="M39.747,27.862c-0.431,0-0.697,0.279-0.721,0.768h1.472C40.467,28.118,40.217,27.862,39.747,27.862
		 M39.026,29.452c0.016,0.527,0.29,0.822,0.768,0.822c0.321,0,0.54-0.124,0.618-0.341h1.582c-0.227,0.892-1.01,1.365-2.294,1.365
		c-1.441,0-2.326-0.861-2.326-2.172c0-1.38,0.908-2.241,2.388-2.241c1.473,0,2.365,0.915,2.365,2.466v0.101H39.026z"/>
	<path style="fill:#9FA4A7;" d="M44.923,28.134c-0.447,0-0.666,0.31-0.666,0.93c0,0.652,0.211,0.978,0.666,0.978
		c0.485,0,0.696-0.318,0.696-0.97C45.619,28.467,45.361,28.134,44.923,28.134 M44.891,32.81c-1.19,0-1.895-0.457-2.005-1.217h1.637
		c0.039,0.201,0.188,0.279,0.486,0.279c0.548,0,0.618-0.233,0.618-0.861v-0.225c-0.281,0.271-0.665,0.403-1.159,0.403
		c-1.119,0-1.856-0.822-1.856-2.086c0-1.357,0.721-2.179,1.778-2.179c0.595,0,1.034,0.202,1.363,0.644v-0.535h1.464v3.8
		C47.217,32.267,46.575,32.81,44.891,32.81"/>
	<path style="fill:#9FA4A7;" d="M50.138,28.024c-0.501,0-0.681,0.334-0.681,1.063c0,0.729,0.18,1.07,0.681,1.07
		c0.501,0,0.689-0.341,0.689-1.07C50.827,28.358,50.639,28.024,50.138,28.024 M50.138,31.297c-1.465,0-2.349-0.845-2.349-2.21
		c0-1.365,0.884-2.203,2.349-2.203c1.464,0,2.349,0.838,2.349,2.203C52.487,30.452,51.602,31.297,50.138,31.297"/>
	<rect x="53.696" y="28.681" style="fill:#B92517;" width="2.53" height="2.462"/>
</g>
</svg>
