<?xml version="1.0" encoding="UTF-8" standalone="no"?>
<!-- Created with Inkscape (http://www.inkscape.org/) -->

<svg
   xmlns:dc="http://purl.org/dc/elements/1.1/"
   xmlns:cc="http://creativecommons.org/ns#"
   xmlns:rdf="http://www.w3.org/1999/02/22-rdf-syntax-ns#"
   xmlns:svg="http://www.w3.org/2000/svg"
   xmlns="http://www.w3.org/2000/svg"
   xmlns:sodipodi="http://sodipodi.sourceforge.net/DTD/sodipodi-0.dtd"
   xmlns:inkscape="http://www.inkscape.org/namespaces/inkscape"
   width="40"
   height="40"
   id="svg7869"
   version="1.1"
   inkscape:version="0.48+devel r"
   viewBox="0 0 40 40.000001"
   sodipodi:docname="mon_ico_off.svg"
   inkscape:export-filename="/opt/lampp/htdocs/otwarte/add-ons/themes/otwartezabytki2013/img/mon-ico.png"
   inkscape:export-xdpi="90.017723"
   inkscape:export-ydpi="90.017723">
  <defs
     id="defs7871" />
  <sodipodi:namedview
     id="base"
     pagecolor="#ffffff"
     bordercolor="#666666"
     borderopacity="1.0"
     inkscape:pageopacity="0.0"
     inkscape:pageshadow="2"
     inkscape:zoom="3.959798"
     inkscape:cx="-31.752006"
     inkscape:cy="-12.241303"
     inkscape:document-units="px"
     inkscape:current-layer="layer1"
     showgrid="false"
     inkscape:window-width="1914"
     inkscape:window-height="864"
     inkscape:window-x="0"
     inkscape:window-y="0"
     inkscape:window-maximized="0" />
  <metadata
     id="metadata7874">
    <rdf:RDF>
      <cc:Work
         rdf:about="">
        <dc:format>image/svg+xml</dc:format>
        <dc:type
           rdf:resource="http://purl.org/dc/dcmitype/StillImage" />
        <dc:title></dc:title>
      </cc:Work>
    </rdf:RDF>
  </metadata>
  <g
     inkscape:label="Layer 1"
     inkscape:groupmode="layer"
     id="layer1"
     transform="translate(0,-1012.3622)">
    <path
       d="m 8,1019.9122 3.18125,0 0,-3.1813 -3.18125,0 0,3.1813 z"
       style="fill:#888687;fill-opacity:0.49803922;fill-rule:nonzero;stroke:none"
       id="path4564"
       inkscape:connector-curvature="0" />
    <path
       d="m 8,1023.3434 3.18125,0 0,-3.1812 -3.18125,0 0,3.1812 z"
       style="fill:#888687;fill-opacity:0.49803922;fill-rule:nonzero;stroke:none"
       id="path4566"
       inkscape:connector-curvature="0" />
    <path
       d="m 8,1026.7747 3.18125,0 0,-3.1813 -3.18125,0 0,3.1813 z"
       style="fill:#888687;fill-opacity:0.49803922;fill-rule:nonzero;stroke:none"
       id="path4568"
       inkscape:connector-curvature="0" />
    <path
       d="m 8,1030.2059 3.18125,0 0,-3.1812 -3.18125,0 0,3.1812 z"
       style="fill:#888687;fill-opacity:0.49803922;fill-rule:nonzero;stroke:none"
       id="path4570"
       inkscape:connector-curvature="0" />
    <path
       d="m 8,1033.6372 3.18125,0 0,-3.1813 -3.18125,0 0,3.1813 z"
       style="fill:#888687;fill-opacity:0.49803922;fill-rule:nonzero;stroke:none"
       id="path4572"
       inkscape:connector-curvature="0" />
    <path
       d="m 8,1037.0684 3.18125,0 0,-3.1812 -3.18125,0 0,3.1812 z"
       style="fill:#888687;fill-opacity:0.49803922;fill-rule:nonzero;stroke:none"
       id="path4574"
       inkscape:connector-curvature="0" />
    <path
       d="m 8,1040.4997 3.18125,0 0,-3.1813 -3.18125,0 0,3.1813 z"
       style="fill:#888687;fill-opacity:0.49803922;fill-rule:nonzero;stroke:none"
       id="path4576"
       inkscape:connector-curvature="0" />
    <path
       d="m 8,1043.9309 3.18125,0 0,-3.1812 -3.18125,0 0,3.1812 z"
       style="fill:#888687;fill-opacity:0.49803922;fill-rule:nonzero;stroke:none"
       id="path4578"
       inkscape:connector-curvature="0" />
    <path
       d="m 11.49125,1023.3434 3.18125,0 0,-3.1812 -3.18125,0 0,3.1812 z"
       style="fill:#888687;fill-opacity:0.49803922;fill-rule:nonzero;stroke:none"
       id="path4580"
       inkscape:connector-curvature="0" />
    <path
       d="m 11.49125,1037.0684 3.18125,0 0,-3.1812 -3.18125,0 0,3.1812 z"
       style="fill:#888687;fill-opacity:0.49803922;fill-rule:nonzero;stroke:none"
       id="path4582"
       inkscape:connector-curvature="0" />
    <path
       d="m 11.49125,1040.4997 3.18125,0 0,-3.1813 -3.18125,0 0,3.1813 z"
       style="fill:#888687;fill-opacity:0.49803922;fill-rule:nonzero;stroke:none"
       id="path4584"
       inkscape:connector-curvature="0" />
    <path
       d="m 11.49125,1043.9309 3.18125,0 0,-3.1812 -3.18125,0 0,3.1812 z"
       style="fill:#888687;fill-opacity:0.49803922;fill-rule:nonzero;stroke:none"
       id="path4586"
       inkscape:connector-curvature="0" />
    <path
       d="m 14.98125,1019.9122 3.18125,0 0,-3.1813 -3.18125,0 0,3.1813 z"
       style="fill:#888687;fill-opacity:0.49803922;fill-rule:nonzero;stroke:none"
       id="path4588"
       inkscape:connector-curvature="0" />
    <path
       d="m 14.98125,1023.3434 3.18125,0 0,-3.1812 -3.18125,0 0,3.1812 z"
       style="fill:#888687;fill-opacity:0.49803922;fill-rule:nonzero;stroke:none"
       id="path4590"
       inkscape:connector-curvature="0" />
    <path
       d="m 14.98125,1026.7747 3.18125,0 0,-3.1813 -3.18125,0 0,3.1813 z"
       style="fill:#888687;fill-opacity:0.49803922;fill-rule:nonzero;stroke:none"
       id="path4592"
       inkscape:connector-curvature="0" />
    <path
       d="m 14.98125,1030.2059 3.18125,0 0,-3.1812 -3.18125,0 0,3.1812 z"
       style="fill:#888687;fill-opacity:0.49803922;fill-rule:nonzero;stroke:none"
       id="path4594"
       inkscape:connector-curvature="0" />
    <path
       d="m 14.98125,1033.6372 3.18125,0 0,-3.1813 -3.18125,0 0,3.1813 z"
       style="fill:#888687;fill-opacity:0.49803922;fill-rule:nonzero;stroke:none"
       id="path4596"
       inkscape:connector-curvature="0" />
    <path
       d="m 14.98125,1037.0684 3.18125,0 0,-3.1812 -3.18125,0 0,3.1812 z"
       style="fill:#888687;fill-opacity:0.49803922;fill-rule:nonzero;stroke:none"
       id="path4598"
       inkscape:connector-curvature="0" />
    <path
       d="m 14.98125,1047.3622 3.18125,0 0,-3.1812 -3.18125,0 0,3.1812 z"
       style="fill:#888687;fill-opacity:0.49803922;fill-rule:nonzero;stroke:none"
       id="path4600"
       inkscape:connector-curvature="0" />
    <path
       d="m 18.4725,1023.3434 3.18125,0 0,-3.1812 -3.18125,0 0,3.1812 z"
       style="fill:#888687;fill-opacity:0.49803922;fill-rule:nonzero;stroke:none"
       id="path4602"
       inkscape:connector-curvature="0" />
    <path
       d="m 18.4725,1037.0684 3.18125,0 0,-3.1812 -3.18125,0 0,3.1812 z"
       style="fill:#888687;fill-opacity:0.49803922;fill-rule:nonzero;stroke:none"
       id="path4604"
       inkscape:connector-curvature="0" />
    <path
       d="m 18.4725,1047.3622 3.18125,0 0,-3.1812 -3.18125,0 0,3.1812 z"
       style="fill:#888687;fill-opacity:0.49803922;fill-rule:nonzero;stroke:none"
       id="path4606"
       inkscape:connector-curvature="0" />
    <path
       d="m 21.9625,1019.9122 3.18125,0 0,-3.1813 -3.18125,0 0,3.1813 z"
       style="fill:#888687;fill-opacity:0.49803922;fill-rule:nonzero;stroke:none"
       id="path4608"
       inkscape:connector-curvature="0" />
    <path
       d="m 21.9625,1023.3434 3.18125,0 0,-3.1812 -3.18125,0 0,3.1812 z"
       style="fill:#888687;fill-opacity:0.49803922;fill-rule:nonzero;stroke:none"
       id="path4610"
       inkscape:connector-curvature="0" />
    <path
       d="m 21.9625,1026.7747 3.18125,0 0,-3.1813 -3.18125,0 0,3.1813 z"
       style="fill:#888687;fill-opacity:0.49803922;fill-rule:nonzero;stroke:none"
       id="path4612"
       inkscape:connector-curvature="0" />
    <path
       d="m 21.9625,1030.2059 3.18125,0 0,-3.1812 -3.18125,0 0,3.1812 z"
       style="fill:#888687;fill-opacity:0.49803922;fill-rule:nonzero;stroke:none"
       id="path4614"
       inkscape:connector-curvature="0" />
    <path
       d="m 21.9625,1033.6372 3.18125,0 0,-3.1813 -3.18125,0 0,3.1813 z"
       style="fill:#888687;fill-opacity:0.49803922;fill-rule:nonzero;stroke:none"
       id="path4616"
       inkscape:connector-curvature="0" />
    <path
       d="m 21.9625,1037.0684 3.18125,0 0,-3.1812 -3.18125,0 0,3.1812 z"
       style="fill:#888687;fill-opacity:0.49803922;fill-rule:nonzero;stroke:none"
       id="path4618"
       inkscape:connector-curvature="0" />
    <path
       d="m 21.9625,1047.3622 3.18125,0 0,-3.1812 -3.18125,0 0,3.1812 z"
       style="fill:#888687;fill-opacity:0.49803922;fill-rule:nonzero;stroke:none"
       id="path4620"
       inkscape:connector-curvature="0" />
    <path
       d="m 25.45375,1023.3434 3.18125,0 0,-3.1812 -3.18125,0 0,3.1812 z"
       style="fill:#888687;fill-opacity:0.49803922;fill-rule:nonzero;stroke:none"
       id="path4622"
       inkscape:connector-curvature="0" />
    <path
       d="m 25.45375,1037.0684 3.18125,0 0,-3.1812 -3.18125,0 0,3.1812 z"
       style="fill:#888687;fill-opacity:0.49803922;fill-rule:nonzero;stroke:none"
       id="path4624"
       inkscape:connector-curvature="0" />
    <path
       d="m 25.45375,1040.4997 3.18125,0 0,-3.1813 -3.18125,0 0,3.1813 z"
       style="fill:#888687;fill-opacity:0.49803922;fill-rule:nonzero;stroke:none"
       id="path4626"
       inkscape:connector-curvature="0" />
    <path
       d="m 25.45375,1043.9309 3.18125,0 0,-3.1812 -3.18125,0 0,3.1812 z"
       style="fill:#888687;fill-opacity:0.49803922;fill-rule:nonzero;stroke:none"
       id="path4628"
       inkscape:connector-curvature="0" />
    <path
       d="m 28.945,1019.9122 3.18125,0 0,-3.1813 -3.18125,0 0,3.1813 z"
       style="fill:#888687;fill-opacity:0.49803922;fill-rule:nonzero;stroke:none"
       id="path4630"
       inkscape:connector-curvature="0" />
    <path
       d="m 28.945,1023.3434 3.18125,0 0,-3.1812 -3.18125,0 0,3.1812 z"
       style="fill:#888687;fill-opacity:0.49803922;fill-rule:nonzero;stroke:none"
       id="path4632"
       inkscape:connector-curvature="0" />
    <path
       d="m 28.945,1026.7747 3.18125,0 0,-3.1813 -3.18125,0 0,3.1813 z"
       style="fill:#888687;fill-opacity:0.49803922;fill-rule:nonzero;stroke:none"
       id="path4634"
       inkscape:connector-curvature="0" />
    <path
       d="m 28.945,1030.2059 3.18125,0 0,-3.1812 -3.18125,0 0,3.1812 z"
       style="fill:#888687;fill-opacity:0.49803922;fill-rule:nonzero;stroke:none"
       id="path4636"
       inkscape:connector-curvature="0" />
    <path
       d="m 28.945,1033.6372 3.18125,0 0,-3.1813 -3.18125,0 0,3.1813 z"
       style="fill:#888687;fill-opacity:0.49803922;fill-rule:nonzero;stroke:none"
       id="path4638"
       inkscape:connector-curvature="0" />
    <path
       d="m 28.945,1037.0684 3.18125,0 0,-3.1812 -3.18125,0 0,3.1812 z"
       style="fill:#888687;fill-opacity:0.49803922;fill-rule:nonzero;stroke:none"
       id="path4640"
       inkscape:connector-curvature="0" />
    <path
       d="m 28.945,1040.4997 3.18125,0 0,-3.1813 -3.18125,0 0,3.1813 z"
       style="fill:#888687;fill-opacity:0.49803922;fill-rule:nonzero;stroke:none"
       id="path4642"
       inkscape:connector-curvature="0" />
    <path
       d="m 28.945,1043.9309 3.18125,0 0,-3.1812 -3.18125,0 0,3.1812 z"
       style="fill:#888687;fill-opacity:0.49803922;fill-rule:nonzero;stroke:none"
       id="path4644"
       inkscape:connector-curvature="0" />
    <path
       d="m 8,1047.3622 3.18125,0 0,-3.1812 -3.18125,0 0,3.1812 z"
       style="fill:#888687;fill-opacity:0.49803922;fill-rule:nonzero;stroke:none"
       id="path4646"
       inkscape:connector-curvature="0" />
    <path
       d="m 11.49125,1047.3622 3.18125,0 0,-3.1812 -3.18125,0 0,3.1812 z"
       style="fill:#888687;fill-opacity:0.49803922;fill-rule:nonzero;stroke:none"
       id="path4648"
       inkscape:connector-curvature="0" />
    <path
       d="m 25.45375,1047.3622 3.18125,0 0,-3.1812 -3.18125,0 0,3.1812 z"
       style="fill:#888687;fill-opacity:0.49803922;fill-rule:nonzero;stroke:none"
       id="path4650"
       inkscape:connector-curvature="0" />
    <path
       d="m 28.945,1047.3622 3.18125,0 0,-3.1812 -3.18125,0 0,3.1812 z"
       style="fill:#888687;fill-opacity:0.49803922;fill-rule:nonzero;stroke:none"
       id="path4652"
       inkscape:connector-curvature="0" />
  </g>
</svg>
