<?xml version="1.0" encoding="UTF-8" standalone="no"?>
<!-- Created with Inkscape (http://www.inkscape.org/) -->

<svg
   xmlns:dc="http://purl.org/dc/elements/1.1/"
   xmlns:cc="http://creativecommons.org/ns#"
   xmlns:rdf="http://www.w3.org/1999/02/22-rdf-syntax-ns#"
   xmlns:svg="http://www.w3.org/2000/svg"
   xmlns="http://www.w3.org/2000/svg"
   xmlns:sodipodi="http://sodipodi.sourceforge.net/DTD/sodipodi-0.dtd"
   xmlns:inkscape="http://www.inkscape.org/namespaces/inkscape"
   width="40"
   height="40"
   id="svg7869"
   version="1.1"
   inkscape:version="0.48+devel r"
   viewBox="0 0 40 40.000001"
   sodipodi:docname="mon_ico.svg"
   inkscape:export-filename="/opt/lampp/htdocs/otwarte/add-ons/themes/otwartezabytki2013/img/mon-ico.png"
   inkscape:export-xdpi="90.017723"
   inkscape:export-ydpi="90.017723">
  <defs
     id="defs7871" />
  <sodipodi:namedview
     id="base"
     pagecolor="#ffffff"
     bordercolor="#666666"
     borderopacity="1.0"
     inkscape:pageopacity="0.0"
     inkscape:pageshadow="2"
     inkscape:zoom="3.959798"
     inkscape:cx="28.730877"
     inkscape:cy="-12.241303"
     inkscape:document-units="px"
     inkscape:current-layer="layer1"
     showgrid="false"
     inkscape:window-width="1914"
     inkscape:window-height="864"
     inkscape:window-x="0"
     inkscape:window-y="0"
     inkscape:window-maximized="0" />
  <metadata
     id="metadata7874">
    <rdf:RDF>
      <cc:Work
         rdf:about="">
        <dc:format>image/svg+xml</dc:format>
        <dc:type
           rdf:resource="http://purl.org/dc/dcmitype/StillImage" />
        <dc:title></dc:title>
      </cc:Work>
    </rdf:RDF>
  </metadata>
  <g
     inkscape:label="Layer 1"
     inkscape:groupmode="layer"
     id="layer1"
     transform="translate(0,-1012.3622)">
    <g
       transform="matrix(1.25,0,0,-1.25,-372.88875,2091.3297)"
       id="g8625">
      <path
         inkscape:connector-curvature="0"
         id="path4564"
         style="fill:#373334;fill-opacity:1;fill-rule:nonzero;stroke:none"
         d="m 304.711,857.134 2.545,0 0,2.545 -2.545,0 0,-2.545 z" />
      <path
         inkscape:connector-curvature="0"
         id="path4566"
         style="fill:#373334;fill-opacity:1;fill-rule:nonzero;stroke:none"
         d="m 304.711,854.389 2.545,0 0,2.545 -2.545,0 0,-2.545 z" />
      <path
         inkscape:connector-curvature="0"
         id="path4568"
         style="fill:#373334;fill-opacity:1;fill-rule:nonzero;stroke:none"
         d="m 304.711,851.644 2.545,0 0,2.545 -2.545,0 0,-2.545 z" />
      <path
         inkscape:connector-curvature="0"
         id="path4570"
         style="fill:#373334;fill-opacity:1;fill-rule:nonzero;stroke:none"
         d="m 304.711,848.899 2.545,0 0,2.545 -2.545,0 0,-2.545 z" />
      <path
         inkscape:connector-curvature="0"
         id="path4572"
         style="fill:#373334;fill-opacity:1;fill-rule:nonzero;stroke:none"
         d="m 304.711,846.154 2.545,0 0,2.545 -2.545,0 0,-2.545 z" />
      <path
         inkscape:connector-curvature="0"
         id="path4574"
         style="fill:#373334;fill-opacity:1;fill-rule:nonzero;stroke:none"
         d="m 304.711,843.409 2.545,0 0,2.545 -2.545,0 0,-2.545 z" />
      <path
         inkscape:connector-curvature="0"
         id="path4576"
         style="fill:#373334;fill-opacity:1;fill-rule:nonzero;stroke:none"
         d="m 304.711,840.664 2.545,0 0,2.545 -2.545,0 0,-2.545 z" />
      <path
         inkscape:connector-curvature="0"
         id="path4578"
         style="fill:#373334;fill-opacity:1;fill-rule:nonzero;stroke:none"
         d="m 304.711,837.919 2.545,0 0,2.545 -2.545,0 0,-2.545 z" />
      <path
         inkscape:connector-curvature="0"
         id="path4580"
         style="fill:#373334;fill-opacity:1;fill-rule:nonzero;stroke:none"
         d="m 307.504,854.389 2.545,0 0,2.545 -2.545,0 0,-2.545 z" />
      <path
         inkscape:connector-curvature="0"
         id="path4582"
         style="fill:#373334;fill-opacity:1;fill-rule:nonzero;stroke:none"
         d="m 307.504,843.409 2.545,0 0,2.545 -2.545,0 0,-2.545 z" />
      <path
         inkscape:connector-curvature="0"
         id="path4584"
         style="fill:#373334;fill-opacity:1;fill-rule:nonzero;stroke:none"
         d="m 307.504,840.664 2.545,0 0,2.545 -2.545,0 0,-2.545 z" />
      <path
         inkscape:connector-curvature="0"
         id="path4586"
         style="fill:#373334;fill-opacity:1;fill-rule:nonzero;stroke:none"
         d="m 307.504,837.919 2.545,0 0,2.545 -2.545,0 0,-2.545 z" />
      <path
         inkscape:connector-curvature="0"
         id="path4588"
         style="fill:#373334;fill-opacity:1;fill-rule:nonzero;stroke:none"
         d="m 310.296,857.134 2.545,0 0,2.545 -2.545,0 0,-2.545 z" />
      <path
         inkscape:connector-curvature="0"
         id="path4590"
         style="fill:#373334;fill-opacity:1;fill-rule:nonzero;stroke:none"
         d="m 310.296,854.389 2.545,0 0,2.545 -2.545,0 0,-2.545 z" />
      <path
         inkscape:connector-curvature="0"
         id="path4592"
         style="fill:#373334;fill-opacity:1;fill-rule:nonzero;stroke:none"
         d="m 310.296,851.644 2.545,0 0,2.545 -2.545,0 0,-2.545 z" />
      <path
         inkscape:connector-curvature="0"
         id="path4594"
         style="fill:#373334;fill-opacity:1;fill-rule:nonzero;stroke:none"
         d="m 310.296,848.899 2.545,0 0,2.545 -2.545,0 0,-2.545 z" />
      <path
         inkscape:connector-curvature="0"
         id="path4596"
         style="fill:#373334;fill-opacity:1;fill-rule:nonzero;stroke:none"
         d="m 310.296,846.154 2.545,0 0,2.545 -2.545,0 0,-2.545 z" />
      <path
         inkscape:connector-curvature="0"
         id="path4598"
         style="fill:#373334;fill-opacity:1;fill-rule:nonzero;stroke:none"
         d="m 310.296,843.409 2.545,0 0,2.545 -2.545,0 0,-2.545 z" />
      <path
         inkscape:connector-curvature="0"
         id="path4600"
         style="fill:#373334;fill-opacity:1;fill-rule:nonzero;stroke:none"
         d="m 310.296,835.174 2.545,0 0,2.545 -2.545,0 0,-2.545 z" />
      <path
         inkscape:connector-curvature="0"
         id="path4602"
         style="fill:#373334;fill-opacity:1;fill-rule:nonzero;stroke:none"
         d="m 313.089,854.389 2.545,0 0,2.545 -2.545,0 0,-2.545 z" />
      <path
         inkscape:connector-curvature="0"
         id="path4604"
         style="fill:#373334;fill-opacity:1;fill-rule:nonzero;stroke:none"
         d="m 313.089,843.409 2.545,0 0,2.545 -2.545,0 0,-2.545 z" />
      <path
         inkscape:connector-curvature="0"
         id="path4606"
         style="fill:#373334;fill-opacity:1;fill-rule:nonzero;stroke:none"
         d="m 313.089,835.174 2.545,0 0,2.545 -2.545,0 0,-2.545 z" />
      <path
         inkscape:connector-curvature="0"
         id="path4608"
         style="fill:#373334;fill-opacity:1;fill-rule:nonzero;stroke:none"
         d="m 315.881,857.134 2.545,0 0,2.545 -2.545,0 0,-2.545 z" />
      <path
         inkscape:connector-curvature="0"
         id="path4610"
         style="fill:#373334;fill-opacity:1;fill-rule:nonzero;stroke:none"
         d="m 315.881,854.389 2.545,0 0,2.545 -2.545,0 0,-2.545 z" />
      <path
         inkscape:connector-curvature="0"
         id="path4612"
         style="fill:#373334;fill-opacity:1;fill-rule:nonzero;stroke:none"
         d="m 315.881,851.644 2.545,0 0,2.545 -2.545,0 0,-2.545 z" />
      <path
         inkscape:connector-curvature="0"
         id="path4614"
         style="fill:#373334;fill-opacity:1;fill-rule:nonzero;stroke:none"
         d="m 315.881,848.899 2.545,0 0,2.545 -2.545,0 0,-2.545 z" />
      <path
         inkscape:connector-curvature="0"
         id="path4616"
         style="fill:#373334;fill-opacity:1;fill-rule:nonzero;stroke:none"
         d="m 315.881,846.154 2.545,0 0,2.545 -2.545,0 0,-2.545 z" />
      <path
         inkscape:connector-curvature="0"
         id="path4618"
         style="fill:#373334;fill-opacity:1;fill-rule:nonzero;stroke:none"
         d="m 315.881,843.409 2.545,0 0,2.545 -2.545,0 0,-2.545 z" />
      <path
         inkscape:connector-curvature="0"
         id="path4620"
         style="fill:#373334;fill-opacity:1;fill-rule:nonzero;stroke:none"
         d="m 315.881,835.174 2.545,0 0,2.545 -2.545,0 0,-2.545 z" />
      <path
         inkscape:connector-curvature="0"
         id="path4622"
         style="fill:#373334;fill-opacity:1;fill-rule:nonzero;stroke:none"
         d="m 318.674,854.389 2.545,0 0,2.545 -2.545,0 0,-2.545 z" />
      <path
         inkscape:connector-curvature="0"
         id="path4624"
         style="fill:#373334;fill-opacity:1;fill-rule:nonzero;stroke:none"
         d="m 318.674,843.409 2.545,0 0,2.545 -2.545,0 0,-2.545 z" />
      <path
         inkscape:connector-curvature="0"
         id="path4626"
         style="fill:#373334;fill-opacity:1;fill-rule:nonzero;stroke:none"
         d="m 318.674,840.664 2.545,0 0,2.545 -2.545,0 0,-2.545 z" />
      <path
         inkscape:connector-curvature="0"
         id="path4628"
         style="fill:#373334;fill-opacity:1;fill-rule:nonzero;stroke:none"
         d="m 318.674,837.919 2.545,0 0,2.545 -2.545,0 0,-2.545 z" />
      <path
         inkscape:connector-curvature="0"
         id="path4630"
         style="fill:#373334;fill-opacity:1;fill-rule:nonzero;stroke:none"
         d="m 321.467,857.134 2.545,0 0,2.545 -2.545,0 0,-2.545 z" />
      <path
         inkscape:connector-curvature="0"
         id="path4632"
         style="fill:#373334;fill-opacity:1;fill-rule:nonzero;stroke:none"
         d="m 321.467,854.389 2.545,0 0,2.545 -2.545,0 0,-2.545 z" />
      <path
         inkscape:connector-curvature="0"
         id="path4634"
         style="fill:#373334;fill-opacity:1;fill-rule:nonzero;stroke:none"
         d="m 321.467,851.644 2.545,0 0,2.545 -2.545,0 0,-2.545 z" />
      <path
         inkscape:connector-curvature="0"
         id="path4636"
         style="fill:#373334;fill-opacity:1;fill-rule:nonzero;stroke:none"
         d="m 321.467,848.899 2.545,0 0,2.545 -2.545,0 0,-2.545 z" />
      <path
         inkscape:connector-curvature="0"
         id="path4638"
         style="fill:#373334;fill-opacity:1;fill-rule:nonzero;stroke:none"
         d="m 321.467,846.154 2.545,0 0,2.545 -2.545,0 0,-2.545 z" />
      <path
         inkscape:connector-curvature="0"
         id="path4640"
         style="fill:#373334;fill-opacity:1;fill-rule:nonzero;stroke:none"
         d="m 321.467,843.409 2.545,0 0,2.545 -2.545,0 0,-2.545 z" />
      <path
         inkscape:connector-curvature="0"
         id="path4642"
         style="fill:#373334;fill-opacity:1;fill-rule:nonzero;stroke:none"
         d="m 321.467,840.664 2.545,0 0,2.545 -2.545,0 0,-2.545 z" />
      <path
         inkscape:connector-curvature="0"
         id="path4644"
         style="fill:#373334;fill-opacity:1;fill-rule:nonzero;stroke:none"
         d="m 321.467,837.919 2.545,0 0,2.545 -2.545,0 0,-2.545 z" />
      <path
         inkscape:connector-curvature="0"
         id="path4646"
         style="fill:#373334;fill-opacity:1;fill-rule:nonzero;stroke:none"
         d="m 304.711,835.174 2.545,0 0,2.545 -2.545,0 0,-2.545 z" />
      <path
         inkscape:connector-curvature="0"
         id="path4648"
         style="fill:#373334;fill-opacity:1;fill-rule:nonzero;stroke:none"
         d="m 307.504,835.174 2.545,0 0,2.545 -2.545,0 0,-2.545 z" />
      <path
         inkscape:connector-curvature="0"
         id="path4650"
         style="fill:#373334;fill-opacity:1;fill-rule:nonzero;stroke:none"
         d="m 318.674,835.174 2.545,0 0,2.545 -2.545,0 0,-2.545 z" />
      <path
         inkscape:connector-curvature="0"
         id="path4652"
         style="fill:#373334;fill-opacity:1;fill-rule:nonzero;stroke:none"
         d="m 321.467,835.174 2.545,0 0,2.545 -2.545,0 0,-2.545 z" />
    </g>
  </g>
</svg>
