<?xml version="1.0" encoding="UTF-8" standalone="no"?>
<!-- Created with Inkscape (http://www.inkscape.org/) -->

<svg
   xmlns:dc="http://purl.org/dc/elements/1.1/"
   xmlns:cc="http://creativecommons.org/ns#"
   xmlns:rdf="http://www.w3.org/1999/02/22-rdf-syntax-ns#"
   xmlns:svg="http://www.w3.org/2000/svg"
   xmlns="http://www.w3.org/2000/svg"
   version="1.1"
   width="140"
   height="30"
   viewBox="0 0 140 30"
   id="svg7985">
  <defs
     id="defs7987">
    <clipPath
       id="clipPath5056">
      <path
         d="m 0,0 1024,0 0,1600 L 0,1600 0,0 Z"
         id="path5058" />
    </clipPath>
    <clipPath
       id="clipPath5072">
      <path
         d="m 0,0 1024,0 0,1600 L 0,1600 0,0 Z"
         id="path5074" />
    </clipPath>
    <clipPath
       id="clipPath5092">
      <path
         d="m 395.258,108.14 10.243,0 0,8.647 -10.243,0 0,-8.647 z"
         id="path5094" />
    </clipPath>
    <clipPath
       id="clipPath5108">
      <path
         d="m 0,0 1024,0 0,1600 L 0,1600 0,0 Z"
         id="path5110" />
    </clipPath>
    <clipPath
       id="clipPath5132">
      <path
         d="m 0,0 1024,0 0,1600 L 0,1600 0,0 Z"
         id="path5134" />
    </clipPath>
    <clipPath
       id="clipPath5148">
      <path
         d="m 0,0 1024,0 0,1600 L 0,1600 0,0 Z"
         id="path5150" />
    </clipPath>
    <clipPath
       id="clipPath5176">
      <path
         d="m 0,0 1024,0 0,1600 L 0,1600 0,0 Z"
         id="path5178" />
    </clipPath>
    <clipPath
       id="clipPath5204">
      <path
         d="m 0,0 1024,0 0,1600 L 0,1600 0,0 Z"
         id="path5206" />
    </clipPath>
  </defs>
  <metadata
     id="metadata7990">
    <rdf:RDF>
      <cc:Work
         rdf:about="">
        <dc:format>image/svg+xml</dc:format>
        <dc:type
           rdf:resource="http://purl.org/dc/dcmitype/StillImage" />
        <dc:title></dc:title>
      </cc:Work>
    </rdf:RDF>
  </metadata>
  <g
     transform="translate(0,-1022.3622)"
     id="layer1">
    <g
       transform="matrix(1.25,0,0,-1.25,-489.24368,1184.5655)"
       id="g7824">
      <g
         transform="translate(417.3225,121.1751)"
         id="g5048">
        <path
           d="M 0,0 -1.908,3.789 -4.07,0 l 0,-4.2 -4.269,0 -2.425,-3.069 0,-5.779 10.764,0 L 0,0 Z"
           id="path5050"
           style="fill:#c20b8d;fill-opacity:1;fill-rule:nonzero;stroke:none" />
      </g>
      <g
         id="g5052">
        <g
           clip-path="url(#clipPath5056)"
           id="g5054">
          <g
             transform="translate(424.4358,126.4325)"
             id="g5060">
            <path
               d="M 0,0 0,0.01 C 0,0.007 -0.001,0.007 -0.001,0.005 c 0,0.002 -0.001,0.002 -0.001,0.005 l 0,-0.01 c -0.022,-1.545 -5.365,-3.414 -5.365,-5.709 0,-2.298 1.776,-2.63 1.776,-2.63 l 0.371,-0.892 3.107,0 0.224,0 3.107,0 0.37,0.892 c 0,0 1.777,0.332 1.777,2.63 C 5.365,-3.414 0.022,-1.545 0,0"
               id="path5062"
               style="fill:#36a496;fill-opacity:1;fill-rule:nonzero;stroke:none" />
          </g>
        </g>
      </g>
      <g
         transform="translate(429.0374,108.1084)"
         id="g5064">
        <path
           d="m 0,0 -9.011,0 1.12,9.384 6.576,0 L 0,0 Z"
           id="path5066"
           style="fill:#36a496;fill-opacity:1;fill-rule:nonzero;stroke:none" />
      </g>
      <g
         id="g5068">
        <g
           clip-path="url(#clipPath5072)"
           id="g5070">
          <g
             transform="translate(425.3202,126.522)"
             id="g5076">
            <path
               d="m 0,0 c 0,-0.494 -0.403,-0.899 -0.9,-0.899 -0.496,0 -0.899,0.405 -0.899,0.899 0,0.494 0.403,0.899 0.899,0.899 C -0.403,0.899 0,0.494 0,0"
               id="path5078"
               style="fill:#36a496;fill-opacity:1;fill-rule:nonzero;stroke:none" />
          </g>
        </g>
      </g>
      <g
         transform="translate(440.757,119.7873)"
         id="g5080">
        <path
           d="m 0,0 -3.819,2.188 -3.774,-2.191 -1.572,-3.349 0,-8.331 10.764,0 0,8.331 L 0,0 Z m -4.119,-9.664 -2.36,0 0,2.359 2.36,0 0,-2.359 z m 0,3.095 -2.36,0 0,2.359 2.36,0 0,-2.359 z m 3.032,-3.095 -2.36,0 0,2.359 2.36,0 0,-2.359 z m 0,3.095 -2.36,0 0,2.359 2.36,0 0,-2.359 z"
           id="path5082"
           style="fill:#f9a50d;fill-opacity:1;fill-rule:nonzero;stroke:none" />
      </g>
      <g
         transform="translate(403.3881,120.8642)"
         id="g5084">
        <path
           d="M 0,0 -4.378,2.509 -8.698,0 l 0,-12.721 8.698,0 L 0,0 Z"
           id="path5086"
           style="fill:#df2624;fill-opacity:1;fill-rule:nonzero;stroke:none" />
      </g>
      <g
         id="g5088">
        <g
           clip-path="url(#clipPath5092)"
           id="g5090">
          <g
             transform="translate(404.7838,111.4061)"
             id="g5096">
            <path
               d="m 0,0 c 0,-2.381 -1.93,-4.311 -4.311,-4.311 -2.381,0 -4.311,1.93 -4.311,4.311 0,2.381 1.93,4.311 4.311,4.311 C -1.93,4.311 0,2.381 0,0"
               id="path5098"
               style="fill:#ffffff;fill-opacity:1;fill-rule:nonzero;stroke:none" />
          </g>
          <g
             transform="translate(400.4726,106.4743)"
             id="g5100">
            <path
               d="m 0,0 c -2.719,0 -4.932,2.212 -4.932,4.932 0,2.719 2.213,4.931 4.932,4.931 2.719,0 4.932,-2.212 4.932,-4.931 C 4.932,2.212 2.719,0 0,0 m 0,8.622 c -2.035,0 -3.69,-1.655 -3.69,-3.69 0,-2.035 1.655,-3.691 3.69,-3.691 2.035,0 3.69,1.656 3.69,3.691 0,2.035 -1.655,3.69 -3.69,3.69"
               id="path5102"
               style="fill:#df2624;fill-opacity:1;fill-rule:nonzero;stroke:none" />
          </g>
        </g>
      </g>
      <g
         id="g5104">
        <g
           clip-path="url(#clipPath5108)"
           id="g5106">
          <g
             transform="translate(401.8461,111.375)"
             id="g5112">
            <path
               d="m 0,0 c 0,-0.672 -0.545,-1.217 -1.217,-1.217 -0.672,0 -1.217,0.545 -1.217,1.217 0,0.672 0.545,1.217 1.217,1.217 C -0.545,1.217 0,0.672 0,0"
               id="path5114"
               style="fill:#df2624;fill-opacity:1;fill-rule:nonzero;stroke:none" />
          </g>
        </g>
      </g>
      <path
         d="m 400.309,108.151 0.627,0 0,7.184 -0.627,0 0,-7.184 z"
         id="path5116"
         style="fill:#df2624;fill-opacity:1;fill-rule:nonzero;stroke:none" />
      <path
         d="m 396.751,111.02 7.697,0 0,0.627 -7.697,0 0,-0.627 z"
         id="path5118"
         style="fill:#df2624;fill-opacity:1;fill-rule:nonzero;stroke:none" />
      <g
         transform="translate(398.0677,108.3507)"
         id="g5120">
        <path
           d="M 0,0 -0.444,0.444 5.086,5.974 5.531,5.53 0,0 Z"
           id="path5122"
           style="fill:#df2624;fill-opacity:1;fill-rule:nonzero;stroke:none" />
      </g>
      <g
         transform="translate(397.6156,113.9052)"
         id="g5124">
        <path
           d="M 0,0 0.444,0.444 5.974,-5.086 5.53,-5.53 0,0 Z"
           id="path5126"
           style="fill:#df2624;fill-opacity:1;fill-rule:nonzero;stroke:none" />
      </g>
      <g
         id="g5128">
        <g
           clip-path="url(#clipPath5132)"
           id="g5130">
          <g
             transform="translate(449.0011,125.0435)"
             id="g5136">
            <path
               d="m 0,0 c 2.008,0 3.636,-1.528 3.636,-3.636 0,-2.108 -1.628,-3.636 -3.636,-3.636 -2.008,0 -3.626,1.528 -3.626,3.636 C -3.626,-1.528 -2.008,0 0,0 m 0,-6.473 c 1.578,0 2.787,1.159 2.787,2.837 0,1.698 -1.209,2.837 -2.787,2.837 -1.588,0 -2.787,-1.139 -2.787,-2.837 0,-1.678 1.199,-2.837 2.787,-2.837"
               id="path5138"
               style="fill:#656263;fill-opacity:1;fill-rule:nonzero;stroke:none" />
          </g>
        </g>
      </g>
      <g
         transform="translate(459.7484,124.9036)"
         id="g5140">
        <path
           d="m 0,0 0,-0.769 -2.347,0 0,-6.224 -0.81,0 0,6.224 -2.337,0 0,0.769 L 0,0 Z"
           id="path5142"
           style="fill:#656263;fill-opacity:1;fill-rule:nonzero;stroke:none" />
      </g>
      <g
         id="g5144">
        <g
           clip-path="url(#clipPath5148)"
           id="g5146">
          <g
             transform="translate(471.0153,124.9036)"
             id="g5152">
            <path
               d="m 0,0 -2.368,-6.993 -0.719,0 -1.159,3.677 c -0.309,0.989 -0.379,1.368 -0.389,1.368 l -0.01,0 c -0.01,0 -0.07,-0.39 -0.38,-1.368 l -1.159,-3.677 -0.719,0 L -9.27,0 l 0.849,0 1.578,-4.725 c 0.19,-0.599 0.29,-1.019 0.3,-1.019 l 0.01,0 c 0.01,0 0.09,0.42 0.3,1.019 l 1.238,3.786 0.719,0 1.239,-3.786 c 0.21,-0.599 0.29,-1.019 0.3,-1.019 l 0.01,0 c 0.01,0 0.11,0.42 0.3,1.019 L -0.849,0 0,0 Z"
               id="path5154"
               style="fill:#656263;fill-opacity:1;fill-rule:nonzero;stroke:none" />
          </g>
          <g
             transform="translate(476.8077,119.739)"
             id="g5156">
            <path
               d="m 0,0 -3.506,0 -0.779,-1.828 -0.88,0 3.037,6.993 0.749,0 3.037,-6.993 -0.879,0 L 0,0 Z m -0.31,0.729 -1.109,2.598 c -0.149,0.359 -0.319,0.849 -0.329,0.849 l -0.01,0 c -0.01,0 -0.18,-0.49 -0.33,-0.849 l -1.109,-2.598 2.887,0 z"
               id="path5158"
               style="fill:#656263;fill-opacity:1;fill-rule:nonzero;stroke:none" />
          </g>
          <g
             transform="translate(484.7783,117.911)"
             id="g5160">
            <path
               d="m 0,0 -1.579,2.617 c -0.109,-0.01 -0.239,-0.01 -0.359,-0.01 l -1.309,0 0,-2.607 -0.819,0 0,6.993 2.128,0 c 1.638,0 2.617,-0.86 2.617,-2.208 0,-0.999 -0.529,-1.708 -1.458,-2.008 L 0.919,0 0,0 Z m -1.858,3.337 c 1.119,0 1.698,0.609 1.698,1.448 0,0.889 -0.629,1.438 -1.698,1.438 l -1.389,0 0,-2.886 1.389,0 z"
               id="path5162"
               style="fill:#656263;fill-opacity:1;fill-rule:nonzero;stroke:none" />
          </g>
        </g>
      </g>
      <g
         transform="translate(492.9783,124.9036)"
         id="g5164">
        <path
           d="m 0,0 0,-0.769 -2.348,0 0,-6.224 -0.809,0 0,6.224 -2.337,0 0,0.769 L 0,0 Z"
           id="path5166"
           style="fill:#656263;fill-opacity:1;fill-rule:nonzero;stroke:none" />
      </g>
      <g
         transform="translate(500.0998,118.6802)"
         id="g5168">
        <path
           d="m 0,0 0,-0.769 -4.725,0 0,6.992 4.665,0 0,-0.769 -3.846,0 0,-2.157 3.087,0 0,-0.73 -3.087,0 L -3.906,0 0,0 Z"
           id="path5170"
           style="fill:#656263;fill-opacity:1;fill-rule:nonzero;stroke:none" />
      </g>
      <g
         id="g5172">
        <g
           clip-path="url(#clipPath5176)"
           id="g5174">
          <g
             transform="translate(451.6457,114.8025)"
             id="g5180">
            <path
               d="m 0,0 -4.367,-5.23 c -0.309,-0.362 -0.554,-0.607 -0.554,-0.618 l 0.011,-0.01 c 0.01,0 0.415,0.032 0.958,0.032 l 3.952,0 0,-0.82 -6.071,0 0,0.809 4.431,5.262 c 0.213,0.255 0.564,0.564 0.564,0.575 l -0.01,0.011 c -0.011,0 -0.416,-0.022 -0.97,-0.022 l -3.909,0 0,0.821 L 0,0.81 0,0 Z"
               id="path5182"
               style="fill:#656263;fill-opacity:1;fill-rule:nonzero;stroke:none" />
          </g>
          <g
             transform="translate(459.7101,110.1054)"
             id="g5184">
            <path
               d="m 0,0 -3.739,0 -0.83,-1.949 -0.938,0 3.238,7.456 0.799,0 3.238,-7.456 -0.937,0 L 0,0 Z m -0.33,0.778 -1.183,2.769 c -0.159,0.383 -0.34,0.905 -0.351,0.905 l -0.011,0 c -0.01,0 -0.191,-0.522 -0.351,-0.905 l -1.182,-2.769 3.078,0 z"
               id="path5186"
               style="fill:#656263;fill-opacity:1;fill-rule:nonzero;stroke:none" />
          </g>
          <g
             transform="translate(467.178,115.612)"
             id="g5188">
            <path
               d="m 0,0 c 1.278,0 2.152,-0.756 2.152,-1.832 0,-0.756 -0.64,-1.406 -1.236,-1.523 l 0,-0.011 c 0.724,-0.096 1.715,-0.831 1.715,-1.896 0,-1.289 -0.895,-2.194 -2.461,-2.194 l -2.971,0 0,7.456 L 0,0 Z m -0.17,-3.099 c 0.862,0 1.448,0.543 1.448,1.182 0,0.703 -0.586,1.161 -1.448,1.161 l -1.758,0 0,-2.343 1.758,0 z M 0.117,-6.7 c 0.916,0 1.609,0.554 1.609,1.449 0,0.852 -0.757,1.459 -1.662,1.459 l -1.992,0 0,-2.908 2.045,0 z"
               id="path5190"
               style="fill:#656263;fill-opacity:1;fill-rule:nonzero;stroke:none" />
          </g>
          <g
             transform="translate(478.3526,115.612)"
             id="g5192">
            <path
               d="m 0,0 -2.897,-3.792 0,-3.664 -0.863,0 0,3.664 -2.887,3.792 0.991,0 1.875,-2.439 c 0.191,-0.245 0.447,-0.586 0.458,-0.586 l 0.01,0 c 0.011,0 0.266,0.341 0.448,0.586 L -1.001,0 0,0 Z"
               id="path5194"
               style="fill:#656263;fill-opacity:1;fill-rule:nonzero;stroke:none" />
          </g>
        </g>
      </g>
      <g
         transform="translate(486.7362,115.612)"
         id="g5196">
        <path
           d="m 0,0 0,-0.82 -2.503,0 0,-6.636 -0.863,0 0,6.636 -2.492,0 0,0.82 L 0,0 Z"
           id="path5198"
           style="fill:#656263;fill-opacity:1;fill-rule:nonzero;stroke:none" />
      </g>
      <g
         id="g5200">
        <g
           clip-path="url(#clipPath5204)"
           id="g5202">
          <g
             transform="translate(494.7046,108.1561)"
             id="g5208">
            <path
               d="m 0,0 -2.823,3.824 -1.214,-1.214 0,-2.61 -0.873,0 0,7.456 0.873,0 0,-1.992 c 0,-1.193 -0.021,-1.8 -0.01,-1.8 l 0.01,0 c 0.011,0 0.671,0.692 1.246,1.268 l 2.525,2.524 1.076,0 L -2.237,4.41 1.033,0 0,0 Z"
               id="path5210"
               style="fill:#656263;fill-opacity:1;fill-rule:nonzero;stroke:none" />
          </g>
        </g>
      </g>
      <path
         d="m 498.966,108.156 0.874,0 0,7.456 -0.874,0 0,-7.456 z"
         id="path5212"
         style="fill:#656263;fill-opacity:1;fill-rule:nonzero;stroke:none" />
    </g>
  </g>
</svg>
