<?xml version="1.0" encoding="UTF-8" standalone="no"?>
<!-- Created with Inkscape (http://www.inkscape.org/) -->

<svg
   xmlns:dc="http://purl.org/dc/elements/1.1/"
   xmlns:cc="http://creativecommons.org/ns#"
   xmlns:rdf="http://www.w3.org/1999/02/22-rdf-syntax-ns#"
   xmlns:svg="http://www.w3.org/2000/svg"
   xmlns="http://www.w3.org/2000/svg"
   xmlns:sodipodi="http://sodipodi.sourceforge.net/DTD/sodipodi-0.dtd"
   xmlns:inkscape="http://www.inkscape.org/namespaces/inkscape"
   width="40"
   height="40"
   id="svg3243"
   version="1.1"
   inkscape:version="0.48.5 r10040"
   sodipodi:docname="doc:hover.svg">
  <defs
     id="defs3245">
    <clipPath
       clipPathUnits="userSpaceOnUse"
       id="clipPath102">
      <path
         inkscape:connector-curvature="0"
         d="m 0,0 841.89,0 0,595.276 L 0,595.276 0,0 z"
         id="path104" />
    </clipPath>
  </defs>
  <sodipodi:namedview
     id="base"
     pagecolor="#ffffa9"
     bordercolor="#666666"
     borderopacity="1.0"
     inkscape:pageopacity="0"
     inkscape:pageshadow="2"
     inkscape:zoom="7.919596"
     inkscape:cx="4.3620448"
     inkscape:cy="-1.396586"
     inkscape:document-units="px"
     inkscape:current-layer="layer1"
     showgrid="false"
     inkscape:window-width="1920"
     inkscape:window-height="1056"
     inkscape:window-x="0"
     inkscape:window-y="24"
     inkscape:window-maximized="1"
     showguides="true"
     inkscape:guide-bbox="true">
    <sodipodi:guide
       orientation="0,1"
       position="26.696429,35.535714"
       id="guide3344" />
    <sodipodi:guide
       orientation="0,1"
       position="29.553572,5"
       id="guide3346" />
    <sodipodi:guide
       orientation="1,0"
       position="8.4821429,11.160714"
       id="guide3348" />
  </sodipodi:namedview>
  <metadata
     id="metadata3248">
    <rdf:RDF>
      <cc:Work
         rdf:about="">
        <dc:format>image/svg+xml</dc:format>
        <dc:type
           rdf:resource="http://purl.org/dc/dcmitype/StillImage" />
        <dc:title></dc:title>
      </cc:Work>
    </rdf:RDF>
  </metadata>
  <g
     inkscape:label="Layer 1"
     inkscape:groupmode="layer"
     id="layer1"
     transform="translate(0,-1012.3622)">
    <rect
       style="fill:#808080;fill-opacity:0.94117647;stroke:#ffffff;stroke-opacity:1"
       id="rect4260"
       width="79.044434"
       height="64.346458"
       x="-83.463852"
       y="1002.1578" />
    <g
       id="g66"
       transform="matrix(0.62944771,0,0,-0.62944771,33.901323,1026.0805)" />
    <g
       transform="translate(0.4821429,0.095536)"
       id="layer1-5"
       inkscape:label="Layer 1"
       style="fill:#ffffff">
      <g
         id="g8625"
         transform="matrix(1.25,0,0,-1.25,-372.88875,2091.3297)"
         style="fill:#ffffff">
        <path
           d="m 304.711,857.134 2.545,0 0,2.545 -2.545,0 0,-2.545 z"
           style="fill:#ffffff;fill-opacity:1;fill-rule:nonzero;stroke:none"
           id="path4564"
           inkscape:connector-curvature="0" />
        <path
           d="m 304.711,854.389 2.545,0 0,2.545 -2.545,0 0,-2.545 z"
           style="fill:#ffffff;fill-opacity:1;fill-rule:nonzero;stroke:none"
           id="path4566"
           inkscape:connector-curvature="0" />
        <path
           d="m 304.711,851.644 2.545,0 0,2.545 -2.545,0 0,-2.545 z"
           style="fill:#ffffff;fill-opacity:1;fill-rule:nonzero;stroke:none"
           id="path4568"
           inkscape:connector-curvature="0" />
        <path
           d="m 304.711,848.899 2.545,0 0,2.545 -2.545,0 0,-2.545 z"
           style="fill:#ffffff;fill-opacity:1;fill-rule:nonzero;stroke:none"
           id="path4570"
           inkscape:connector-curvature="0" />
        <path
           d="m 304.711,846.154 2.545,0 0,2.545 -2.545,0 0,-2.545 z"
           style="fill:#ffffff;fill-opacity:1;fill-rule:nonzero;stroke:none"
           id="path4572"
           inkscape:connector-curvature="0" />
        <path
           d="m 304.711,843.409 2.545,0 0,2.545 -2.545,0 0,-2.545 z"
           style="fill:#ffffff;fill-opacity:1;fill-rule:nonzero;stroke:none"
           id="path4574"
           inkscape:connector-curvature="0" />
        <path
           d="m 304.711,840.664 2.545,0 0,2.545 -2.545,0 0,-2.545 z"
           style="fill:#ffffff;fill-opacity:1;fill-rule:nonzero;stroke:none"
           id="path4576"
           inkscape:connector-curvature="0" />
        <path
           d="m 304.711,837.919 2.545,0 0,2.545 -2.545,0 0,-2.545 z"
           style="fill:#ffffff;fill-opacity:1;fill-rule:nonzero;stroke:none"
           id="path4578"
           inkscape:connector-curvature="0" />
        <path
           d="m 307.504,854.389 2.545,0 0,2.545 -2.545,0 0,-2.545 z"
           style="fill:#ffffff;fill-opacity:1;fill-rule:nonzero;stroke:none"
           id="path4580"
           inkscape:connector-curvature="0" />
        <path
           d="m 307.504,843.409 2.545,0 0,2.545 -2.545,0 0,-2.545 z"
           style="fill:#ffffff;fill-opacity:1;fill-rule:nonzero;stroke:none"
           id="path4582"
           inkscape:connector-curvature="0" />
        <path
           d="m 307.504,840.664 2.545,0 0,2.545 -2.545,0 0,-2.545 z"
           style="fill:#ffffff;fill-opacity:1;fill-rule:nonzero;stroke:none"
           id="path4584"
           inkscape:connector-curvature="0" />
        <path
           d="m 307.504,837.919 2.545,0 0,2.545 -2.545,0 0,-2.545 z"
           style="fill:#ffffff;fill-opacity:1;fill-rule:nonzero;stroke:none"
           id="path4586"
           inkscape:connector-curvature="0" />
        <path
           d="m 310.296,857.134 2.545,0 0,2.545 -2.545,0 0,-2.545 z"
           style="fill:#ffffff;fill-opacity:1;fill-rule:nonzero;stroke:none"
           id="path4588"
           inkscape:connector-curvature="0" />
        <path
           d="m 310.296,854.389 2.545,0 0,2.545 -2.545,0 0,-2.545 z"
           style="fill:#ffffff;fill-opacity:1;fill-rule:nonzero;stroke:none"
           id="path4590"
           inkscape:connector-curvature="0" />
        <path
           d="m 310.296,851.644 2.545,0 0,2.545 -2.545,0 0,-2.545 z"
           style="fill:#ffffff;fill-opacity:1;fill-rule:nonzero;stroke:none"
           id="path4592"
           inkscape:connector-curvature="0" />
        <path
           d="m 310.296,848.899 2.545,0 0,2.545 -2.545,0 0,-2.545 z"
           style="fill:#ffffff;fill-opacity:1;fill-rule:nonzero;stroke:none"
           id="path4594"
           inkscape:connector-curvature="0" />
        <path
           d="m 310.296,846.154 2.545,0 0,2.545 -2.545,0 0,-2.545 z"
           style="fill:#ffffff;fill-opacity:1;fill-rule:nonzero;stroke:none"
           id="path4596"
           inkscape:connector-curvature="0" />
        <path
           d="m 310.296,843.409 2.545,0 0,2.545 -2.545,0 0,-2.545 z"
           style="fill:#ffffff;fill-opacity:1;fill-rule:nonzero;stroke:none"
           id="path4598"
           inkscape:connector-curvature="0" />
        <path
           d="m 310.296,835.174 2.545,0 0,2.545 -2.545,0 0,-2.545 z"
           style="fill:#ffffff;fill-opacity:1;fill-rule:nonzero;stroke:none"
           id="path4600"
           inkscape:connector-curvature="0" />
        <path
           d="m 313.089,854.389 2.545,0 0,2.545 -2.545,0 0,-2.545 z"
           style="fill:#ffffff;fill-opacity:1;fill-rule:nonzero;stroke:none"
           id="path4602"
           inkscape:connector-curvature="0" />
        <path
           d="m 313.089,843.409 2.545,0 0,2.545 -2.545,0 0,-2.545 z"
           style="fill:#ffffff;fill-opacity:1;fill-rule:nonzero;stroke:none"
           id="path4604"
           inkscape:connector-curvature="0" />
        <path
           d="m 313.089,835.174 2.545,0 0,2.545 -2.545,0 0,-2.545 z"
           style="fill:#ffffff;fill-opacity:1;fill-rule:nonzero;stroke:none"
           id="path4606"
           inkscape:connector-curvature="0" />
        <path
           d="m 315.881,857.134 2.545,0 0,2.545 -2.545,0 0,-2.545 z"
           style="fill:#ffffff;fill-opacity:1;fill-rule:nonzero;stroke:none"
           id="path4608"
           inkscape:connector-curvature="0" />
        <path
           d="m 315.881,854.389 2.545,0 0,2.545 -2.545,0 0,-2.545 z"
           style="fill:#ffffff;fill-opacity:1;fill-rule:nonzero;stroke:none"
           id="path4610"
           inkscape:connector-curvature="0" />
        <path
           d="m 315.881,851.644 2.545,0 0,2.545 -2.545,0 0,-2.545 z"
           style="fill:#ffffff;fill-opacity:1;fill-rule:nonzero;stroke:none"
           id="path4612"
           inkscape:connector-curvature="0" />
        <path
           d="m 315.881,848.899 2.545,0 0,2.545 -2.545,0 0,-2.545 z"
           style="fill:#ffffff;fill-opacity:1;fill-rule:nonzero;stroke:none"
           id="path4614"
           inkscape:connector-curvature="0" />
        <path
           d="m 315.881,846.154 2.545,0 0,2.545 -2.545,0 0,-2.545 z"
           style="fill:#ffffff;fill-opacity:1;fill-rule:nonzero;stroke:none"
           id="path4616"
           inkscape:connector-curvature="0" />
        <path
           d="m 315.881,843.409 2.545,0 0,2.545 -2.545,0 0,-2.545 z"
           style="fill:#ffffff;fill-opacity:1;fill-rule:nonzero;stroke:none"
           id="path4618"
           inkscape:connector-curvature="0" />
        <path
           d="m 315.881,835.174 2.545,0 0,2.545 -2.545,0 0,-2.545 z"
           style="fill:#ffffff;fill-opacity:1;fill-rule:nonzero;stroke:none"
           id="path4620"
           inkscape:connector-curvature="0" />
        <path
           d="m 318.674,854.389 2.545,0 0,2.545 -2.545,0 0,-2.545 z"
           style="fill:#ffffff;fill-opacity:1;fill-rule:nonzero;stroke:none"
           id="path4622"
           inkscape:connector-curvature="0" />
        <path
           d="m 318.674,843.409 2.545,0 0,2.545 -2.545,0 0,-2.545 z"
           style="fill:#ffffff;fill-opacity:1;fill-rule:nonzero;stroke:none"
           id="path4624"
           inkscape:connector-curvature="0" />
        <path
           d="m 318.674,840.664 2.545,0 0,2.545 -2.545,0 0,-2.545 z"
           style="fill:#ffffff;fill-opacity:1;fill-rule:nonzero;stroke:none"
           id="path4626"
           inkscape:connector-curvature="0" />
        <path
           d="m 318.674,837.919 2.545,0 0,2.545 -2.545,0 0,-2.545 z"
           style="fill:#ffffff;fill-opacity:1;fill-rule:nonzero;stroke:none"
           id="path4628"
           inkscape:connector-curvature="0" />
        <path
           d="m 321.467,857.134 2.545,0 0,2.545 -2.545,0 0,-2.545 z"
           style="fill:#ffffff;fill-opacity:1;fill-rule:nonzero;stroke:none"
           id="path4630"
           inkscape:connector-curvature="0" />
        <path
           d="m 321.467,854.389 2.545,0 0,2.545 -2.545,0 0,-2.545 z"
           style="fill:#ffffff;fill-opacity:1;fill-rule:nonzero;stroke:none"
           id="path4632"
           inkscape:connector-curvature="0" />
        <path
           d="m 321.467,851.644 2.545,0 0,2.545 -2.545,0 0,-2.545 z"
           style="fill:#ffffff;fill-opacity:1;fill-rule:nonzero;stroke:none"
           id="path4634"
           inkscape:connector-curvature="0" />
        <path
           d="m 321.467,848.899 2.545,0 0,2.545 -2.545,0 0,-2.545 z"
           style="fill:#ffffff;fill-opacity:1;fill-rule:nonzero;stroke:none"
           id="path4636"
           inkscape:connector-curvature="0" />
        <path
           d="m 321.467,846.154 2.545,0 0,2.545 -2.545,0 0,-2.545 z"
           style="fill:#ffffff;fill-opacity:1;fill-rule:nonzero;stroke:none"
           id="path4638"
           inkscape:connector-curvature="0" />
        <path
           d="m 321.467,843.409 2.545,0 0,2.545 -2.545,0 0,-2.545 z"
           style="fill:#ffffff;fill-opacity:1;fill-rule:nonzero;stroke:none"
           id="path4640"
           inkscape:connector-curvature="0" />
        <path
           d="m 321.467,840.664 2.545,0 0,2.545 -2.545,0 0,-2.545 z"
           style="fill:#ffffff;fill-opacity:1;fill-rule:nonzero;stroke:none"
           id="path4642"
           inkscape:connector-curvature="0" />
        <path
           d="m 321.467,837.919 2.545,0 0,2.545 -2.545,0 0,-2.545 z"
           style="fill:#ffffff;fill-opacity:1;fill-rule:nonzero;stroke:none"
           id="path4644"
           inkscape:connector-curvature="0" />
        <path
           d="m 304.711,835.174 2.545,0 0,2.545 -2.545,0 0,-2.545 z"
           style="fill:#ffffff;fill-opacity:1;fill-rule:nonzero;stroke:none"
           id="path4646"
           inkscape:connector-curvature="0" />
        <path
           d="m 307.504,835.174 2.545,0 0,2.545 -2.545,0 0,-2.545 z"
           style="fill:#ffffff;fill-opacity:1;fill-rule:nonzero;stroke:none"
           id="path4648"
           inkscape:connector-curvature="0" />
        <path
           d="m 318.674,835.174 2.545,0 0,2.545 -2.545,0 0,-2.545 z"
           style="fill:#ffffff;fill-opacity:1;fill-rule:nonzero;stroke:none"
           id="path4650"
           inkscape:connector-curvature="0" />
        <path
           d="m 321.467,835.174 2.545,0 0,2.545 -2.545,0 0,-2.545 z"
           style="fill:#ffffff;fill-opacity:1;fill-rule:nonzero;stroke:none"
           id="path4652"
           inkscape:connector-curvature="0" />
      </g>
    </g>
  </g>
</svg>
