<?xml version="1.0" encoding="UTF-8" standalone="no"?>
<!-- Created with Inkscape (http://www.inkscape.org/) -->

<svg
   xmlns:dc="http://purl.org/dc/elements/1.1/"
   xmlns:cc="http://creativecommons.org/ns#"
   xmlns:rdf="http://www.w3.org/1999/02/22-rdf-syntax-ns#"
   xmlns:svg="http://www.w3.org/2000/svg"
   xmlns="http://www.w3.org/2000/svg"
   xmlns:sodipodi="http://sodipodi.sourceforge.net/DTD/sodipodi-0.dtd"
   xmlns:inkscape="http://www.inkscape.org/namespaces/inkscape"
   width="40"
   height="40"
   id="svg3243"
   version="1.1"
   inkscape:version="0.48.5 r10040"
   sodipodi:docname="parks.svg">
  <defs
     id="defs3245">
    <clipPath
       clipPathUnits="userSpaceOnUse"
       id="clipPath102">
      <path
         inkscape:connector-curvature="0"
         d="m 0,0 841.89,0 0,595.276 L 0,595.276 0,0 z"
         id="path104" />
    </clipPath>
  </defs>
  <sodipodi:namedview
     id="base"
     pagecolor="#ffffa9"
     bordercolor="#666666"
     borderopacity="1.0"
     inkscape:pageopacity="0"
     inkscape:pageshadow="2"
     inkscape:zoom="3.959798"
     inkscape:cx="-97.31272"
     inkscape:cy="2.9785632"
     inkscape:document-units="px"
     inkscape:current-layer="layer1"
     showgrid="false"
     inkscape:window-width="1920"
     inkscape:window-height="1056"
     inkscape:window-x="0"
     inkscape:window-y="24"
     inkscape:window-maximized="1"
     showguides="true"
     inkscape:guide-bbox="true">
    <sodipodi:guide
       orientation="0,1"
       position="26.696429,35.535714"
       id="guide3344" />
    <sodipodi:guide
       orientation="0,1"
       position="29.553572,5"
       id="guide3346" />
    <sodipodi:guide
       orientation="1,0"
       position="8.4821429,11.160714"
       id="guide3348" />
  </sodipodi:namedview>
  <metadata
     id="metadata3248">
    <rdf:RDF>
      <cc:Work
         rdf:about="">
        <dc:format>image/svg+xml</dc:format>
        <dc:type
           rdf:resource="http://purl.org/dc/dcmitype/StillImage" />
        <dc:title></dc:title>
      </cc:Work>
    </rdf:RDF>
  </metadata>
  <g
     inkscape:label="Layer 1"
     inkscape:groupmode="layer"
     id="layer1"
     transform="translate(0,-1012.3622)">
    <rect
       style="fill:#666666;stroke:#ffffff;stroke-width:1.48760843;stroke-opacity:1"
       id="rect4033"
       width="47.349232"
       height="47.884945"
       x="-119.79741"
       y="1005.4647" />
    <path
       inkscape:connector-curvature="0"
       d="m 34.128745,1046.3976 -28.7412125,0 0,-28.7411 28.7412125,0 0,28.7411 z"
       style="fill:none;fill-opacity:1;fill-rule:nonzero;stroke:none"
       id="path58" />
    <path
       inkscape:connector-curvature="0"
       d="m 34.128745,1046.3976 -28.7412125,0 0,-28.7411 28.7412125,0 0,28.7411 z"
       style="fill:none;stroke:#ffffff;stroke-width:1.25889540000000011;stroke-linecap:round;stroke-linejoin:round;stroke-miterlimit:10;stroke-opacity:1;stroke-dasharray:none"
       id="path60" />
    <g
       id="g62"
       transform="matrix(0.62944771,0,0,-0.62944771,6.1925972,1038.007)"
       style="stroke:#ffffff">
      <path
         inkscape:connector-curvature="0"
         d="m 0,0 15.68,-7.938 13.776,4.461 10.005,-1.98 -2.165,-7.873"
         style="fill:none;stroke:#ffffff;stroke-width:2;stroke-linecap:round;stroke-linejoin:round;stroke-miterlimit:10;stroke-opacity:1;stroke-dasharray:none"
         id="path64" />
    </g>
    <g
       id="g66"
       transform="matrix(0.62944771,0,0,-0.62944771,33.901323,1026.0805)" />
    <g
       id="g70"
       transform="matrix(0.62944771,0,0,-0.62944771,33.901323,1026.0805)">
      <path
         inkscape:connector-curvature="0"
         d="m 0,0 -2.492,6.435 -0.526,1.122 -9.672,5.826"
         style="fill:none;stroke:#ffffff;stroke-width:2;stroke-linecap:round;stroke-linejoin:round;stroke-miterlimit:10;stroke-opacity:1;stroke-dasharray:none"
         id="path72"
         sodipodi:nodetypes="cccc" />
    </g>
    <g
       id="g74"
       transform="matrix(0.62944771,0,0,-0.62944771,31.010714,1041.6073)"
       style="stroke:#ffffff">
      <path
         inkscape:connector-curvature="0"
         d="M 0,0 4.953,16.664"
         style="fill:none;stroke:#ffffff;stroke-width:2;stroke-linecap:round;stroke-linejoin:round;stroke-miterlimit:10;stroke-opacity:1;stroke-dasharray:none"
         id="path76" />
    </g>
    <g
       id="g82"
       transform="matrix(0.62944771,0,0,-0.62944771,24.610046,1039.4109)"
       style="fill:none">
      <path
         inkscape:connector-curvature="0"
         d="M 0,0 -2.755,9.775 12.269,27.613"
         style="fill:none;stroke:#ffffff;stroke-width:2;stroke-linecap:round;stroke-linejoin:round;stroke-miterlimit:10;stroke-opacity:1;stroke-dasharray:none"
         id="path84"
         sodipodi:nodetypes="ccc" />
    </g>
    <g
       id="g86"
       transform="matrix(0.62944771,0,0,-0.62944771,5.3666959,1031.3585)"
       style="fill:none">
      <path
         inkscape:connector-curvature="0"
         d="M 0,0 12.268,8.988 27.816,-3.018"
         style="fill:none;fill-opacity:1;fill-rule:nonzero;stroke:none"
         id="path88" />
    </g>
    <g
       id="g90"
       transform="matrix(0.62944771,0,0,-0.62944771,5.3666959,1031.3585)"
       style="stroke:#ffffff;fill:none">
      <path
         inkscape:connector-curvature="0"
         d="M 0,0 12.268,8.988 27.816,-3.018"
         style="fill:none;stroke:#ffffff;stroke-width:2;stroke-linecap:round;stroke-linejoin:round;stroke-miterlimit:10;stroke-opacity:1;stroke-dasharray:none"
         id="path92"
         sodipodi:nodetypes="ccc" />
    </g>
    <g
       id="g94"
       transform="matrix(0.62944771,0,0,-0.62944771,18.560363,1017.9788)"
       style="stroke:#ffffff">
      <path
         inkscape:connector-curvature="0"
         d="M 0,0 -8.693,-12.268"
         style="fill:none;stroke:#ffffff;stroke-width:2;stroke-linecap:round;stroke-linejoin:round;stroke-miterlimit:10;stroke-opacity:1;stroke-dasharray:none"
         id="path96" />
    </g>
    <g
       transform="matrix(0.62944771,0,0,-0.62944771,-365.06887,1280.2054)"
       id="g98"
       style="fill:#ffffff">
      <g
         id="g100"
         clip-path="url(#clipPath102)"
         style="fill:#ffffff">
        <g
           id="g106"
           transform="translate(614.0497,407.0625)"
           style="fill:#ffffff">
          <path
             inkscape:connector-curvature="0"
             d="m 0,0 c 0,-1.509 -1.224,-2.733 -2.733,-2.733 -1.509,0 -2.733,1.224 -2.733,2.733 0,1.509 1.224,2.733 2.733,2.733 C -1.224,2.733 0,1.509 0,0"
             style="fill:#ffffff;fill-opacity:1;fill-rule:nonzero;stroke:none"
             id="path108" />
        </g>
        <g
           id="g110"
           transform="translate(607.9935,383.2971)"
           style="fill:#ffffff">
          <path
             inkscape:connector-curvature="0"
             d="m 0,0 c 0,-1.102 -0.893,-1.995 -1.995,-1.995 -1.102,0 -1.995,0.893 -1.995,1.995 0,1.102 0.893,1.995 1.995,1.995 C -0.893,1.995 0,1.102 0,0"
             style="fill:#ffffff;fill-opacity:1;fill-rule:nonzero;stroke:none"
             id="path112" />
        </g>
        <g
           id="g114"
           transform="translate(623.8374,390.8744)"
           style="fill:#ffffff">
          <path
             inkscape:connector-curvature="0"
             d="m 0,0 c 0,-1.102 -0.893,-1.995 -1.995,-1.995 -1.102,0 -1.995,0.893 -1.995,1.995 0,1.102 0.893,1.995 1.995,1.995 C -0.893,1.995 0,1.102 0,0"
             style="fill:#ffffff;fill-opacity:1;fill-rule:nonzero;stroke:none"
             id="path116" />
        </g>
        <g
           id="g118"
           transform="translate(625.7875,394.9092)"
           style="fill:#ffffff">
          <path
             inkscape:connector-curvature="0"
             d="m 0,0 c 0,-0.721 -0.585,-1.306 -1.306,-1.306 -0.721,0 -1.306,0.585 -1.306,1.306 0,0.721 0.585,1.306 1.306,1.306 C -0.585,1.306 0,0.721 0,0"
             style="fill:#ffffff;fill-opacity:1;fill-rule:nonzero;stroke:none"
             id="path120" />
        </g>
        <g
           id="g122"
           transform="translate(594.5925,375.5229)"
           style="fill:#ffffff">
          <path
             inkscape:connector-curvature="0"
             d="m 0,0 c 0,-0.721 -0.585,-1.306 -1.306,-1.306 -0.721,0 -1.306,0.585 -1.306,1.306 0,0.721 0.585,1.306 1.306,1.306 C -0.585,1.306 0,0.721 0,0"
             style="fill:#ffffff;fill-opacity:1;fill-rule:nonzero;stroke:none"
             id="path124" />
        </g>
      </g>
    </g>
  </g>
</svg>
