<?xml version="1.0" encoding="UTF-8" standalone="no"?>
<!-- Created with Inkscape (http://www.inkscape.org/) -->

<svg
   xmlns:dc="http://purl.org/dc/elements/1.1/"
   xmlns:cc="http://creativecommons.org/ns#"
   xmlns:rdf="http://www.w3.org/1999/02/22-rdf-syntax-ns#"
   xmlns:svg="http://www.w3.org/2000/svg"
   xmlns="http://www.w3.org/2000/svg"
   xmlns:sodipodi="http://sodipodi.sourceforge.net/DTD/sodipodi-0.dtd"
   xmlns:inkscape="http://www.inkscape.org/namespaces/inkscape"
   width="40"
   height="40"
   id="svg3243"
   version="1.1"
   inkscape:version="0.48.5 r10040"
   sodipodi:docname="parks:hover.svg">
  <defs
     id="defs3245">
    <clipPath
       clipPathUnits="userSpaceOnUse"
       id="clipPath102">
      <path
         inkscape:connector-curvature="0"
         d="m 0,0 841.89,0 0,595.276 L 0,595.276 0,0 z"
         id="path104" />
    </clipPath>
    <clipPath
       clipPathUnits="userSpaceOnUse"
       id="clipPath224">
      <path
         inkscape:connector-curvature="0"
         d="m 0,0 841.89,0 0,595.276 L 0,595.276 0,0 z"
         id="path226" />
    </clipPath>
  </defs>
  <sodipodi:namedview
     id="base"
     pagecolor="#ffffa9"
     bordercolor="#666666"
     borderopacity="1.0"
     inkscape:pageopacity="0"
     inkscape:pageshadow="2"
     inkscape:zoom="11.2"
     inkscape:cx="28.97965"
     inkscape:cy="2.7186208"
     inkscape:document-units="px"
     inkscape:current-layer="layer1"
     showgrid="false"
     inkscape:window-width="1920"
     inkscape:window-height="1056"
     inkscape:window-x="0"
     inkscape:window-y="24"
     inkscape:window-maximized="1"
     showguides="true"
     inkscape:guide-bbox="true">
    <sodipodi:guide
       orientation="0,1"
       position="26.696429,35.535714"
       id="guide3344" />
    <sodipodi:guide
       orientation="0,1"
       position="29.553572,5"
       id="guide3346" />
    <sodipodi:guide
       orientation="1,0"
       position="8.4821429,11.160714"
       id="guide3348" />
  </sodipodi:namedview>
  <metadata
     id="metadata3248">
    <rdf:RDF>
      <cc:Work
         rdf:about="">
        <dc:format>image/svg+xml</dc:format>
        <dc:type
           rdf:resource="http://purl.org/dc/dcmitype/StillImage" />
        <dc:title></dc:title>
      </cc:Work>
    </rdf:RDF>
  </metadata>
  <g
     inkscape:label="Layer 1"
     inkscape:groupmode="layer"
     id="layer1"
     transform="translate(0,-1012.3622)">
    <path
       inkscape:connector-curvature="0"
       d="m 30.935695,1046.5452 -21.6499807,0 0,-28.8258 21.6499807,0 0,28.8258 z m -13.653432,-18.085 -3.270248,0 0,-6.6151 3.270248,0 0,6.6151 z m -3.307236,9.479 6.61506,0 0,4.1139 -6.61506,0 0,-4.1139 z m 3.810396,-14.0474 7.237406,0 0,16.1047 -4.344675,0"
       style="fill:none;stroke:#231f20;stroke-width:1.1742363;stroke-linecap:round;stroke-linejoin:round;stroke-miterlimit:10;stroke-opacity:1;stroke-dasharray:none"
       id="path218" />
    <g
       transform="matrix(0.58711816,0,0,-0.58711816,-88.024424,1157.5011)"
       id="g220">
      <g
         id="g222"
         clip-path="url(#clipPath224)">
        <g
           id="g228"
           transform="translate(197.2873,215.5223)">
          <path
             inkscape:connector-curvature="0"
             d="m 0,0 c 0,-2.618 -2.123,-4.741 -4.741,-4.741 -2.618,0 -4.741,2.123 -4.741,4.741 0,2.618 2.123,4.741 4.741,4.741 C -2.123,4.741 0,2.618 0,0"
             style="fill:#ffffff;fill-opacity:1;fill-rule:nonzero;stroke:none"
             id="path230" />
        </g>
        <g
           id="g232"
           transform="translate(197.2873,215.5223)">
          <path
             inkscape:connector-curvature="0"
             d="m 0,0 c 0,-2.618 -2.123,-4.741 -4.741,-4.741 -2.618,0 -4.741,2.123 -4.741,4.741 0,2.618 2.123,4.741 4.741,4.741 C -2.123,4.741 0,2.618 0,0 z"
             style="fill:none;stroke:#231f20;stroke-width:2;stroke-linecap:round;stroke-linejoin:round;stroke-miterlimit:10;stroke-opacity:1;stroke-dasharray:none"
             id="path234" />
        </g>
      </g>
    </g>
  </g>
</svg>
