<?xml version="1.0" encoding="UTF-8" standalone="no"?>
<!-- Created with Inkscape (http://www.inkscape.org/) -->

<svg
   xmlns:dc="http://purl.org/dc/elements/1.1/"
   xmlns:cc="http://creativecommons.org/ns#"
   xmlns:rdf="http://www.w3.org/1999/02/22-rdf-syntax-ns#"
   xmlns:svg="http://www.w3.org/2000/svg"
   xmlns="http://www.w3.org/2000/svg"
   xmlns:sodipodi="http://sodipodi.sourceforge.net/DTD/sodipodi-0.dtd"
   xmlns:inkscape="http://www.inkscape.org/namespaces/inkscape"
   width="40"
   height="40"
   id="svg3243"
   version="1.1"
   inkscape:version="0.48.5 r10040"
   sodipodi:docname="public:hover.svg">
  <defs
     id="defs3245">
    <clipPath
       clipPathUnits="userSpaceOnUse"
       id="clipPath102">
      <path
         inkscape:connector-curvature="0"
         d="m 0,0 841.89,0 0,595.276 L 0,595.276 0,0 z"
         id="path104" />
    </clipPath>
    <clipPath
       clipPathUnits="userSpaceOnUse"
       id="clipPath4568">
      <path
         inkscape:connector-curvature="0"
         d="m 0,0 841.89,0 0,595.276 L 0,595.276 0,0 z"
         id="path4570" />
    </clipPath>
    <clipPath
       clipPathUnits="userSpaceOnUse"
       id="clipPath4536">
      <path
         inkscape:connector-curvature="0"
         d="m 0,0 841.89,0 0,595.276 L 0,595.276 0,0 z"
         id="path4538" />
    </clipPath>
  </defs>
  <sodipodi:namedview
     id="base"
     pagecolor="#ffffa9"
     bordercolor="#666666"
     borderopacity="1.0"
     inkscape:pageopacity="0"
     inkscape:pageshadow="2"
     inkscape:zoom="7.919596"
     inkscape:cx="-11.436191"
     inkscape:cy="15.339662"
     inkscape:document-units="px"
     inkscape:current-layer="layer1"
     showgrid="false"
     inkscape:window-width="1920"
     inkscape:window-height="1056"
     inkscape:window-x="0"
     inkscape:window-y="24"
     inkscape:window-maximized="1"
     showguides="true"
     inkscape:guide-bbox="true">
    <sodipodi:guide
       orientation="0,1"
       position="26.696429,35.535714"
       id="guide3344" />
    <sodipodi:guide
       orientation="0,1"
       position="29.553572,5"
       id="guide3346" />
    <sodipodi:guide
       orientation="1,0"
       position="5.555839,-4.9244937"
       id="guide3348" />
  </sodipodi:namedview>
  <metadata
     id="metadata3248">
    <rdf:RDF>
      <cc:Work
         rdf:about="">
        <dc:format>image/svg+xml</dc:format>
        <dc:type
           rdf:resource="http://purl.org/dc/dcmitype/StillImage" />
        <dc:title></dc:title>
      </cc:Work>
    </rdf:RDF>
  </metadata>
  <g
     inkscape:label="Layer 1"
     inkscape:groupmode="layer"
     id="layer1"
     transform="translate(0,-1012.3622)">
    <rect
       style="fill:#808080;fill-opacity:0.94117647;stroke:#ffffff;stroke-opacity:1"
       id="rect4260"
       width="79.044434"
       height="64.346458"
       x="-98.994942"
       y="1003.5465" />
    <g
       id="g66"
       transform="matrix(0.62944771,0,0,-0.62944771,33.901323,1026.0805)" />
    <g
       id="g4504"
       transform="matrix(0.45206916,0,0,-0.45206916,20.421858,1038.3149)">
      <path
         d="m 0,0 c -2.898,0 -5.104,-1.53 -5.387,-5.149 l -0.019,-10.857 10.857,0 0,10.857 C 5.451,-5.149 5.172,0 0,0 z m 16.556,43.667 -6.826,0 0,-6.925 -6.294,0 0,6.925 -6.826,0 0,-6.925 -6.294,0 0,6.925 -6.826,0 0,-11.861 3.557,0 0,-47.973 25.952,0 0,47.973 3.557,0 0,11.861 z m -2.562,-38.379 8.745,0 0,-4.728 5.639,0 0,4.728 8.745,0 0,-21.455 -25.078,0 m -26.635,21.455 -8.745,0 0,-4.728 -5.639,0 0,4.728 -8.745,0 0,-21.455 25.078,0 m -0.312,47.973 25.952,0 m -9.678,-18.765 -6.596,0 0,6.572 6.596,0 0,-6.572 z"
         style="fill:none;stroke:#231f20;stroke-width:2;stroke-linecap:round;stroke-linejoin:round;stroke-miterlimit:10;stroke-opacity:1;stroke-dasharray:none"
         id="path4506"
         inkscape:connector-curvature="0" />
    </g>
  </g>
</svg>
